<svg width="75" height="80" viewBox="0 0 75 80" fill="none" xmlns="http://www.w3.org/2000/svg">
<g clip-path="url(#clip0_459_10967)">
<path d="M59.4539 24.9854L38.372 30.3318L14.9321 38.3321V70.8384C14.8901 72.2892 15.7622 73.7818 17.5807 74.9882C21.279 77.4426 27.4741 77.7675 31.4114 75.712C31.4986 75.6669 31.5729 75.6155 31.6569 75.5704L56.3693 61.5642C58.401 60.5027 59.4249 59.0197 59.4442 57.4917L59.4539 24.9854Z" fill="url(#paint0_linear_459_10967)"/>
<path d="M56.3822 29.0675L31.6762 43.0737L31.4307 43.2217C27.4772 45.2676 21.2822 44.9427 17.5839 42.4818C14.7221 40.5839 14.1956 37.9782 15.9269 35.9323C16.4384 35.348 17.0483 34.857 17.7292 34.4815L21.1207 32.5514L21.4953 32.3391L24.8933 30.4186L37.9843 23.0198L44.3021 19.61C44.3496 19.591 44.3981 19.5749 44.4475 19.5617C45.6761 19.1496 46.9571 18.9124 48.2524 18.8572C51.3144 18.6932 54.5346 19.3977 56.8118 20.9031C60.5133 23.3608 60.3227 27.0152 56.3822 29.0675Z" fill="#2B78B3"/>
<path opacity="0.2" d="M51.9279 22.5823L46.9279 26.8511L37.9971 23.0069L43.1715 20.2211L51.9279 22.5823Z" fill="#0E0000"/>
<path opacity="0.2" d="M24.974 35.3951L24.9029 35.5012L22.4772 39.1845L17.3965 34.6809L21.1206 32.5642V32.0238L21.4921 32.3519L24.9029 35.3307L24.974 35.3951Z" fill="#0E0000"/>
<path d="M31.4876 37.7174C31.5794 35.9787 29.2652 34.4441 26.3188 34.2898C23.3724 34.1355 20.9094 35.4199 20.8176 37.1586C20.7258 38.8973 23.0399 40.4318 25.9864 40.5862C28.9328 40.7405 31.3958 39.4561 31.4876 37.7174Z" fill="#32526E"/>
<path d="M54.8142 24.4454C54.906 22.7067 52.5919 21.1721 49.6454 21.0178C46.699 20.8635 44.236 22.1479 44.1442 23.8866C44.0524 25.6253 46.3666 27.1599 49.313 27.3142C52.2594 27.4685 54.7224 26.1841 54.8142 24.4454Z" fill="#32526E"/>
<path d="M54.4635 23.9817C54.4764 24.1003 54.4764 24.22 54.4635 24.3387C54.3892 25.0657 53.8692 25.7574 52.897 26.2688C52.3319 26.5564 51.7247 26.7529 51.0979 26.8511C49.2924 27.1728 47.2219 26.8189 45.8266 25.886C44.8867 25.2652 44.4442 24.4964 44.47 23.7468V15.5696C44.47 13.5494 45.4584 9.40608 40.2226 9.40608C39.1817 9.4002 38.1547 9.64405 37.2284 10.117C33.1748 12.179 31.1884 18.3554 31.1884 24.4867C31.1884 27.9899 31.1303 37.5471 31.1303 37.5471C31.0915 38.3031 30.5618 39.0301 29.554 39.5512C29.0389 39.8139 28.4885 40.0014 27.9197 40.1078C26.0754 40.4616 23.9113 40.1335 22.4804 39.1845C21.3306 38.4221 20.9171 37.4345 21.2207 36.537L21.1206 36.4663V26.6002C21.1206 23.483 21.9539 4.44247 36.7601 0.691614C39.7187 -0.057913 42.2123 -0.157636 44.3021 0.193002C52.4319 1.5473 54.5217 9.59909 54.5217 12.2433C54.5217 16.6086 54.4764 22.4633 54.4635 23.9817Z" fill="#DCE7EC"/>
<path d="M24.8934 24.1908V37.5311C24.8934 39.0172 27.7681 40.0595 27.907 40.1045C26.0627 40.4584 23.8986 40.1303 22.4677 39.1813C21.3179 38.4189 20.9044 37.4313 21.208 36.5338L21.1079 37.1032V26.6002C21.1079 23.483 21.9412 4.44247 36.7474 0.691615C39.719 -0.057913 42.2125 -0.157636 44.3023 0.193002C28.8824 0.199435 24.8934 20.2469 24.8934 24.1908Z" fill="#DCE7EC"/>
<path opacity="0.2" d="M24.8934 37.5311C24.8934 39.0172 27.7681 40.0595 27.907 40.1045C26.0627 40.4584 23.8986 40.1303 22.4677 39.1813C21.5569 38.5798 21.1079 37.8302 21.1079 37.1032V26.6002C21.1079 23.483 21.9412 4.44247 36.7474 0.691615C39.719 -0.057913 42.2125 -0.157636 44.3023 0.193002C28.8824 0.199435 24.8934 20.2469 24.8934 24.1908V37.5311Z" fill="#0E0000"/>
<path opacity="0.2" d="M51.0784 26.8543C49.2729 27.176 47.2025 26.8221 45.8071 25.8892C44.8672 25.2684 44.4247 24.4996 44.4506 23.75V15.5696C44.4506 13.5494 45.4389 9.40606 40.2032 9.40606C39.1623 9.40019 38.1353 9.64404 37.209 10.117C37.4738 9.93363 48.2555 4.78022 48.2555 12.861V23.0584C48.2522 24.9242 49.5022 26.8446 51.0784 26.8543Z" fill="#0E0000"/>
<path opacity="0.1" d="M55.3004 29.9103L53.5886 28.8359C53.5046 28.7715 53.4238 28.6976 53.3334 28.6364C53.1779 28.5379 53.0161 28.4498 52.8489 28.3726H52.8327C49.5414 26.8318 44.3444 29.6176 40.9077 34.8932C37.471 40.1689 37.0318 46.104 39.8515 48.4394H39.8321L39.9678 48.5295C40.0582 48.6002 40.1422 48.6774 40.2391 48.7418C40.336 48.8061 40.4717 48.8833 40.5912 48.9444L42.2062 50.0157C42.4346 50.1613 42.677 50.2841 42.9297 50.3824L42.8812 50.4725V51.4375L43.8502 51.9651V70.0599L46.0272 71.4013L47.148 72.0897L47.4096 72.2506L48.3334 72.82L51.0207 72.4983L50.8076 66.9846L51.3663 66.4602V64.1956L50.378 63.5072L51.3663 62.2912V60.0587L50.1163 59.5665L51.3663 57.5624V55.5261L49.7643 54.7058L51.3437 52.3736V49.3852L52.2384 48.893V46.7505C53.1279 45.8309 53.9261 44.828 54.6221 43.7557C58.2494 38.2066 58.5498 32.0077 55.3004 29.9103ZM48.4077 36.4566C47.9128 37.2694 47.1606 37.8952 46.2695 38.2355C46.2171 37.2862 46.4842 36.3466 47.0285 35.5655C47.8198 34.3464 48.9859 33.6354 49.9193 33.6837C49.664 33.6727 49.4089 33.7087 49.1667 33.7898C49.2191 34.7382 48.952 35.6767 48.4077 36.4566ZM46.2695 38.2355C46.2938 38.4887 46.3649 38.7352 46.4794 38.9625C46.3649 38.7352 46.2938 38.4887 46.2695 38.2355ZM46.4923 38.9915C46.5454 39.0867 46.6082 39.1761 46.6797 39.2585C46.6082 39.1761 46.5454 39.0867 46.4923 38.9915ZM46.9607 39.5062C46.8709 39.4463 46.7885 39.3761 46.7152 39.2971C46.7885 39.3761 46.8709 39.4463 46.9607 39.5062ZM49.9516 33.6837C50.0612 33.6923 50.1695 33.7128 50.2746 33.7448C50.1695 33.7128 50.0612 33.6923 49.9516 33.6837ZM50.3231 33.7609C50.4249 33.7958 50.5225 33.8422 50.6138 33.8992C50.5225 33.8422 50.4249 33.7958 50.3231 33.7609Z" fill="#0E0000"/>
<path d="M45.5747 50.1347V51.0869L46.5308 51.6144V69.7093L51.014 72.4693L53.4881 68.9243V66.6243L54.0469 66.0999V63.8642L53.0585 63.1758L54.0469 61.9598V59.7274L52.7969 59.2352L54.0469 57.2311V55.1948L52.4674 54.3745L54.0469 52.0423V49.0538L54.9416 48.5616V45.9013L48.908 43.6978L45.5747 50.1347Z" fill="#07E8ED"/>
<path d="M45.5747 50.1347L47.6548 50.466V52.8948L48.7078 52.2385V71.0507L46.5308 69.7093V51.6145L45.5747 51.0869V50.1347Z" fill="#0EAAFC"/>
<path d="M49.8286 54.6351V71.7391L50.5521 72.1862V55.8832L49.8286 54.6351Z" fill="#0EAAFC"/>
<path d="M53.3172 33.5679C53.0995 33.4419 52.856 33.3663 52.605 33.3468C52.3539 33.3273 52.1016 33.3644 51.8669 33.4553C51.8905 34.4022 51.6254 35.3339 51.1064 36.1276C50.5874 36.9213 49.839 37.5396 48.96 37.901C48.9696 38.1537 49.0369 38.4008 49.1566 38.6238C49.2764 38.8467 49.4455 39.0396 49.6512 39.1878C50.6202 39.8311 52.2351 39.072 53.2397 37.5214C54.2442 35.9709 54.2862 34.1952 53.3172 33.5679Z" fill="#0EAAFC"/>
<path d="M57.4157 29.7945L57.9907 29.579L56.2788 28.5046C56.1916 28.4402 56.1141 28.363 56.0236 28.3051C55.8678 28.2073 55.706 28.1192 55.5391 28.0414H55.5198C52.2252 26.5005 47.0314 29.2863 43.5947 34.5619C40.158 39.8376 39.7188 45.7727 42.5385 48.1081H42.5192L42.6516 48.1982C42.7452 48.2689 42.8292 48.3461 42.9261 48.4105C43.023 48.4748 43.1587 48.5488 43.2782 48.6131L44.8932 49.6811L44.9352 49.0828C48.1651 49.3755 52.4028 46.683 55.3486 42.1601C58.2943 37.6372 59.0533 32.5932 57.4157 29.7945ZM49.4765 42.4175C49.3925 42.3531 46.3983 38.3321 46.3983 38.3321L51.4435 31.6281L54.1567 31.9305L56.0947 38.0908C56.0947 38.0908 49.5605 42.4818 49.4765 42.4175Z" fill="#0EAAFC"/>
<path d="M57.9907 29.579C54.7446 27.4784 49.1826 30.2771 45.5682 35.8294C41.9539 41.3817 41.6535 47.5773 44.8996 49.6618C48.1457 51.7464 53.7077 48.9606 57.3221 43.4115C60.9364 37.8624 61.2368 31.6764 57.9907 29.579ZM53.2394 37.5086C52.2316 39.0591 50.6231 39.8054 49.6509 39.1749C48.6787 38.5444 48.7078 36.7816 49.7155 35.2342C50.7232 33.6869 52.3318 32.9374 53.304 33.5679C54.2762 34.1984 54.2471 35.9613 53.2394 37.5086Z" fill="#07E8ED"/>
</g>
<defs>
<linearGradient id="paint0_linear_459_10967" x1="14.9321" y1="51.0258" x2="59.4668" y2="51.0258" gradientUnits="userSpaceOnUse">
<stop stop-color="#2E4259"/>
<stop offset="0.18" stop-color="#324A64"/>
<stop offset="0.3" stop-color="#37536F"/>
<stop offset="1" stop-color="#36506B"/>
</linearGradient>
<clipPath id="clip0_459_10967">
<rect width="74.6154" height="80" fill="white"/>
</clipPath>
</defs>
</svg>
