<svg width="74" height="80" viewBox="0 0 74 80" fill="none" xmlns="http://www.w3.org/2000/svg">
<g clip-path="url(#clip0_460_11588)">
<path d="M10.3428 36.8843V63.8356L36.9828 78.6524V51.7012L10.3428 36.8843Z" fill="#A06641"/>
<path d="M36.9829 78.6524L63.623 63.8356L63.6165 36.8843L36.9829 51.7012V78.6524Z" fill="#EBBD8D"/>
<path d="M36.9828 22.0676L10.3428 36.8844L36.9828 51.7012V22.0676Z" fill="#EBBD8D"/>
<path d="M36.9829 22.0676V51.7012L63.6165 36.8844L36.9829 22.0676Z" fill="#A06641"/>
<path d="M10.3425 36.8843L36.9826 51.7012L27.0742 55.4731L0.356934 40.6594L10.3425 36.8843Z" fill="#D9A773"/>
<path d="M36.983 22.0675L10.3429 36.8843L1.6377 28.6269L28.2649 13.7974L36.983 22.0675Z" fill="#D9A773"/>
<path d="M63.6165 36.8843L36.9829 22.0675L45.7042 14.0586L72.3443 28.8722L63.6165 36.8843Z" fill="#D9A773"/>
<path d="M73.9077 40.5288L47.2999 55.3616L36.9829 51.7012L63.6165 36.8843L73.9077 40.5288Z" fill="#D9A773"/>
<path opacity="0.5" d="M36.9827 22.0676L32.643 40.0956L24.9736 45.0207L36.9827 51.7012" fill="#A06641"/>
<path d="M50.2303 25.5821C52.7519 20.7628 52.48 15.6676 49.6231 14.2017C46.7662 12.7359 42.4061 15.4544 39.8846 20.2738C37.363 25.0931 37.6348 30.1883 40.4917 31.6542C43.3486 33.12 47.7088 30.4015 50.2303 25.5821Z" fill="#0EAAFC"/>
<path d="M49.8188 14.3071L52.6627 16.0688H50.8708L49.8188 14.3071Z" fill="#0EAAFC"/>
<path d="M40.248 31.4909L43.3396 33.4215L42.3134 31.561L40.248 31.4909Z" fill="#0EAAFC"/>
<path d="M53.1678 27.3981C55.6894 22.5787 55.4175 17.4836 52.5606 16.0177C49.7037 14.5519 45.3436 17.2704 42.8221 22.0898C40.3005 26.9091 40.5723 32.0043 43.4292 33.4701C46.2861 34.936 50.6463 32.2174 53.1678 27.3981Z" fill="#07E8ED"/>
<path d="M48.0043 21.2552C47.5857 21.4975 47.2353 21.84 46.9851 22.2514C46.735 22.6627 46.5932 23.1297 46.5728 23.6094V27.3686C46.5728 28.2765 47.2162 28.6938 48.0043 28.2988C48.4219 28.0564 48.7714 27.7142 49.0209 27.3034C49.2705 26.8927 49.412 26.4266 49.4327 25.9477V22.1854C49.4327 21.2806 48.7925 20.8633 48.0043 21.2552Z" fill="#0EAAFC"/>
<path d="M33.2283 40.6148L27.042 44.1351L43.9924 5.97005L50.1819 2.02612L33.2283 40.6148Z" fill="#07E8ED"/>
<path d="M50.182 2.02612L46.7977 0L40.6081 3.94393L23.6577 42.109L27.042 44.1351L43.9924 5.97005L50.182 2.02612Z" fill="#0EAAFC"/>
<path d="M31.4364 22.4267C33.9579 17.6074 33.6861 12.5122 30.8292 11.0463C27.9723 9.58049 23.6122 12.299 21.0906 17.1184C18.569 21.9377 18.8409 27.0329 21.6978 28.4988C24.5547 29.9646 28.9148 27.2461 31.4364 22.4267Z" fill="#0EAAFC"/>
<path d="M31.0215 11.15L33.8621 12.9117H32.0702L31.0215 11.15Z" fill="#0EAAFC"/>
<path d="M21.4478 28.337L24.5393 30.2644L23.5131 28.4039L21.4478 28.337Z" fill="#0EAAFC"/>
<path d="M34.3709 24.2412C36.8925 19.4219 36.6207 14.3267 33.7638 12.8609C30.9069 11.395 26.5467 14.1135 24.0252 18.9329C21.5036 23.7523 21.7755 28.8474 24.6324 30.3133C27.4893 31.7791 31.8494 29.0606 34.3709 24.2412Z" fill="#07E8ED"/>
<path d="M29.2042 18.1013C28.7867 18.3437 28.4371 18.686 28.1876 19.0967C27.9381 19.5074 27.7965 19.9735 27.7759 20.4524V24.2147C27.7759 25.1195 28.4193 25.5368 29.2042 25.145C29.6228 24.9026 29.9733 24.5601 30.2234 24.1488C30.4735 23.7374 30.6153 23.2704 30.6358 22.7907V19.0316C30.6358 18.1236 29.9956 17.7095 29.2042 18.1013Z" fill="#0EAAFC"/>
<path d="M44.5428 69.7164V71.4336L38.9516 74.4727V73.036C40.6095 69.4531 41.5939 67.2581 41.9049 66.4511C42.1539 65.8975 42.3124 65.3082 42.3745 64.7053C42.3998 64.5154 42.349 64.3233 42.233 64.1701C42.1365 64.0841 41.9949 64.0968 41.8019 64.2019C41.6111 64.3047 41.4588 64.4655 41.3676 64.6607C41.2572 64.9669 41.2091 65.2917 41.2261 65.6164V66.5721L38.9516 67.8114V67.4418C38.9449 66.9794 38.9739 66.5172 39.0385 66.0592C39.1188 65.6398 39.2654 65.2356 39.4728 64.8614C39.7081 64.4161 40.012 64.0098 40.3736 63.6572C40.7678 63.2785 41.214 62.9568 41.699 62.7015C42.7091 62.1535 43.4748 61.9847 43.9927 62.2013C44.5106 62.4179 44.768 62.9022 44.768 63.6604C44.742 64.3702 44.5941 65.0705 44.3305 65.7311C44.0409 66.5318 43.1831 68.3636 41.7569 71.2265L44.5428 69.7164Z" fill="#A06641"/>
<path d="M48.641 64.2051V65.9414L45.3018 67.7572V66.021L48.641 64.2051Z" fill="#A06641"/>
<path d="M54.0941 60.5288C54.2391 60.4786 54.3948 60.4672 54.5457 60.4957C54.6965 60.5243 54.837 60.5917 54.9531 60.6913C55.1439 60.8825 55.2383 61.5196 55.2362 62.6028C55.2546 63.2853 55.1611 63.9663 54.9595 64.6193C54.7551 65.1931 54.4256 65.7151 53.9944 66.1485C53.4869 66.6679 52.8994 67.1044 52.254 67.4419C51.4497 67.8783 50.816 68.079 50.3592 68.079C50.1759 68.0911 49.9931 68.0495 49.8335 67.9595C49.6739 67.8694 49.5446 67.7348 49.4616 67.5725C49.3179 67.2645 49.2461 66.6274 49.2461 65.6611V64.8646L51.7843 63.482V65.1195C51.7612 65.3855 51.7885 65.6534 51.8647 65.9095C51.9162 65.9987 52.032 65.9956 52.2122 65.9095C52.3941 65.8195 52.5337 65.663 52.6014 65.4731C52.687 65.0712 52.7194 64.66 52.6979 64.2498V63.5521C52.7214 63.2871 52.676 63.0206 52.5661 62.778C52.5253 62.7159 52.4653 62.6687 52.3951 62.6434C52.3249 62.6181 52.2482 62.6162 52.1768 62.6378C51.828 62.7515 51.4925 62.9021 51.1763 63.087V61.6216C51.5657 61.4239 51.9399 61.1982 52.2958 60.9462C52.4448 60.8226 52.5562 60.6605 52.6175 60.4779C52.6903 60.2275 52.7228 59.9673 52.714 59.7069V59.1462C52.714 58.7926 52.6754 58.5792 52.6014 58.5091C52.5274 58.439 52.4149 58.4422 52.2604 58.5091C52.0991 58.5882 51.9714 58.7214 51.9001 58.885C51.8177 59.1465 51.7839 59.4207 51.8004 59.6942V60.5225L49.2622 61.9019V61.0417C49.2205 60.2192 49.4546 59.406 49.9281 58.7289C50.5118 58.037 51.2336 57.4719 52.0481 57.0691C53.2577 56.4097 54.0813 56.1994 54.5123 56.432C54.9434 56.6646 55.1557 57.1998 55.1557 58.0249C55.1747 58.4852 55.0958 58.9443 54.9241 59.3724C54.709 59.7978 54.429 60.1878 54.0941 60.5288Z" fill="#A06641"/>
<path d="M61.1845 54.1223L60.1744 58.6206L61.4001 62.2682L58.9294 63.6126C58.6849 62.6548 58.4994 61.8169 58.3728 61.0991C58.2013 62.1716 58.0168 63.2101 57.8195 64.2147L55.6963 65.3679L56.7901 60.4587L55.6963 57.1073L57.8195 55.9509C58.1637 57.4546 58.3471 58.3115 58.3728 58.5282C58.6173 56.9831 58.8039 55.9254 58.9294 55.3424L61.1845 54.1223Z" fill="#A06641"/>
</g>
<defs>
<clipPath id="clip0_460_11588">
<rect width="73.9623" height="80" fill="white"/>
</clipPath>
</defs>
</svg>
