<svg width="40" height="40" viewBox="0 0 40 40" fill="none" xmlns="http://www.w3.org/2000/svg">
<rect x="0.5" y="0.5" width="39" height="39" rx="19.5" fill="white"/>
<path d="M20.1552 5.04444V5.05925C20.1701 5.13331 20.1701 5.22219 20.1701 5.31106V15.991C20.1552 16.0502 20.1108 16.065 20.0664 16.0946C19.7553 16.2428 19.4591 16.3761 19.148 16.5094C18.7184 16.702 18.274 16.9093 17.8445 17.1019L16.2892 17.8129C15.8596 18.0055 15.43 18.198 15.0153 18.3906C14.5116 18.6276 13.9932 18.8498 13.4896 19.0868C13.06 19.2794 12.6304 19.4867 12.1861 19.6793C11.8306 19.8422 11.4751 19.9904 11.1344 20.1533C11.1047 20.1681 11.0751 20.1829 11.0455 20.1829C11.0307 20.1829 11.0307 20.1829 11.0159 20.1681L11.4158 19.5015C12.1861 18.2277 12.9415 16.9686 13.7118 15.6947C14.5265 14.3319 15.356 12.9692 16.1707 11.6064C16.9261 10.3474 17.6964 9.08828 18.4518 7.82921C18.9999 6.91083 19.5627 5.99244 20.1108 5.07406C20.1256 5.04444 20.1404 5.02963 20.1404 5H20.1552C20.1404 5.01481 20.1552 5.02963 20.1552 5.04444Z" fill="#828384"/>
<path d="M29.2493 20.1681L29.2641 20.1829L27.0867 21.4716L20.2433 25.5154C20.2136 25.5302 20.184 25.545 20.1692 25.5598C20.1248 25.5598 20.1248 25.5154 20.1248 25.5006V25.3673V16.2131C20.1248 16.1687 20.1248 16.1094 20.1396 16.065C20.1544 16.0057 20.1988 16.0205 20.2433 16.0353C20.4358 16.1242 20.6432 16.2131 20.8358 16.302C21.4135 16.5686 21.9911 16.8352 22.5688 17.087C23.0725 17.3092 23.5613 17.5462 24.0649 17.7684C24.5685 17.9906 25.0722 18.2276 25.5758 18.4498C26.0054 18.6424 26.4497 18.8497 26.8793 19.0423C27.3089 19.2349 27.7532 19.4422 28.1828 19.6348C28.5235 19.7829 28.8642 19.9459 29.2049 20.094C29.2049 20.1384 29.2197 20.1532 29.2493 20.1681Z" fill="#131313"/>
<path d="M20.1543 34.7586C20.1543 34.7734 20.1395 34.7882 20.1395 34.803H20.1246C20.1246 34.7734 20.095 34.7586 20.0802 34.729C19.1618 33.4403 18.2434 32.1368 17.3251 30.8481C16.3919 29.5297 15.4439 28.1966 14.5107 26.8783C13.6071 25.6044 12.6887 24.3157 11.7851 23.0418C11.5481 22.7011 11.3111 22.3752 11.0741 22.0346C11.0593 22.0049 11.0445 21.9901 11.0149 21.9457C11.0593 21.9457 11.089 21.9753 11.1038 21.9901C12.3925 22.7456 13.6663 23.501 14.955 24.2564C16.4363 25.1304 17.9028 26.0043 19.384 26.8783L20.1395 27.3227C20.1691 27.3523 20.1691 27.3819 20.1691 27.4115V34.5512C20.1691 34.6253 20.1691 34.6993 20.1543 34.7586Z" fill="#828384"/>
<path d="M11.0002 20.1977V20.1828C11.4742 19.9755 11.9334 19.7533 12.4074 19.5459C13.0148 19.2645 13.6221 18.9978 14.2294 18.7164C14.6886 18.509 15.1626 18.2868 15.6218 18.0795C16.3032 17.7684 16.9697 17.4721 17.6511 17.1611C18.1103 16.9537 18.5695 16.7463 19.0435 16.5241C19.3694 16.376 19.7101 16.2279 20.0359 16.0798C20.0656 16.0649 20.11 16.0501 20.1248 16.0205C20.1396 16.0205 20.1396 16.0353 20.1248 16.0501V25.4561C20.1248 25.5006 20.11 25.545 20.1396 25.5746C20.11 25.6191 20.0804 25.5746 20.0656 25.5598C19.9322 25.4858 19.7989 25.4117 19.6656 25.3228C16.8068 23.6342 13.9331 21.9307 11.0743 20.2421C11.0595 20.2273 11.0299 20.2125 11.0002 20.1977Z" fill="#2F3030"/>
<path d="M29.2195 21.9457H29.2343C29.2343 21.9753 29.2047 22.0049 29.1899 22.0346C26.4644 25.871 23.7389 29.7223 21.0133 33.5588C20.7319 33.9587 20.4357 34.3586 20.1542 34.7586C20.1394 34.7438 20.1394 34.729 20.1394 34.7141V34.6253V27.4412V27.3078C20.7615 26.9375 21.3689 26.582 21.991 26.2117C24.3906 24.7897 26.7903 23.3825 29.1751 21.9605C29.1899 21.9753 29.2047 21.9605 29.2195 21.9457Z" fill="#2F3030"/>
<path d="M20.1397 16.0502V16.0205V15.9317V5.1777C20.1397 5.13327 20.1249 5.10364 20.1545 5.0592C23.1615 10.0511 26.1685 15.0281 29.1606 20.0199C29.1902 20.0644 29.2347 20.1236 29.2495 20.1829C29.0421 20.1088 28.8495 20.0051 28.657 19.9162C28.42 19.8126 28.1682 19.6941 27.9312 19.5904C27.783 19.5163 27.6201 19.4571 27.472 19.383C27.2202 19.2645 26.9683 19.1608 26.7165 19.0423C26.5684 18.9831 26.4203 18.909 26.2722 18.8349L25.2945 18.3905C25.1316 18.3165 24.9686 18.2424 24.7909 18.1684L24.0799 17.8573C23.9318 17.798 23.7836 17.724 23.6355 17.6499L22.6579 17.2055C22.4949 17.1315 22.332 17.0574 22.1542 16.9834L21.4432 16.6723C21.2803 16.5982 21.1322 16.5242 20.9692 16.4501C20.6878 16.3168 20.4064 16.1835 20.1101 16.065C20.1545 16.0502 20.1397 16.0502 20.1397 16.0502Z" fill="#2F3030"/>
<rect x="0.5" y="0.5" width="39" height="39" rx="19.5" stroke="#DFDFDF"/>
</svg>
