<svg width="85" height="80" viewBox="0 0 85 80" fill="none" xmlns="http://www.w3.org/2000/svg">
<g clip-path="url(#clip0_459_10455)">
<path d="M32.2707 49.1981C30.8001 49.0363 29.2609 48.9249 27.6786 48.8709C26.8231 48.835 25.9556 48.817 25.0762 48.817C20.6074 48.7869 16.149 49.2512 11.7828 50.2014C11.0872 50.3596 10.4167 50.5286 9.77875 50.712C7.08621 51.4779 4.88027 52.438 3.34115 53.5347C1.80204 54.6314 0.918945 55.8864 0.918945 57.1989C0.918945 61.2334 9.14797 64.6027 20.102 65.401C21.706 65.5196 23.3712 65.5807 25.0762 65.5807C27.1595 65.5807 29.1853 65.4872 31.1137 65.3182C31.9174 65.2463 32.6996 65.1564 33.4674 65.0629C38.3046 64.4373 42.4029 63.2938 45.2108 61.8267C45.8122 61.5121 46.3882 61.1514 46.9337 60.748C47.6909 60.2291 48.3256 59.5517 48.7936 58.7631C49.0716 58.2815 49.2205 57.7366 49.2261 57.1809C49.2297 53.4376 42.1001 50.2589 32.2707 49.1981ZM44.0573 58.986C43.4838 59.3462 42.8809 59.6577 42.2551 59.9173C39.303 61.1795 34.8407 62.1036 29.6394 62.4344C28.9978 62.4847 28.3454 62.5171 27.6822 62.5423C27.6702 62.5441 27.6581 62.5441 27.6461 62.5423L27.0838 62.5602H26.6801C26.1467 62.5602 25.5988 62.5602 25.0653 62.5602C24.5319 62.5602 23.984 62.5602 23.4505 62.5602C20.6385 62.5066 17.8335 62.2591 15.0557 61.8195C9.0975 60.8522 4.89108 59.0399 4.19902 56.922C4.17018 56.8393 4.15216 56.7566 4.13053 56.6775C4.10606 56.5519 4.09398 56.4242 4.09449 56.2963C4.12688 55.6656 4.39578 55.07 4.84783 54.6278C5.92917 53.4556 8.14232 52.4236 11.0908 51.6325C11.736 51.4563 12.4136 51.2981 13.1273 51.1507C17.057 50.3826 21.0539 50.0092 25.0581 50.036C25.7033 50.036 26.3449 50.036 26.9721 50.0647C27.9309 50.0863 28.8753 50.1367 29.7944 50.1978C31.6219 50.3236 33.3592 50.5214 34.9668 50.7803C41.5558 51.8411 46.0326 53.9267 46.0326 56.3215C46.0319 56.4495 46.0186 56.5772 45.9929 56.7026C45.9751 56.7867 45.9523 56.8695 45.9244 56.9508C45.91 57.0028 45.8907 57.0533 45.8668 57.1018C45.6073 57.7634 44.9801 58.3963 44.0573 58.986Z" fill="#0EAAFC"/>
<path d="M11.1052 51.6217C8.15677 52.4128 5.95444 53.4448 4.86228 54.6171L3.33398 53.5383C4.8731 52.4416 7.07904 51.4815 9.77158 50.7156L11.1052 51.6217Z" fill="#6AE8FF"/>
<path d="M31.1068 65.3182C29.1784 65.4872 27.1418 65.5807 25.0693 65.5807C23.3644 65.5807 21.6991 65.5196 20.0951 65.4009L15.0488 61.8339C17.829 62.275 20.6363 62.5237 23.4509 62.5782C23.9843 62.5782 24.5322 62.5782 25.0657 62.5782C25.5991 62.5782 26.147 62.5782 26.6805 62.5782H27.0842L31.1068 65.3182Z" fill="#6AE8FF"/>
<path d="M25.0766 48.817L26.987 50.054C26.3598 50.036 25.7182 50.0252 25.073 50.0252C21.0675 49.9981 17.0694 50.3716 13.1386 51.1399L11.7725 50.2014C16.1387 49.2512 20.597 48.7869 25.0658 48.817H25.0766Z" fill="#6AE8FF"/>
<path d="M45.2181 61.8195C42.4102 63.2866 38.3119 64.4301 33.4747 65.0557L29.6611 62.438C34.8516 62.0784 39.3139 61.1722 42.2768 59.9209L45.2181 61.8195Z" fill="#6AE8FF"/>
<path d="M32.2708 49.1981L34.9814 50.7695C33.3738 50.5106 31.6364 50.3128 29.809 50.187L27.6787 48.8745C29.2611 48.9249 30.8002 49.0363 32.2708 49.1981Z" fill="#6AE8FF"/>
<path d="M48.7972 58.781C48.3292 59.5697 47.6945 60.2471 46.9373 60.7659L44.0537 58.986C44.9765 58.3963 45.6036 57.7634 45.8776 57.091L48.7972 58.781Z" fill="#6AE8FF"/>
<path d="M49.2301 57.1989V64.3366C49.2301 66.1345 47.6009 67.7994 44.8255 69.1622C42.9474 70.0466 40.9803 70.7288 38.9574 71.1974C36.1136 71.867 33.2209 72.3095 30.3066 72.5207C28.6197 72.6501 26.8716 72.7185 25.0765 72.7185C22.4394 72.7172 19.8047 72.5599 17.1863 72.2474C7.73178 71.1183 0.912109 68.0007 0.912109 64.3366V57.1989C0.912109 60.8702 7.71376 63.9878 17.1863 65.1097C19.8026 65.4171 22.4349 65.5696 25.0693 65.5663C26.8716 65.5663 28.6125 65.498 30.2994 65.3686C33.2136 65.1574 36.1064 64.7149 38.9502 64.0453C40.9726 63.5751 42.9396 62.8929 44.8182 62.0101C47.6009 60.6616 49.2301 58.9932 49.2301 57.1989Z" fill="#15CBF8"/>
<path d="M30.2991 65.3829V72.5135C28.6122 72.6429 26.8641 72.7112 25.069 72.7112C22.4345 72.7121 19.8022 72.5572 17.186 72.2474V65.124C19.8023 65.4315 22.4346 65.5839 25.069 65.5807C26.8641 65.5807 28.6122 65.5124 30.2991 65.3829Z" fill="#0EAAFC"/>
<path d="M44.8251 62.0245V69.155C42.9471 70.0394 40.98 70.7216 38.957 71.1902V64.0597C40.9795 63.5895 42.9464 62.9073 44.8251 62.0245Z" fill="#68EAFF"/>
<path d="M46.0472 56.3107C46.0467 56.4387 46.0334 56.5664 46.0076 56.6918C45.9903 56.7748 45.9674 56.8564 45.9391 56.9363C44.9839 59.8561 37.3604 62.1862 27.6932 62.553C27.6801 62.5548 27.6667 62.5548 27.6536 62.553L26.684 62.5818C26.1541 62.5818 25.6026 62.5818 25.0728 62.5818C24.5429 62.5818 23.9914 62.5818 23.458 62.5818C13.315 62.3481 5.18328 59.9568 4.19926 56.9327C4.17145 56.8539 4.14858 56.7735 4.13077 56.6918C4.10789 56.566 4.09583 56.4385 4.09473 56.3107C4.09473 52.8407 13.488 50.0251 25.0728 50.0251C36.6576 50.0251 46.0472 52.8299 46.0472 56.3107Z" fill="#0E87FC"/>
<path d="M45.9391 56.9363C44.9839 59.8561 37.3604 62.1862 27.6932 62.553C27.68 62.5548 27.6667 62.5548 27.6535 62.553L26.6839 62.5818C26.1541 62.5818 25.6026 62.5818 25.0727 62.5818C24.5429 62.5818 23.9914 62.5818 23.4579 62.5818C13.3149 62.348 5.18324 59.9568 4.19922 56.9327C5.24812 53.7576 14.1944 51.2765 25.0727 51.2765C35.9511 51.2765 44.8974 53.7612 45.9391 56.9363Z" fill="#07E8ED"/>
<path d="M25.0764 49.1586C25.9487 49.1586 26.8209 49.1765 27.668 49.2089C29.1999 49.2628 30.7354 49.3743 32.2349 49.5361C42.0427 50.5969 48.8876 53.7468 48.8876 57.1988C48.8817 57.6977 48.7477 58.1868 48.4983 58.6192C48.0531 59.3632 47.4518 60.0023 46.7357 60.4926C46.2253 60.861 45.6893 61.1927 45.1317 61.4851L45.056 61.5246C42.2842 62.963 38.1606 64.11 33.4496 64.7213H33.428C32.5449 64.8328 31.8059 64.9119 31.0995 64.9766C29.135 65.1492 27.1345 65.2391 25.0908 65.2391C23.4291 65.2391 21.7639 65.178 20.1419 65.0629C14.8325 64.6746 10.0061 63.6606 6.54937 62.1863C3.15035 60.7479 1.27602 58.9716 1.27602 57.1845C1.27602 56.0302 2.0654 54.8616 3.55405 53.8008C5.0427 52.74 7.22701 51.7835 9.88711 51.0248C10.5287 50.8414 11.1955 50.6652 11.8732 50.5214C16.2145 49.5763 20.6474 49.1144 25.0908 49.1442M25.0908 48.8026C20.622 48.7725 16.1637 49.2368 11.7975 50.187C11.1018 50.3452 10.4314 50.5142 9.7934 50.6976C7.10085 51.4635 4.89491 52.4236 3.3558 53.5203C1.81669 54.617 0.933594 55.872 0.933594 57.1845C0.933594 61.219 9.16262 64.5883 20.1166 65.3865C21.7206 65.5052 23.3859 65.5663 25.0908 65.5663C27.1742 65.5663 29.1999 65.4728 31.1283 65.3038C31.9321 65.2319 32.7143 65.142 33.482 65.0485C38.3192 64.4229 42.4175 63.2794 45.2254 61.8123C45.8268 61.4977 46.4029 61.137 46.9483 60.7335C47.7056 60.2147 48.3403 59.5373 48.8083 58.7487C49.0862 58.2671 49.2352 57.7222 49.2408 57.1665C49.2408 53.4052 42.1111 50.2265 32.2998 49.1658C30.8291 49.004 29.29 48.8925 27.7076 48.8385C26.8522 48.8026 25.9847 48.7846 25.1052 48.7846L25.0908 48.8026Z" fill="#68EAFF"/>
<path d="M25.0727 50.0252C25.7179 50.0252 26.3595 50.0252 26.9866 50.054C27.9454 50.0755 28.8898 50.1259 29.8089 50.187C31.6364 50.3129 33.3738 50.5106 34.9814 50.7695C41.5704 51.8303 46.0471 53.9159 46.0471 56.3107C46.0464 56.4387 46.0331 56.5664 46.0075 56.6919C45.9897 56.7759 45.9668 56.8587 45.939 56.94C45.9245 56.992 45.9052 57.0426 45.8813 57.091C45.6074 57.7634 44.9802 58.3963 44.0574 58.986C43.4839 59.3462 42.881 59.6577 42.2552 59.9173C39.3031 61.1795 34.8408 62.1036 29.6395 62.4344C28.9979 62.4847 28.3455 62.5171 27.6823 62.5423H27.6463L27.084 62.5602H26.6803C26.1468 62.5602 25.5989 62.5602 25.0655 62.5602C24.532 62.5602 23.9841 62.5602 23.4506 62.5602C20.6386 62.5066 17.8337 62.2591 15.0558 61.8195C9.09762 60.8522 4.8912 59.0399 4.19914 56.922C4.1703 56.8393 4.15228 56.7566 4.13065 56.6775C4.10617 56.5519 4.0941 56.4242 4.09461 56.2963C4.127 55.6656 4.3959 55.07 4.84794 54.6279C5.92929 53.4556 8.14244 52.4236 11.0909 51.6325C11.7361 51.4563 12.4137 51.2981 13.1274 51.1507C17.0571 50.3826 21.054 50.0092 25.0582 50.036M25.0582 49.6944C21.0309 49.6671 17.011 50.043 13.0589 50.8163C12.338 50.9637 11.6568 51.1255 11.0008 51.3017C7.92977 52.1252 5.71662 53.1967 4.59924 54.3941C4.08777 54.9043 3.79008 55.5895 3.7666 56.3107C3.76704 56.4603 3.78153 56.6096 3.80986 56.7566V56.7853V56.8141C3.83148 56.8896 3.85311 56.9687 3.87834 57.0514C4.59924 59.2773 8.65788 61.1471 15.0018 62.1755C17.7983 62.6219 20.6227 62.873 23.4543 62.927C24.0562 62.927 24.5861 62.945 25.0763 62.945C25.5665 62.945 26.0963 62.945 26.6947 62.927H26.9001H27.1056H27.3831H27.6427H27.7147C28.4176 62.9019 29.0556 62.8695 29.6684 62.8227C34.8084 62.4811 39.3248 61.575 42.385 60.2661C43.0268 59.9989 43.6453 59.6789 44.2341 59.3096C45.2361 58.6696 45.8921 57.9828 46.1877 57.2636C46.2165 57.1989 46.2382 57.1377 46.2562 57.0838C46.2742 57.0299 46.3102 56.9004 46.3319 56.8105V56.7925C46.3613 56.6457 46.377 56.4964 46.3787 56.3467C46.3787 53.8116 42.1327 51.6145 35.0246 50.4675C33.3846 50.205 31.6328 50.0072 29.8234 49.8814C28.8069 49.813 27.8806 49.7699 26.983 49.7483C26.3054 49.7303 25.6782 49.7195 25.0619 49.7195L25.0582 49.6944Z" fill="#6AE8FF"/>
<path d="M40.853 40.1942C39.3824 40.0323 37.8432 39.9209 36.2609 39.8669C35.4066 39.831 34.5343 39.813 33.6584 39.813C29.1837 39.7818 24.7192 40.2461 20.3471 41.1974C19.655 41.3556 18.9846 41.5246 18.3466 41.708C15.6541 42.4739 13.4481 43.434 11.909 44.5307C10.3699 45.6274 9.48682 46.8824 9.48682 48.1949C9.48682 52.2294 17.7158 55.5987 28.6698 56.397C30.2738 56.5156 31.9391 56.5767 33.644 56.5767C35.7274 56.5767 37.7495 56.4833 39.6815 56.3143C40.4853 56.2423 41.2675 56.1524 42.0352 56.0554C46.8689 55.4333 50.9707 54.2898 53.7786 52.8191C54.379 52.5095 54.955 52.1549 55.5016 51.7583C56.258 51.2385 56.8925 50.5613 57.3615 49.7734C57.6394 49.2918 57.7884 48.747 57.794 48.1913C57.812 44.4336 50.6824 41.2549 40.853 40.1942ZM52.6396 49.982C52.0652 50.3408 51.4625 50.6523 50.8374 50.9133C47.8853 52.1755 43.423 53.0996 38.2217 53.4304C37.5801 53.4807 36.9277 53.5131 36.2645 53.5383H36.2284L35.6661 53.5563H35.2588C34.7254 53.5563 34.1775 53.5742 33.6476 53.5742C33.1178 53.5742 32.5663 53.5742 32.0328 53.5563C29.2199 53.5072 26.4138 53.2645 23.6344 52.8299C17.6798 51.8626 13.4698 50.0503 12.7813 47.9324C12.7525 47.8497 12.7345 47.767 12.7128 47.6879C12.6872 47.5624 12.6739 47.4347 12.6732 47.3067C12.7041 46.6646 12.9801 46.0586 13.4445 45.6131C14.5259 44.4408 16.739 43.4088 19.6875 42.6177C20.3327 42.4415 21.0103 42.2833 21.724 42.1359C25.6536 41.3677 29.6506 40.9942 33.6548 41.0212C34.3 41.0212 34.938 41.0212 35.5688 41.05C36.5276 41.0715 37.472 41.1219 38.3911 41.183C40.2186 41.3089 41.9559 41.5066 43.5635 41.7655C50.1525 42.8443 54.6293 44.9119 54.6293 47.3067C54.6286 47.4347 54.6153 47.5624 54.5896 47.6879C54.568 47.7706 54.55 47.8533 54.5212 47.9324C54.5057 47.9852 54.4864 48.0369 54.4635 48.087C54.1895 48.7594 53.5624 49.3923 52.6396 49.982Z" fill="#0EAAFC"/>
<path d="M19.6878 42.6178C16.7393 43.4088 14.537 44.4408 13.4448 45.6131L11.9165 44.5343C13.4556 43.4556 15.6616 42.4775 18.3541 41.7116L19.6878 42.6178Z" fill="#6AE8FF"/>
<path d="M39.6888 56.3143C37.7568 56.4833 35.7239 56.5767 33.6513 56.5767C31.9464 56.5767 30.2811 56.5156 28.6771 56.397L23.6309 52.8299C26.4122 53.2708 29.2208 53.5195 32.0365 53.5742C32.5664 53.5742 33.1178 53.5922 33.6513 53.5922C34.1848 53.5922 34.7326 53.5922 35.2625 53.5742H35.6698L39.6888 56.3143Z" fill="#6AE8FF"/>
<path d="M33.6585 39.813L35.5689 41.05C34.9381 41.032 34.3001 41.0212 33.6549 41.0212C29.6506 40.9943 25.6537 41.3677 21.7241 42.1359L20.3472 41.1974C24.7146 40.2472 29.1741 39.7829 33.6441 39.813H33.6585Z" fill="#6AE8FF"/>
<path d="M53.7933 52.8299C50.9854 54.297 46.8835 55.4405 42.0499 56.0662L38.2363 53.452C43.4268 53.1104 47.8891 52.1863 50.852 50.9349L53.7933 52.8299Z" fill="#6AE8FF"/>
<path d="M40.8533 40.1942L43.5639 41.7656C41.9563 41.5067 40.2189 41.3089 38.3915 41.183L36.2612 39.8849C37.8436 39.9209 39.3827 40.0324 40.8533 40.1942Z" fill="#6AE8FF"/>
<path d="M57.3797 49.7771C56.9107 50.565 56.2762 51.2421 55.5198 51.762L52.6362 49.982C53.559 49.3923 54.1862 48.7595 54.4601 48.087L57.3797 49.7771Z" fill="#6AE8FF"/>
<path d="M57.8124 48.1949V55.3254C57.8124 57.1233 56.1832 58.7882 53.4077 60.151C51.5278 61.0319 49.5595 61.7117 47.536 62.1791C44.6924 62.8492 41.7996 63.2917 38.8853 63.5023C37.202 63.6318 35.4538 63.7001 33.6588 63.7001C31.0175 63.7091 28.378 63.5614 25.7542 63.2578C16.2816 62.1215 9.47998 59.0039 9.47998 55.347V48.1949C9.47998 51.8626 16.2816 54.9838 25.7542 56.1057C28.3705 56.4133 31.0028 56.5658 33.6372 56.5624C35.4394 56.5624 37.1804 56.4941 38.8637 56.3646C41.778 56.154 44.6708 55.7115 47.5144 55.0413C49.5382 54.5717 51.5064 53.8894 53.3861 53.0061C56.1832 51.6577 57.8124 49.9892 57.8124 48.1949Z" fill="#15CBF8"/>
<path d="M38.8778 56.379V63.5095C37.1945 63.639 35.4463 63.7073 33.6513 63.7073C31.0122 63.7137 28.3751 63.5636 25.7539 63.2578V56.1201C28.3702 56.4277 31.0025 56.5802 33.6369 56.5768C35.4463 56.5768 37.1945 56.5085 38.8778 56.379Z" fill="#0EAAFC"/>
<path d="M53.4073 53.0205V60.151C51.5273 61.0319 49.5591 61.7117 47.5356 62.1791V55.0557C49.5594 54.5861 51.5276 53.9038 53.4073 53.0205Z" fill="#68EAFF"/>
<path d="M54.6257 47.3067C54.6264 47.4347 54.6143 47.5624 54.5896 47.6879C54.5723 47.7708 54.5494 47.8525 54.5212 47.9324C53.5624 50.8522 45.9389 53.1895 36.2717 53.5491H36.2356L35.266 53.5779C34.7326 53.5779 34.1847 53.5779 33.6512 53.5779C33.1178 53.5779 32.5699 53.5779 32.04 53.5779C21.897 53.3441 13.7617 50.9529 12.7813 47.9288C12.7535 47.85 12.7306 47.7695 12.7128 47.6879C12.6882 47.5624 12.6761 47.4347 12.6768 47.3067C12.6768 43.8368 22.0701 41.0212 33.6512 41.0212C45.2324 41.0212 54.6257 43.8404 54.6257 47.3067Z" fill="#0E87FC"/>
<path d="M54.5211 47.9324C53.5623 50.8522 45.9388 53.1895 36.2716 53.5491H36.2356L35.266 53.5779C34.7325 53.5779 34.1846 53.5779 33.6512 53.5779C33.1177 53.5779 32.5698 53.5779 32.04 53.5779C21.897 53.3441 13.7617 50.9529 12.7812 47.9288C13.8302 44.7537 22.7765 42.2726 33.6512 42.2726C44.5259 42.2726 53.4794 44.7573 54.5211 47.9324Z" fill="#07E8ED"/>
<path d="M33.6584 40.1546C34.5307 40.1546 35.403 40.1726 36.2501 40.205C37.782 40.2589 39.3175 40.3704 40.8169 40.5322C50.6211 41.593 57.4696 44.7429 57.4696 48.1949C57.4645 48.6943 57.3291 49.1838 57.0767 49.6152C56.6331 50.3592 56.0329 50.9984 55.3177 51.4887C54.8074 51.857 54.2714 52.1887 53.7138 52.4811L53.6381 52.5207C50.8626 53.959 46.7427 55.1061 42.0316 55.7174H42.0064C41.1269 55.8288 40.388 55.9079 39.6815 55.9727C37.7171 56.1453 35.695 56.2352 33.6729 56.2352C32.0112 56.2352 30.3423 56.174 28.7239 56.059C23.4145 55.6706 18.5845 54.6566 15.1314 53.1823C11.6783 51.708 9.85808 49.9676 9.85808 48.1805C9.85808 47.0262 10.6439 45.8576 12.1361 44.7968C13.6284 43.7361 15.8091 42.7796 18.4692 42.0209C19.1108 41.8375 19.7776 41.6613 20.4552 41.5174C24.7962 40.5704 29.2294 40.1085 33.6729 40.1402M33.6729 39.7986C29.1927 39.7711 24.7234 40.2403 20.3471 41.1974C19.655 41.3556 18.9846 41.5246 18.3466 41.708C15.6541 42.4739 13.4481 43.434 11.909 44.5307C10.3699 45.6275 9.48682 46.8824 9.48682 48.1949C9.48682 52.2294 17.7158 55.5987 28.6698 56.397C30.2738 56.5156 31.9391 56.5768 33.644 56.5768C35.7274 56.5768 37.7495 56.4833 39.6815 56.3143C40.4853 56.2424 41.2675 56.1525 42.0352 56.0554C46.8689 55.4333 50.9707 54.2898 53.7786 52.8191C54.379 52.5095 54.955 52.1549 55.5016 51.7584C56.258 51.2385 56.8925 50.5613 57.3615 49.7735C57.6394 49.2919 57.7884 48.747 57.794 48.1913C57.794 44.4301 50.6644 41.2513 40.853 40.1906C39.3824 40.0288 37.8432 39.9173 36.2609 39.8634C35.4066 39.8274 34.5343 39.8094 33.6584 39.8094L33.6729 39.7986Z" fill="#68EAFF"/>
<path d="M33.655 41.0212C34.3002 41.0212 34.9382 41.0212 35.5689 41.05C36.5277 41.0715 37.4721 41.1219 38.3912 41.183C40.2187 41.3089 41.9561 41.5066 43.5637 41.7655C50.1526 42.8443 54.6294 44.9119 54.6294 47.3067C54.6287 47.4347 54.6154 47.5624 54.5898 47.6879C54.5681 47.7706 54.5501 47.8533 54.5213 47.9324C54.5058 47.9852 54.4865 48.0369 54.4636 48.087C54.1897 48.7594 53.5625 49.3923 52.6397 49.982C52.0654 50.3408 51.4626 50.6523 50.8375 50.9133C47.8854 52.1754 43.4231 53.0996 38.2218 53.4304C37.5802 53.4807 36.9278 53.5131 36.2646 53.5383H36.2285L35.6663 53.5562H35.2589C34.7255 53.5562 34.1776 53.5742 33.6477 53.5742C33.1179 53.5742 32.5664 53.5742 32.0329 53.5562C29.22 53.5072 26.4139 53.2645 23.6345 52.8299C17.6799 51.8626 13.4699 50.0503 12.7814 47.9324C12.7526 47.8497 12.7346 47.767 12.7129 47.6879C12.6873 47.5624 12.674 47.4347 12.6733 47.3067C12.7042 46.6646 12.9802 46.0586 13.4447 45.6131C14.526 44.4408 16.7391 43.4088 19.6876 42.6177C20.3328 42.4415 21.0104 42.2833 21.7241 42.1359C25.6538 41.3677 29.6507 40.9942 33.655 41.0212ZM33.655 40.6796C29.6265 40.6525 25.6054 41.0284 21.652 41.8015C20.9312 41.9489 20.2535 42.1107 19.5975 42.2869C16.5265 43.1211 14.3133 44.1999 13.1923 45.3793C12.67 45.8888 12.363 46.5785 12.3345 47.3067C12.3351 47.4563 12.3496 47.6056 12.3777 47.7526V47.7742V47.8029C12.3994 47.8784 12.4174 47.9575 12.4462 48.0402C13.1671 50.2661 17.2257 52.1359 23.5696 53.1643C26.3687 53.6087 29.1955 53.8574 32.0293 53.9086C32.6313 53.9086 33.1647 53.9086 33.655 53.9086C34.1452 53.9086 34.675 53.9086 35.2734 53.9086H35.486H35.6915H35.969H36.2285H36.3006C37.0215 53.8835 37.6379 53.8511 38.2543 53.8044C43.3979 53.4448 47.9143 52.5566 50.9745 51.2477C51.6163 50.9805 52.2348 50.6606 52.8236 50.2912C53.8256 49.6512 54.4816 48.9608 54.7772 48.2452C54.806 48.1805 54.8277 48.1194 54.8457 48.0654C54.8637 48.0115 54.8997 47.882 54.9214 47.7921V47.7742C54.9497 47.6272 54.9642 47.4779 54.9646 47.3283C54.9646 44.8112 50.7222 42.5962 43.6141 41.4491C41.9741 41.1866 40.2223 40.9888 38.4093 40.863C37.3964 40.7946 36.4701 40.7515 35.5725 40.7299C34.8949 40.7299 34.2641 40.7012 33.6514 40.7012L33.655 40.6796Z" fill="#6AE8FF"/>
<path d="M42.1833 33.8008C40.7091 33.639 39.1735 33.5275 37.5912 33.4736C36.7369 33.4376 35.8646 33.4232 34.9888 33.4232C30.5189 33.3921 26.0594 33.8552 21.6918 34.804C20.9998 34.9622 20.3293 35.1312 19.6913 35.3146C16.9988 36.0805 14.7893 37.0406 13.2538 38.141C11.7182 39.2413 10.8315 40.489 10.8315 41.8015C10.8315 45.836 19.057 49.2089 30.0146 50.0036C31.6186 50.1223 33.2838 50.1834 34.9888 50.1834C37.0721 50.1834 39.0942 50.0899 41.0262 49.9209C41.8264 49.849 42.6122 49.7591 43.38 49.6656C48.2136 49.0399 52.3155 47.9 55.1234 46.4293C55.724 46.1202 56.3 45.7656 56.8463 45.3686C57.6026 44.8497 58.2361 44.1723 58.7026 43.3837C58.9829 42.9029 59.1332 42.3577 59.1387 41.8015C59.1423 38.0403 52.0091 34.8508 42.1833 33.8008ZM53.9699 43.5886C53.3959 43.9481 52.7931 44.2596 52.1677 44.52C49.2156 45.7821 44.7533 46.7062 39.552 47.037C38.9104 47.0838 38.258 47.1161 37.5948 47.1413H37.5551L36.9964 47.1593H36.5891C36.0557 47.1593 35.5078 47.1593 34.9779 47.1593C34.4481 47.1593 33.8966 47.1593 33.3595 47.1593C30.5448 47.1053 27.7373 46.8554 24.9575 46.4114C19.0029 45.4441 14.7929 43.6318 14.1044 41.5138C14.077 41.4337 14.0542 41.352 14.0359 41.2693C14.0103 41.1439 13.997 41.0162 13.9963 40.8882C14.0262 40.2466 14.3009 39.6407 14.764 39.1945C15.8454 38.0223 18.0585 36.9903 21.007 36.1992C21.6558 36.023 22.3298 35.8648 23.0435 35.7174C26.9744 34.9493 30.9725 34.5759 34.9779 34.6027C35.6231 34.6027 36.2611 34.6027 36.8919 34.6314C37.8507 34.653 38.7951 34.7033 39.7142 34.7645C41.5417 34.8903 43.2754 35.0881 44.8866 35.347C51.472 36.4257 55.9488 38.4933 55.9488 40.8882C55.9475 41.016 55.9354 41.1435 55.9127 41.2693C55.8911 41.352 55.8695 41.4347 55.8442 41.5174C55.819 41.6001 55.8082 41.6181 55.7866 41.6685C55.5199 42.3661 54.8927 42.9989 53.9699 43.5886Z" fill="#0EAAFC"/>
<path d="M21.0142 36.2244C18.0658 37.0155 15.867 38.0475 14.7713 39.2197L13.2466 38.141C14.7821 37.0406 16.9916 36.0805 19.6842 35.3146L21.0142 36.2244Z" fill="#6AE8FF"/>
<path d="M41.0189 49.9209C39.0869 50.0899 37.054 50.1834 34.9814 50.1834C33.2765 50.1834 31.6112 50.1222 30.0072 50.0036L24.9609 46.4365C27.7408 46.8805 30.5483 47.1304 33.363 47.1845C33.8964 47.1845 34.4443 47.1845 34.9814 47.1845C35.5184 47.1845 36.0627 47.1845 36.5926 47.1845H36.9999L41.0189 49.9209Z" fill="#6AE8FF"/>
<path d="M34.9887 33.4124L36.8991 34.6458C36.2683 34.6458 35.6303 34.617 34.9851 34.617C30.9796 34.5903 26.9815 34.9637 23.0507 35.7317L21.6846 34.7932C26.0521 33.8443 30.5117 33.3813 34.9815 33.4124H34.9887Z" fill="#6AE8FF"/>
<path d="M55.1233 46.4294C52.3154 47.9001 48.2135 49.0399 43.3799 49.6656L39.5664 47.0514C44.7569 46.6919 49.2192 45.7821 52.1821 44.5344L55.1233 46.4294Z" fill="#6AE8FF"/>
<path d="M42.1834 33.8008L44.894 35.3722C43.2828 35.1133 41.549 34.9155 39.7216 34.7896L37.5913 33.4736C39.1737 33.5275 40.7092 33.639 42.1834 33.8008Z" fill="#6AE8FF"/>
<path d="M58.7062 43.3836C58.2397 44.1723 57.6062 44.8497 56.8499 45.3685L53.9663 43.5886C54.8891 42.9989 55.5162 42.366 55.7902 41.6936L58.7062 43.3836Z" fill="#6AE8FF"/>
<path d="M59.1423 41.8015V48.932C59.1423 50.73 57.5131 52.3948 54.7377 53.7576C52.8584 54.642 50.8901 55.3242 48.866 55.7929C46.0229 56.4663 43.1299 56.9088 40.2152 57.1161C38.5319 57.2456 36.7802 57.3139 34.9887 57.3139C32.3543 57.3173 29.7221 57.1648 27.1058 56.8572C17.6332 55.721 10.8315 52.6034 10.8315 48.9464V41.8015C10.8315 45.4729 17.6332 48.5904 27.1058 49.7123C29.7221 50.0199 32.3543 50.1724 34.9887 50.169C36.791 50.169 38.5319 50.1007 40.2152 49.9712C43.1295 49.7604 46.0223 49.3179 48.866 48.648C50.8896 48.1777 52.8577 47.4955 54.7377 46.6127C57.5131 45.2787 59.1423 43.5958 59.1423 41.8015Z" fill="#15CBF8"/>
<path d="M40.2081 49.9856V57.1161C38.5248 57.2456 36.773 57.3139 34.9816 57.3139C32.3472 57.3173 29.7149 57.1648 27.0986 56.8572V49.7267C29.7149 50.0342 32.3472 50.1867 34.9816 50.1834C36.773 50.1834 38.5248 50.115 40.2081 49.9856Z" fill="#0EAAFC"/>
<path d="M54.7374 46.6271V53.7577C52.8581 54.642 50.8898 55.3243 48.8657 55.7929V48.6624C50.8893 48.1921 52.8575 47.5099 54.7374 46.6271Z" fill="#68EAFF"/>
<path d="M55.9559 40.9169C55.9541 41.0378 55.9408 41.1582 55.9163 41.2765C55.9019 41.3609 55.8802 41.444 55.8514 41.5246C54.8926 44.4444 47.2727 46.7709 37.6019 47.1377H37.5659L36.5963 47.1665C36.0628 47.1665 35.5149 47.1665 34.9815 47.1665C34.448 47.1665 33.9001 47.1665 33.3703 47.1665C23.2309 46.9507 15.092 44.5595 14.1116 41.539C14.0837 41.459 14.0609 41.3773 14.0431 41.2945C14.0186 41.1761 14.0053 41.0558 14.0034 40.9349C14.0034 37.4613 23.3967 34.6458 34.9815 34.6458C46.5663 34.6458 55.9559 37.4434 55.9559 40.9169Z" fill="#0E87FC"/>
<path d="M55.8512 41.5426C54.8924 44.4624 47.2725 46.7889 37.6017 47.1557H37.5657L36.5961 47.1844C36.0626 47.1844 35.5147 47.1844 34.9812 47.1844C34.4478 47.1844 33.8999 47.1844 33.37 47.1844C23.2307 46.9507 15.0917 44.5595 14.1113 41.539C15.1602 38.3603 24.1065 35.8792 34.9812 35.8792C45.856 35.8792 54.8095 38.3639 55.8512 41.5426Z" fill="#07E8ED"/>
<path d="M34.9886 33.772C35.8609 33.772 36.7296 33.772 37.5802 33.826C39.1085 33.8763 40.6477 33.9878 42.1471 34.1496C51.9513 35.2284 58.7998 38.3603 58.7998 41.8123C58.7926 42.3115 58.6573 42.8004 58.4069 43.2327C57.9629 43.9775 57.3614 44.6168 56.6443 45.1061C56.1353 45.4765 55.5992 45.8083 55.0403 46.0985L54.9646 46.1381C52.1892 47.5764 48.0693 48.7235 43.3582 49.3348H43.333C42.4535 49.4427 41.711 49.5218 41.0081 49.5865H40.9865C39.0256 49.7627 37.0035 49.849 34.9814 49.849C33.3162 49.849 31.6509 49.7879 30.0289 49.6728C24.7195 49.2844 19.8931 48.2704 16.44 46.7961C12.9869 45.3218 11.163 43.5815 11.163 41.7943C11.163 40.6401 11.9524 39.4714 13.4447 38.4107C14.9369 37.3499 17.1032 36.4006 19.7777 35.6419C20.4157 35.4621 21.0862 35.2823 21.7602 35.1385C26.1031 34.197 30.5373 33.7387 34.9814 33.772M34.9814 33.434C30.5116 33.4029 26.0521 33.866 21.6845 34.8148C20.9924 34.973 20.322 35.142 19.684 35.3254C16.9915 36.0913 14.7819 37.0514 13.2464 38.1518C11.7109 39.2521 10.8242 40.4998 10.8242 41.8123C10.8242 45.8468 19.0496 49.2197 30.0072 50.0144C31.6112 50.1331 33.2765 50.1942 34.9814 50.1942C37.0648 50.1942 39.0869 50.1007 41.0189 49.9317C41.8191 49.8598 42.6049 49.7699 43.3726 49.6764C48.2063 49.0507 52.3081 47.9108 55.116 46.4401C55.7167 46.131 56.2927 45.7764 56.839 45.3794C57.5953 44.8605 58.2288 44.1831 58.6953 43.3945C58.9756 42.9137 59.1259 42.3685 59.1314 41.8123C59.1314 38.0511 51.9982 34.876 42.1904 33.8116C40.7161 33.6498 39.1806 33.5383 37.5983 33.4844C36.744 33.4484 35.8717 33.434 34.9958 33.434H34.9814Z" fill="#68EAFF"/>
<path d="M34.9851 34.6279C35.6303 34.6279 36.2683 34.6279 36.8991 34.6566C37.8579 34.6782 38.8022 34.7285 39.7214 34.7897C41.5489 34.9155 43.2826 35.1133 44.8938 35.3722C51.4792 36.4509 55.9559 38.5185 55.9559 40.9134C55.9547 41.0412 55.9426 41.1687 55.9199 41.2945C55.8983 41.3772 55.8766 41.4599 55.8514 41.5426C55.8262 41.6253 55.8154 41.6433 55.7937 41.6937C55.5198 42.3661 54.8926 42.999 53.9699 43.5887C53.3959 43.9481 52.7931 44.2596 52.1676 44.52C49.2156 45.7821 44.7532 46.7062 39.552 47.0371C38.9104 47.0838 38.258 47.1162 37.5947 47.1413H37.5551L36.9964 47.1593H36.5891C36.0556 47.1593 35.5077 47.1593 34.9779 47.1593C34.448 47.1593 33.8965 47.1593 33.3595 47.1593C30.5448 47.1053 27.7373 46.8554 24.9574 46.4114C19.0029 45.4441 14.7928 43.6318 14.1044 41.5139C14.077 41.4337 14.0541 41.3521 14.0359 41.2694C14.0102 41.1439 13.9969 41.0162 13.9962 40.8882C14.0262 40.2466 14.3008 39.6407 14.764 39.1946C15.8453 38.0223 18.0585 36.9903 21.0069 36.1992C21.6557 36.023 22.3298 35.8648 23.0435 35.7174C26.9743 34.9493 30.9724 34.5759 34.9779 34.6027M34.9779 34.2611C30.9494 34.2339 26.9283 34.6097 22.975 35.383C22.2541 35.5304 21.5764 35.6922 20.9204 35.8684C17.8494 36.6919 15.6363 37.7634 14.5153 38.9644C13.9915 39.4718 13.6831 40.1605 13.6538 40.8882C13.6543 41.0378 13.6687 41.1871 13.6971 41.3341V41.3557V41.3844C13.7158 41.4646 13.7387 41.5438 13.7655 41.6217C14.4864 43.8476 18.5451 45.7174 24.889 46.7458C27.6841 47.1938 30.5074 47.445 33.3379 47.4973C33.9398 47.4973 34.4697 47.4973 34.9635 47.4973C35.4573 47.4973 35.9799 47.4973 36.5819 47.4973H36.7873H36.9892H37.2703H37.5263H37.602C38.3048 47.4686 38.9392 47.4362 39.552 47.3895C44.692 47.0299 49.2084 46.1417 52.2686 44.8328C52.9115 44.5656 53.5312 44.2456 54.1213 43.8763C55.1233 43.2363 55.7793 42.5495 56.0749 41.8303C56.1037 41.7656 56.1254 41.7045 56.1434 41.6505C56.1614 41.5966 56.1974 41.4707 56.2191 41.3772V41.3593C56.2474 41.2123 56.2619 41.063 56.2623 40.9134C56.2623 38.3963 52.0199 36.1813 44.9118 35.0342C43.2718 34.7717 41.52 34.5739 39.707 34.4481C38.6941 34.3797 37.7642 34.3366 36.8702 34.315C36.1926 34.297 35.5618 34.2863 34.9491 34.2863L34.9779 34.2611Z" fill="#6AE8FF"/>
<path d="M31.3627 25.3038C29.8884 25.1456 28.3529 25.0342 26.7706 24.9766C25.9163 24.9443 25.044 24.9263 24.1645 24.9263C19.6957 24.8944 15.2371 25.3587 10.8712 26.3107C10.1768 26.4689 9.50873 26.6379 8.86713 26.8177C6.17458 27.5872 3.96864 28.5473 2.42953 29.644C0.890421 30.7407 0.00732422 31.9921 0.00732422 33.3046C0.00732422 37.3427 8.23635 40.712 19.1903 41.5102C20.7979 41.6253 22.4596 41.6864 24.1645 41.6864C26.2515 41.6864 28.2736 41.5965 30.202 41.4239C31.0058 41.352 31.788 41.2657 32.5594 41.1686C37.3966 40.5466 41.4949 39.4031 44.3063 37.9324C44.9061 37.6169 45.4809 37.2563 46.0257 36.8536C46.7813 36.3329 47.4157 35.656 47.8856 34.8688C48.1652 34.3865 48.3143 33.8401 48.3181 33.283C48.3181 29.5469 41.1885 26.3682 31.3627 25.3038ZM43.1457 35.0953C42.571 35.4535 41.9683 35.765 41.3435 36.0266C38.3914 37.2887 33.9291 38.2093 28.7278 38.5437C28.0826 38.5904 27.4302 38.6264 26.767 38.6516C26.755 38.6534 26.7429 38.6534 26.7309 38.6516H26.1722H25.7649C25.2315 38.6516 24.6836 38.6516 24.1501 38.6516C23.6166 38.6516 23.0688 38.6516 22.5353 38.6516C19.7208 38.597 16.9134 38.3483 14.1333 37.9072C8.17867 36.9364 3.96864 35.1277 3.27658 33.0061C3.25135 32.927 3.22973 32.8443 3.2081 32.7652C3.18539 32.6394 3.17334 32.5119 3.17206 32.384C3.202 31.7424 3.47666 31.1365 3.93981 30.6904C5.02115 29.5182 7.2343 28.4826 10.1828 27.6915C10.8292 27.5189 11.508 27.3595 12.2193 27.2132C16.1487 26.4434 20.1458 26.0699 24.1501 26.0985C24.7953 26.0985 25.4369 26.0985 26.0641 26.1237C27.0265 26.1489 27.9673 26.1956 28.8864 26.2567C30.7139 26.3826 32.4512 26.5804 34.0588 26.8393C40.6478 27.918 45.1246 29.9856 45.1246 32.384C45.1239 32.5121 45.1106 32.6397 45.0849 32.7652C45.0849 32.8479 45.0453 32.9306 45.02 33.0097C45.0027 33.0624 44.9823 33.1141 44.9588 33.1643C44.6992 33.8727 44.0684 34.4912 43.1457 35.0953Z" fill="#0EAAFC"/>
<path d="M10.1936 27.7274C7.24515 28.5185 5.04282 29.5541 3.95066 30.7264L2.42236 29.6476C3.96147 28.5689 6.16741 27.5908 8.85996 26.8213L10.1936 27.7274Z" fill="#6AE8FF"/>
<path d="M30.1947 41.4239C28.2663 41.5965 26.2297 41.6864 24.1572 41.6864C22.4522 41.6864 20.7906 41.6253 19.183 41.5102L14.1367 37.9432C16.9168 38.3843 19.7242 38.633 22.5388 38.6875C23.0722 38.6875 23.6201 38.6875 24.1536 38.6875C24.687 38.6875 25.2349 38.6875 25.7684 38.6875H26.1757L30.1947 41.4239Z" fill="#6AE8FF"/>
<path d="M24.1643 24.9263L26.0747 26.1597C25.4475 26.1597 24.8059 26.1345 24.1607 26.1345C20.1563 26.1059 16.1593 26.4793 12.2299 27.2492L10.8638 26.3107C15.2297 25.3587 19.6882 24.8944 24.1571 24.9263H24.1643Z" fill="#6AE8FF"/>
<path d="M44.3027 37.936C41.4912 39.4031 37.3929 40.5466 32.5557 41.1723L28.7422 38.5545C33.9326 38.1949 38.395 37.2888 41.3579 36.0374L44.3027 37.936Z" fill="#6AE8FF"/>
<path d="M31.3626 25.3038L34.0696 26.8752C32.462 26.6163 30.7246 26.4185 28.8971 26.2927L26.7705 24.9766C28.3529 25.0342 29.8884 25.142 31.3626 25.3038Z" fill="#6AE8FF"/>
<path d="M47.8856 34.8904C47.4157 35.6776 46.7813 36.3545 46.0257 36.8753L43.1421 35.0953C44.0648 34.5056 44.6956 33.8727 44.966 33.2003L47.8856 34.8904Z" fill="#6AE8FF"/>
<path d="M48.3181 33.3046V40.4351C48.3181 42.233 46.6889 43.9015 43.9135 45.2643C42.0348 46.1471 40.0678 46.8293 38.0454 47.2995C35.2019 47.9699 32.309 48.4112 29.3946 48.6192C27.7077 48.7522 25.9596 48.817 24.1645 48.817C21.5301 48.822 18.8977 48.6695 16.2815 48.3603C6.81258 47.2276 0.00732422 44.1064 0.00732422 40.4495V33.3046C0.00732422 36.9759 6.81258 40.0971 16.2815 41.2154C18.8951 41.5279 21.5251 41.684 24.1573 41.6828C25.9596 41.6828 27.7005 41.6145 29.3874 41.4851C32.3018 41.2771 35.1947 40.8358 38.0382 40.1654C40.0606 39.6952 42.0276 39.013 43.9062 38.1302C46.6889 36.7674 48.3181 35.1025 48.3181 33.3046Z" fill="#15CBF8"/>
<path d="M29.3875 41.4887V48.6192C27.7006 48.7523 25.9524 48.817 24.1574 48.817C21.523 48.8221 18.8906 48.6696 16.2744 48.3603V41.2298C18.8906 41.5378 21.523 41.6891 24.1574 41.6829C25.9524 41.6829 27.7006 41.6181 29.3875 41.4887Z" fill="#0EAAFC"/>
<path d="M43.9135 38.1338V45.2787C42.0348 46.1615 40.0679 46.8437 38.0454 47.3139V40.169C40.0679 39.6988 42.0348 39.0166 43.9135 38.1338Z" fill="#68EAFF"/>
<path d="M45.1351 32.42C45.1344 32.548 45.1211 32.6757 45.0955 32.8011C45.0955 32.8838 45.0558 32.9666 45.0306 33.0457C44.0718 35.9655 36.4483 38.2956 26.7811 38.6623C26.768 38.6642 26.7546 38.6642 26.7415 38.6623L25.7719 38.6875C25.242 38.6875 24.6905 38.6875 24.1607 38.6875C23.6308 38.6875 23.0793 38.6875 22.5459 38.6875C12.4173 38.4466 4.27117 36.0626 3.28715 33.0529C3.2605 32.974 3.23883 32.8935 3.22227 32.8119C3.1966 32.6865 3.18332 32.5588 3.18262 32.4308C3.18262 28.9608 12.5759 26.1453 24.1607 26.1453C35.7455 26.1453 45.1351 28.95 45.1351 32.42Z" fill="#0E87FC"/>
<path d="M45.0306 33.0528C44.0718 35.9727 36.4483 38.3028 26.7811 38.6695C26.7679 38.6714 26.7546 38.6714 26.7414 38.6695L25.7718 38.6947C25.242 38.6947 24.6905 38.6947 24.1606 38.6947C23.6308 38.6947 23.0793 38.6947 22.5458 38.6947C12.4172 38.4466 4.27113 36.0626 3.28711 33.0528C4.33601 29.8777 13.2823 27.3966 24.1606 27.3966C35.0389 27.3966 43.9853 29.8705 45.0306 33.0528Z" fill="#07E8ED"/>
<path d="M24.1644 25.2679C25.0367 25.2679 25.909 25.2859 26.756 25.3182C28.2879 25.3722 29.8234 25.4801 31.3229 25.6455C41.1307 26.7062 47.9792 29.8562 47.9792 33.3046C47.975 33.8098 47.8397 34.3054 47.5863 34.7429C47.1402 35.4862 46.5391 36.1252 45.8237 36.6163C45.3139 36.9855 44.7778 37.3172 44.2197 37.6088L44.1476 37.6483C41.3722 39.0867 37.2487 40.2337 32.5376 40.8414H32.516C31.6329 40.9529 30.894 41.032 30.1875 41.0967H30.1695C28.2086 41.2693 26.2045 41.3592 24.1608 41.3592C22.4991 41.3592 20.8339 41.2981 19.2119 41.183C13.9025 40.7947 9.07607 39.7771 5.61938 38.3064C2.22036 36.868 0.34603 35.0917 0.34603 33.301C0.34603 32.1503 1.13541 30.9817 2.62766 29.9173C4.11992 28.8529 6.28981 27.9036 8.95352 27.1485C9.59512 26.9651 10.2619 26.7889 10.9396 26.6415C15.2811 25.6979 19.714 25.2372 24.1572 25.2679M24.1572 24.9263C19.6883 24.8944 15.2298 25.3587 10.8639 26.3107C10.1694 26.4689 9.5014 26.6379 8.8598 26.8177C6.16726 27.5872 3.96132 28.5473 2.42221 29.644C0.883097 30.7408 0 31.9921 0 33.3046C0 37.3427 8.22902 40.712 19.183 41.5103C20.7906 41.6253 22.4523 41.6865 24.1572 41.6865C26.2442 41.6865 28.2663 41.5966 30.1947 41.424C30.9985 41.352 31.7807 41.2657 32.552 41.1687C37.3892 40.5466 41.4875 39.4031 44.299 37.9324C44.8988 37.617 45.4736 37.2563 46.0184 36.8537C46.774 36.333 47.4084 35.656 47.8783 34.8688C48.1579 34.3866 48.3069 33.8401 48.3108 33.283C48.3108 29.5254 41.1811 26.3467 31.3698 25.2823C29.8955 25.1241 28.36 25.0126 26.7777 24.9551C25.9234 24.9227 25.0511 24.9047 24.1716 24.9047L24.1572 24.9263Z" fill="#68EAFF"/>
<path d="M24.1609 26.1345C24.8061 26.1345 25.4477 26.1345 26.0749 26.1596C27.0373 26.1848 27.978 26.2315 28.8972 26.2927C30.7246 26.4185 32.462 26.6163 34.0696 26.8752C40.6586 27.9539 45.1353 30.0215 45.1353 32.42C45.1346 32.548 45.1214 32.6757 45.0957 32.8011C45.0957 32.8838 45.056 32.9665 45.0308 33.0456C45.0135 33.0984 44.9931 33.15 44.9695 33.2003C44.6992 33.8727 44.0684 34.5055 43.1457 35.0953C42.571 35.4535 41.9683 35.7649 41.3434 36.0266C38.3914 37.2887 33.929 38.2092 28.7278 38.5437C28.0826 38.5904 27.4301 38.6264 26.7669 38.6515H26.7309H26.1722H25.7649C25.2314 38.6515 24.6835 38.6515 24.1501 38.6515C23.6166 38.6515 23.0687 38.6515 22.5353 38.6515C19.7207 38.597 16.9134 38.3483 14.1332 37.9072C8.17863 36.9363 3.9686 35.1276 3.27654 33.0061C3.25131 32.927 3.22969 32.8443 3.20806 32.7652C3.18535 32.6393 3.1733 32.5118 3.17202 32.384C3.20196 31.7424 3.47662 31.1365 3.93977 30.6904C5.02111 29.5181 7.23426 28.4825 10.1827 27.6914C10.8291 27.5188 11.508 27.3594 12.2193 27.2132C16.1486 26.4434 20.1457 26.0699 24.1501 26.0985M24.1501 25.7389C20.1228 25.7118 16.1029 26.0877 12.1508 26.8608C11.4299 27.0046 10.7486 27.1701 10.0926 27.3462C7.0252 28.1697 4.80845 29.2377 3.69106 30.4387C3.16648 30.9469 2.85801 31.637 2.82959 32.366C2.8302 32.5157 2.84468 32.6649 2.87284 32.8119V32.8587C2.89447 32.9378 2.9161 33.0169 2.94133 33.096C3.66222 35.3218 7.72087 37.1916 14.0683 38.2236C16.8637 38.6701 19.6868 38.9212 22.5172 38.9752C23.1192 38.9752 23.649 38.9752 24.1393 38.9752C24.6295 38.9752 25.1593 38.9752 25.7613 38.9752H25.9631H26.1686H26.4461H26.7056H26.7777C27.4986 38.95 28.1186 38.9176 28.7314 38.8709C33.8713 38.5113 38.3878 37.6195 41.448 36.3142C42.0891 36.0456 42.7075 35.7257 43.2971 35.3578C44.2991 34.7177 44.9587 34.0273 45.2507 33.3117C45.278 33.2536 45.3009 33.1935 45.3192 33.1319C45.3516 33.0384 45.3732 32.9485 45.3949 32.8587C45.423 32.7117 45.4375 32.5624 45.4381 32.4128C45.4381 29.8957 41.192 27.6807 34.0876 26.5336C32.444 26.2675 30.6958 26.0733 28.8827 25.9475C27.8663 25.8791 26.9399 25.836 26.046 25.8144C25.3648 25.7928 24.7376 25.7857 24.1212 25.7857L24.1501 25.7389Z" fill="#6AE8FF"/>
<path d="M32.2711 16.0122C30.8004 15.8504 29.2613 15.7389 27.679 15.685C26.8247 15.649 25.956 15.6347 25.0765 15.6347C20.6077 15.6027 16.1491 16.0671 11.7832 17.0191C11.0875 17.1737 10.4171 17.3463 9.77912 17.5261C7.07937 18.31 4.87343 19.2521 3.33432 20.3524C1.79521 21.4527 0.912109 22.7005 0.912109 24.0129C0.912109 28.0475 9.14113 31.4203 20.0951 32.215C21.6991 32.3337 23.3644 32.3948 25.0693 32.3948C27.1527 32.3948 29.1784 32.3013 31.1068 32.1323C31.9106 32.0604 32.6928 31.9705 33.4605 31.877C38.2977 31.2513 42.396 30.1115 45.2039 28.6408C45.8061 28.3275 46.3823 27.9668 46.9269 27.562C47.6831 27.0435 48.3177 26.3675 48.7868 25.5807C49.064 25.0975 49.2129 24.5517 49.2193 23.995C49.2301 20.2517 42.1005 17.0766 32.2711 16.0122ZM44.0577 25.8001C43.4841 26.1603 42.8813 26.4718 42.2555 26.7314C39.3034 27.9935 34.841 28.9176 29.6398 29.2485C28.9982 29.2952 28.3458 29.3276 27.6826 29.3527C27.6706 29.3546 27.6585 29.3546 27.6465 29.3527H27.0842H26.6805C26.1471 29.3527 25.5992 29.3527 25.0657 29.3527C24.5322 29.3527 23.9844 29.3527 23.4509 29.3527C20.6362 29.2989 17.8287 29.049 15.0489 28.6048C9.09788 27.6807 4.89145 25.8612 4.19939 23.7504C4.17056 23.6677 4.15253 23.585 4.13091 23.5059C4.10643 23.3804 4.09436 23.2527 4.09486 23.1248C4.12098 22.4852 4.39036 21.8796 4.8482 21.4311C5.92954 20.2589 8.14269 19.2269 11.0912 18.4358C11.7352 18.2632 12.4176 18.1014 13.1385 17.9504C17.0681 17.1823 21.065 16.8089 25.0693 16.8357C25.7145 16.8357 26.3561 16.8357 26.9833 16.8644C27.9421 16.886 28.8865 16.9363 29.8056 16.9975C31.6331 17.1233 33.3704 17.3211 34.978 17.58C41.567 18.6587 46.0438 20.7263 46.0438 23.1212C46.0431 23.2492 46.0298 23.3769 46.0041 23.5023C45.9863 23.5863 45.9635 23.6692 45.9356 23.7504C45.9212 23.8025 45.9019 23.853 45.878 23.9015C45.6076 24.5775 44.9804 25.2104 44.0577 25.8001Z" fill="#0EAAFC"/>
<path d="M11.1052 18.4358C8.15677 19.2269 5.95444 20.2589 4.86228 21.4311L3.33398 20.3524C4.8731 19.2521 7.07904 18.292 9.77158 17.5261L11.1052 18.4358Z" fill="#6AE8FF"/>
<path d="M31.1068 32.1323C29.1784 32.3013 27.1418 32.3948 25.0693 32.3948C23.3644 32.3948 21.6991 32.3337 20.0951 32.215L15.0488 28.6479C17.8286 29.0921 20.6361 29.342 23.4509 29.3959C23.9843 29.3959 24.5322 29.3959 25.0657 29.3959C25.5991 29.3959 26.147 29.3959 26.6805 29.3959H27.0842L31.1068 32.1323Z" fill="#6AE8FF"/>
<path d="M25.0766 15.6347L26.987 16.8716C26.3598 16.8716 25.7182 16.8429 25.073 16.8429C21.0677 16.8135 17.0696 17.1845 13.1386 17.9504L11.7725 17.0155C16.1397 16.0644 20.5994 15.6013 25.0694 15.6347H25.0766Z" fill="#6AE8FF"/>
<path d="M45.2181 28.6408C42.4102 30.1115 38.3119 31.2514 33.4747 31.877L29.6611 29.2629C34.8516 28.9033 39.3139 27.9935 42.2768 26.7458L45.2181 28.6408Z" fill="#6AE8FF"/>
<path d="M32.2708 16.0122L34.9814 17.5908C33.3738 17.3319 31.6364 17.1341 29.809 17.0083L27.6787 15.685C29.2611 15.7389 30.8002 15.8504 32.2708 16.0122Z" fill="#6AE8FF"/>
<path d="M48.7972 25.5987C48.3281 26.3855 47.6935 27.0615 46.9373 27.58L44.0537 25.7821C44.9765 25.1924 45.6036 24.5595 45.8776 23.8871L48.7972 25.5987Z" fill="#6AE8FF"/>
<path d="M49.2297 24.0129V31.1435C49.2297 32.9414 47.6005 34.6063 44.8251 35.9691C42.9471 36.8535 40.9799 37.5357 38.957 38.0043C36.1139 38.6774 33.2209 39.1199 30.3062 39.3276C28.6193 39.457 26.8712 39.5253 25.0762 39.5253C22.4418 39.5286 19.8095 39.3761 17.1932 39.0687C7.72059 37.9324 0.918945 34.8148 0.918945 31.1579V24.0129C0.918945 27.6843 7.72059 30.8019 17.1932 31.9238C19.8095 32.2312 22.4418 32.3837 25.0762 32.3804C26.8784 32.3804 28.6193 32.3121 30.3062 32.1827C33.2205 31.9715 36.1132 31.529 38.957 30.8594C40.9799 30.3908 42.9471 29.7085 44.8251 28.8242C47.6005 27.4757 49.2297 25.8073 49.2297 24.0129Z" fill="#15CBF8"/>
<path d="M30.2991 32.1971V39.3276C28.6122 39.457 26.8641 39.5254 25.069 39.5254C22.4346 39.5286 19.8023 39.3761 17.186 39.0687V31.9382C19.8023 32.2456 22.4346 32.3981 25.069 32.3948C26.8641 32.3948 28.6122 32.3337 30.2991 32.1971Z" fill="#0EAAFC"/>
<path d="M44.8251 28.8386V35.9691C42.9471 36.8535 40.98 37.5357 38.957 38.0043V30.8738C40.98 30.4052 42.9471 29.7229 44.8251 28.8386Z" fill="#68EAFF"/>
<path d="M46.0472 23.1284C46.0454 23.2492 46.0321 23.3696 46.0076 23.488C45.9903 23.5721 45.9674 23.655 45.9391 23.7361C44.9839 26.6559 37.3604 28.9824 27.6932 29.3492C27.6801 29.351 27.6667 29.351 27.6536 29.3492L26.684 29.3779C26.1541 29.3779 25.6026 29.3779 25.0728 29.3779C24.5429 29.3779 23.9914 29.3779 23.458 29.3779C13.315 29.1442 5.18328 26.753 4.19926 23.7325C4.17144 23.6525 4.14857 23.5708 4.13077 23.488C4.10905 23.3693 4.097 23.249 4.09473 23.1284C4.09473 19.6548 13.488 16.8393 25.0728 16.8393C36.6576 16.8393 46.0472 19.6548 46.0472 23.1284Z" fill="#0E87FC"/>
<path d="M45.9391 23.7541C44.9839 26.6739 37.3604 29.0004 27.6932 29.3672C27.68 29.369 27.6667 29.369 27.6535 29.3672L26.6839 29.3959C26.1541 29.3959 25.6026 29.3959 25.0727 29.3959C24.5429 29.3959 23.9914 29.3959 23.4579 29.3959C13.3149 29.1622 5.18324 26.771 4.19922 23.7505C5.24812 20.5718 14.1944 18.0906 25.0727 18.0906C35.9511 18.0906 44.8974 20.5754 45.9391 23.7541Z" fill="#07E8ED"/>
<path d="M25.0765 15.9727C25.9488 15.9727 26.8211 15.9727 27.6681 16.0266C29.2 16.077 30.7356 16.1884 32.235 16.3503C42.0428 17.429 48.8877 20.561 48.8877 24.013C48.885 24.5179 48.7508 25.0136 48.4984 25.4513C48.0504 26.1862 47.4493 26.8165 46.7358 27.2995C46.2263 27.6692 45.6902 28.0009 45.1318 28.292L45.0561 28.3316C42.2843 29.7699 38.1608 30.917 33.4497 31.5282H33.4281C32.545 31.6361 31.8061 31.7152 31.0996 31.7799C29.1352 31.9561 27.1347 32.0424 25.0909 32.0424C23.4293 32.0424 21.764 31.9813 20.142 31.8662C14.8326 31.4779 10.0062 30.4639 6.54951 28.9896C3.12886 27.58 1.24372 25.8001 1.24372 24.013C1.24372 22.8587 2.0331 21.6901 3.52175 20.6293C5.0104 19.5685 7.19471 18.612 9.85482 17.8533C10.4964 17.6735 11.1632 17.4937 11.8409 17.3499C16.1857 16.404 20.6223 15.9421 25.0693 15.9727M25.0693 15.6347C20.6005 15.6028 16.1419 16.0671 11.776 17.0191C11.0803 17.1737 10.4099 17.3463 9.77191 17.5261C7.07937 18.31 4.87343 19.2521 3.33432 20.3524C1.79521 21.4527 0.912109 22.7005 0.912109 24.013C0.912109 28.0475 9.14113 31.4204 20.0951 32.215C21.6991 32.3337 23.3644 32.3948 25.0693 32.3948C27.1527 32.3948 29.1784 32.3013 31.1068 32.1323C31.9106 32.0604 32.6928 31.9705 33.4605 31.877C38.2977 31.2514 42.396 30.1115 45.2039 28.6408C45.8061 28.3275 46.3823 27.9668 46.9269 27.562C47.6831 27.0435 48.3177 26.3675 48.7868 25.5807C49.064 25.0975 49.2129 24.5517 49.2193 23.995C49.2193 20.2337 42.0897 17.0586 32.2783 15.9943C30.8076 15.8325 29.2685 15.721 27.6862 15.667C26.8319 15.6311 25.9632 15.6167 25.0837 15.6167L25.0693 15.6347Z" fill="#68EAFF"/>
<path d="M25.0727 16.8393C25.7179 16.8393 26.3595 16.8393 26.9866 16.8681C27.9454 16.8896 28.8898 16.94 29.8089 17.0011C31.6364 17.127 33.3738 17.3247 34.9814 17.5836C41.5704 18.6624 46.0471 20.73 46.0471 23.1248C46.0464 23.2528 46.0331 23.3805 46.0075 23.506C45.9897 23.59 45.9668 23.6728 45.939 23.7541C45.9245 23.8061 45.9052 23.8567 45.8813 23.9051C45.6074 24.5775 44.9802 25.2104 44.0574 25.8001C43.4839 26.1603 42.881 26.4718 42.2552 26.7314C39.3031 27.9935 34.8408 28.9177 29.6395 29.2485C28.9979 29.2952 28.3455 29.3276 27.6823 29.3528H27.6463H27.084H26.6803C26.1468 29.3528 25.5989 29.3528 25.0655 29.3528C24.532 29.3528 23.9841 29.3528 23.4506 29.3528C20.6359 29.2989 17.8284 29.049 15.0486 28.6048C9.09762 27.6807 4.8912 25.8612 4.19914 23.7505C4.1703 23.6678 4.15228 23.5851 4.13065 23.506C4.10617 23.3804 4.0941 23.2527 4.09461 23.1248C4.12072 22.4852 4.3901 21.8796 4.84794 21.4312C5.92929 20.2589 8.14244 19.2269 11.0909 18.4358C11.7349 18.2632 12.4173 18.1014 13.1382 17.9504C17.0679 17.1823 21.0648 16.8089 25.0691 16.8357M25.0691 16.4761C21.0417 16.4489 17.0219 16.8247 13.0698 17.598C12.3489 17.7454 11.6676 17.9073 11.0116 18.0834C7.94419 18.9285 5.73104 20 4.61365 21.1866C4.09058 21.699 3.78696 22.3938 3.7666 23.1248C3.76704 23.2744 3.78153 23.4237 3.80986 23.5707V23.5923V23.621C3.83148 23.6965 3.85311 23.7792 3.87834 23.8583C4.59924 26.0842 8.65788 27.954 15.0018 28.986C17.7984 29.4312 20.6227 29.6811 23.4543 29.7339C24.0562 29.7339 24.5861 29.7339 25.0763 29.7339C25.5665 29.7339 26.0963 29.7339 26.6947 29.7339H27.1056H27.3831H27.6427H27.7147C28.4176 29.7088 29.0556 29.6728 29.6684 29.6261C34.8084 29.2665 39.3248 28.3783 42.385 27.0694C43.0268 26.8022 43.6453 26.4822 44.2341 26.1129C45.2361 25.4729 45.8921 24.7861 46.1877 24.0669C46.2165 24.0022 46.2382 23.9411 46.2562 23.8871C46.2869 23.7976 46.3121 23.7064 46.3319 23.6138V23.5959C46.3613 23.449 46.377 23.2997 46.3787 23.15C46.3787 20.6329 42.1327 18.4179 35.0246 17.2708C33.3846 17.0083 31.6328 16.8105 29.8234 16.6847C28.8069 16.6163 27.8806 16.5732 26.983 16.5516C26.3162 16.5121 25.689 16.5121 25.0727 16.5121L25.0691 16.4761Z" fill="#6AE8FF"/>
<path d="M37.6197 6.52286C36.1491 6.36464 34.61 6.25317 33.0276 6.19564C32.1721 6.16208 31.3046 6.1453 30.4252 6.1453C25.9541 6.11016 21.4931 6.57207 17.1246 7.5225C16.429 7.68072 15.7585 7.84972 15.1205 8.02951C12.4172 8.80621 10.2221 9.7663 8.68295 10.863C7.14384 11.9598 6.26074 13.2111 6.26074 14.5236C6.26074 18.5617 14.4898 21.931 25.4438 22.7293C27.0478 22.8443 28.713 22.9055 30.4179 22.9055C32.5013 22.9055 34.5234 22.8156 36.4554 22.643C37.2592 22.571 38.0414 22.4847 38.8092 22.3877C43.6464 21.7656 47.7447 20.6221 50.5526 19.1514C51.1529 18.8418 51.7289 18.4872 52.2755 18.0906C53.0311 17.5698 53.6654 16.8929 54.1354 16.1057C54.414 15.6231 54.5629 15.0769 54.5679 14.52C54.5896 10.7587 47.4491 7.58722 37.6197 6.52286ZM49.4063 16.3143C48.832 16.6731 48.2292 16.9846 47.6041 17.2456C44.652 18.5078 40.1897 19.4283 34.9884 19.7627C34.3468 19.8106 33.6944 19.8466 33.0312 19.8706H32.9951H32.4328H32.0255C31.4957 19.8706 30.9442 19.8706 30.4143 19.8706C29.8845 19.8706 29.333 19.8706 28.7995 19.8706C25.985 19.816 23.1776 19.5673 20.3975 19.1262C14.4465 18.1913 10.2545 16.3826 9.53361 14.2611C9.50477 14.182 9.48675 14.0993 9.46512 14.0202C9.44405 13.893 9.4356 13.7642 9.43989 13.6354C9.47079 12.9933 9.74678 12.3873 10.2112 11.9418C11.3034 10.7587 13.4985 9.73753 16.4542 8.96083C17.1006 8.78823 17.7794 8.62882 18.4907 8.48258C22.4258 7.70832 26.4288 7.33006 30.4396 7.3535C31.0848 7.3535 31.7228 7.35349 32.3536 7.37867C33.3123 7.40384 34.2567 7.45058 35.1759 7.51171C37.0033 7.63757 38.7407 7.83534 40.3483 8.09424C46.9373 9.17298 51.414 11.2406 51.414 13.639C51.4133 13.767 51.4 13.8947 51.3744 14.0202C51.3528 14.1029 51.3347 14.1856 51.3059 14.2647C51.2898 14.3173 51.2706 14.369 51.2482 14.4193C50.9563 15.0917 50.3291 15.7246 49.4063 16.3143Z" fill="#0EAAFC"/>
<path d="M16.4544 8.96082C13.4987 9.73751 11.3036 10.7587 10.2114 11.9454L8.68311 10.8666C10.2222 9.78786 12.4282 8.80979 15.1207 8.04028L16.4544 8.96082Z" fill="#6AE8FF"/>
<path d="M36.4559 22.6429C34.5239 22.8155 32.491 22.9054 30.4184 22.9054C28.7135 22.9054 27.0482 22.8443 25.4442 22.7292L20.3979 19.1622C23.1781 19.6033 25.9855 19.852 28.8 19.9065C29.3298 19.9065 29.8813 19.9065 30.4148 19.9065C30.9483 19.9065 31.4961 19.9065 32.026 19.9065H32.4333L36.4559 22.6429Z" fill="#6AE8FF"/>
<path d="M30.4399 6.1453L32.3503 7.37867C31.7195 7.37867 31.0815 7.3535 30.4363 7.3535C26.4321 7.32653 22.4351 7.69996 18.5055 8.4682L17.125 7.5225C21.4909 6.57019 25.9494 6.10586 30.4183 6.13811L30.4399 6.1453Z" fill="#6AE8FF"/>
<path d="M50.5599 19.155C47.752 20.6221 43.6537 21.7656 38.8165 22.3913L35.0029 19.7771C40.1934 19.4175 44.6557 18.5114 47.6186 17.26L50.5599 19.155Z" fill="#6AE8FF"/>
<path d="M37.6199 6.52284L40.3305 8.09421C38.7229 7.83532 36.9855 7.63755 35.1581 7.51169L33.0278 6.19562C34.6102 6.25315 36.1493 6.36462 37.6199 6.52284Z" fill="#6AE8FF"/>
<path d="M54.1463 16.1093C53.6763 16.8965 53.042 17.5734 52.2864 18.0942L49.4028 16.2963C50.3256 15.7066 50.9528 15.0737 51.2267 14.4013L54.1463 16.1093Z" fill="#6AE8FF"/>
<path d="M54.5899 14.5236V21.6541C54.5899 23.452 52.9607 25.1205 50.1852 26.4833C48.3066 27.3661 46.3396 28.0483 44.3172 28.5185C41.4734 29.1882 38.5807 29.6307 35.6664 29.8418C33.9831 29.9712 32.235 30.036 30.4399 30.036C27.8055 30.0411 25.1731 29.8886 22.5569 29.5793C13.0844 28.4466 6.28271 25.3254 6.28271 21.6685V14.5236C6.28271 18.1949 13.0844 21.3161 22.5569 22.4344C25.1731 22.7437 27.8055 22.8962 30.4399 22.8911C32.2422 22.8911 33.9831 22.8227 35.6664 22.6933C38.5807 22.4851 41.4736 22.0438 44.3172 21.3736C46.3396 20.9034 48.3066 20.2212 50.1852 19.3384C52.9499 17.9863 54.5899 16.3215 54.5899 14.5236Z" fill="#15CBF8"/>
<path d="M35.6446 22.7076V29.8418C33.9613 29.9712 32.2132 30.0359 30.4181 30.0359C27.7837 30.0411 25.1513 29.8886 22.5352 29.5793V22.4487C25.1513 22.7581 27.7837 22.9106 30.4181 22.9054C32.2132 22.9054 33.9613 22.8371 35.6446 22.7076Z" fill="#0EAAFC"/>
<path d="M50.1742 19.3528V26.4833C48.2956 27.3661 46.3286 28.0483 44.3062 28.5185V21.388C46.3286 20.9178 48.2956 20.2356 50.1742 19.3528Z" fill="#68EAFF"/>
<path d="M51.3961 13.6354C51.3954 13.7634 51.3821 13.8911 51.3565 14.0165C51.3391 14.0995 51.3163 14.1812 51.288 14.261C50.3292 17.1809 42.7093 19.511 33.0421 19.8777H33.0025L32.0329 19.9029C31.503 19.9029 30.9515 19.9029 30.4217 19.9029C29.8918 19.9029 29.3403 19.9029 28.8069 19.9029C18.6639 19.6764 10.5322 17.2851 9.53373 14.261C9.50592 14.1822 9.48305 14.1018 9.46524 14.0201C9.44254 13.8943 9.43048 13.7668 9.4292 13.639C9.4292 10.169 18.8225 7.35345 30.4073 7.35345C41.992 7.35345 51.3961 10.169 51.3961 13.6354Z" fill="#0E87FC"/>
<path d="M51.288 14.2646C50.3292 17.1844 42.7093 19.5145 33.0421 19.8813H33.0024L32.0328 19.9065C31.503 19.9065 30.9515 19.9065 30.4216 19.9065C29.8918 19.9065 29.3403 19.9065 28.8068 19.9065C18.6638 19.6763 10.5321 17.2851 9.53369 14.261C10.615 11.0859 19.5433 8.6012 30.4397 8.6012C41.336 8.6012 50.2643 11.0895 51.288 14.2646Z" fill="#07E8ED"/>
<path d="M30.4396 6.48689C31.3119 6.48689 32.1841 6.50486 33.0312 6.53723C34.5631 6.59116 36.0986 6.69904 37.5981 6.86445C47.3806 7.92522 54.2291 11.0752 54.2291 14.5236C54.2271 15.0291 54.0916 15.5252 53.8362 15.9619C53.3916 16.7051 52.7916 17.3441 52.0773 17.8353C51.5669 18.2037 51.0309 18.5354 50.4733 18.8278L50.3976 18.8673C47.6221 20.3057 43.5022 21.4527 38.7911 22.0604H38.7659C37.8864 22.1719 37.1475 22.251 36.441 22.3157C34.4766 22.4883 32.4545 22.5782 30.4324 22.5782C28.7707 22.5782 27.1054 22.5171 25.4834 22.402C20.174 22.0137 15.3476 20.9961 11.8909 19.5254C8.48831 18.087 6.61759 16.3107 6.61759 14.52C6.61759 13.3693 7.40336 12.2007 8.89561 11.1363C10.3879 10.0719 12.5686 9.11903 15.2287 8.36391C15.8703 8.18052 16.5371 8.00433 17.2147 7.8569C21.5562 6.91292 25.9891 6.45224 30.4324 6.48329M30.4324 6.14169C25.9588 6.10719 21.4953 6.57032 17.1246 7.52248C16.429 7.6807 15.7585 7.8497 15.1205 8.0295C12.4172 8.8062 10.2221 9.76628 8.68295 10.863C7.14384 11.9597 6.26074 13.2111 6.26074 14.5236C6.26074 18.5617 14.4898 21.931 25.4438 22.7292C27.0478 22.8443 28.713 22.9054 30.4179 22.9054C32.5013 22.9054 34.5234 22.8155 36.4554 22.6429C37.2592 22.571 38.0414 22.4847 38.8092 22.3876C43.6464 21.7656 47.7447 20.6221 50.5526 19.1514C51.1529 18.8417 51.7289 18.4871 52.2755 18.0906C53.0311 17.5698 53.6654 16.8929 54.1354 16.1057C54.414 15.6231 54.5629 15.0769 54.5679 14.52C54.5679 10.7623 47.4383 7.58361 37.6269 6.51925C36.1563 6.36103 34.6172 6.24956 33.0348 6.19203C32.1793 6.15847 31.3119 6.14169 30.4324 6.14169Z" fill="#68EAFF"/>
<path d="M30.4396 7.3535C31.0848 7.3535 31.7228 7.3535 32.3536 7.37867C33.3123 7.40384 34.2567 7.45059 35.1759 7.51172C37.0033 7.63757 38.7407 7.83534 40.3483 8.09424C46.9373 9.17299 51.414 11.2406 51.414 13.639C51.4133 13.767 51.4 13.8947 51.3744 14.0202C51.3527 14.1029 51.3347 14.1856 51.3059 14.2647C51.2898 14.3173 51.2706 14.369 51.2482 14.4193C50.9743 15.0917 50.3471 15.7246 49.4244 16.3143C48.85 16.6731 48.2472 16.9846 47.6221 17.2456C44.67 18.5078 40.2077 19.4283 35.0064 19.7627C34.3648 19.8106 33.7124 19.8466 33.0492 19.8706H33.0132H32.4509H32.0436C31.5137 19.8706 30.9622 19.8706 30.4324 19.8706C29.9025 19.8706 29.351 19.8706 28.8176 19.8706C26.003 19.816 23.1957 19.5673 20.4155 19.1262C14.4465 18.1913 10.2545 16.3826 9.53361 14.2611C9.50478 14.182 9.48675 14.0993 9.46513 14.0202C9.44406 13.8931 9.43561 13.7642 9.4399 13.6354C9.47079 12.9933 9.74678 12.3873 10.2113 11.9418C11.3034 10.7587 13.4985 9.73753 16.4542 8.96083C17.1006 8.78823 17.7795 8.62882 18.4907 8.48259C22.4258 7.70832 26.4288 7.33007 30.4396 7.3535ZM30.4396 6.99391C26.4111 6.96688 22.39 7.34272 18.4367 8.11581C17.7158 8.25965 17.0381 8.42506 16.3821 8.60125C13.3111 9.4247 11.098 10.4927 9.97696 11.6937C9.44462 12.2038 9.13076 12.8996 9.10107 13.6354C9.10168 13.7851 9.11616 13.9343 9.14433 14.0813V14.1029V14.128C9.16595 14.2071 9.18758 14.2863 9.21281 14.3654C9.94813 16.5948 14.0032 18.4646 20.347 19.4966C23.1424 19.9429 25.9655 20.194 28.7959 20.2481C29.3979 20.2481 29.9313 20.2481 30.4216 20.2481C30.9118 20.2481 31.4416 20.2481 32.04 20.2481H32.2418H32.4473H32.7248H32.9843H33.0564C33.7773 20.223 34.3937 20.1906 35.0101 20.1439C40.15 19.7843 44.6664 18.8925 47.7267 17.5872C48.3678 17.3185 48.9862 16.9987 49.5757 16.6307C50.5778 15.9907 51.2338 15.3003 51.5294 14.5847C51.5582 14.52 51.5798 14.4589 51.5979 14.4049C51.6159 14.351 51.6519 14.2215 51.6735 14.1316C51.7017 13.9847 51.7162 13.8354 51.7168 13.6858C51.7168 11.1687 47.4743 8.95364 40.3663 7.80657C38.7263 7.54048 36.9745 7.34631 35.1614 7.22045C34.1486 7.15213 33.2222 7.10898 32.3247 7.08741C31.6471 7.06583 31.0163 7.05864 30.4035 7.05864L30.4396 6.99391Z" fill="#6AE8FF"/>
<path d="M31.3591 0.377571C29.8884 0.215759 28.3493 0.104288 26.767 0.050351C25.9127 0.0143927 25.0404 9.59053e-06 24.1645 9.59053e-06C19.6947 -0.0311593 15.2352 0.431933 10.8676 1.38081C10.1756 1.53902 9.50512 1.70803 8.86713 1.89142C6.17459 2.65733 3.96504 3.61741 2.42953 4.71774C0.894026 5.81806 0.00732422 7.06581 0.00732422 8.37829C0.00732422 12.4128 8.23635 15.7857 19.1904 16.5804C20.7943 16.699 22.4596 16.7602 24.1645 16.7602C26.2479 16.7602 28.27 16.6667 30.202 16.4977C31.0058 16.4258 31.788 16.3359 32.5558 16.2424C37.3894 15.6167 41.4912 14.4768 44.2991 13.0061C44.9004 12.6912 45.4764 12.3306 46.0221 11.9274C46.7785 11.4075 47.413 10.7304 47.882 9.94248C48.1599 9.46088 48.3089 8.916 48.3145 8.36031C48.3181 4.61705 41.1885 1.44194 31.3591 0.377571ZM43.1457 10.1654C42.5721 10.5256 41.9693 10.8371 41.3435 11.0967C38.3914 12.3589 33.9291 13.283 28.7278 13.6138C28.0862 13.6606 27.4338 13.6929 26.7706 13.7181H26.7345H26.1722H25.7649C25.2315 13.7181 24.6836 13.7181 24.1537 13.7181C23.6239 13.7181 23.0724 13.7181 22.5353 13.7181C19.7206 13.6668 16.913 13.4181 14.1333 12.9738C8.17867 12.0065 3.96864 10.1942 3.28019 8.07624C3.25283 7.99607 3.22996 7.91444 3.2117 7.83173C3.18604 7.70627 3.17276 7.57861 3.17206 7.45057C3.20295 6.80847 3.47894 6.2025 3.94341 5.75693C5.02476 4.58469 7.2343 3.55269 10.1864 2.76161C10.8316 2.58541 11.5056 2.42719 12.2229 2.27977C16.1525 1.51153 20.1494 1.13809 24.1537 1.16506C24.7989 1.16506 25.4369 1.16506 26.0677 1.19382C27.0265 1.2154 27.9709 1.26574 28.89 1.32687C30.7175 1.45272 32.4512 1.65049 34.0624 1.90939C40.6514 2.98814 45.1246 5.05574 45.1246 7.45057C45.1251 7.57849 45.113 7.70615 45.0885 7.83173C45.0669 7.91443 45.0489 7.99713 45.02 8.07984C45.004 8.13132 44.9847 8.18176 44.9624 8.23086C44.6956 8.96082 44.0685 9.5757 43.1457 10.1654Z" fill="#0EAAFC"/>
<path d="M10.1936 2.80116C7.24155 3.59225 5.04282 4.62425 3.95066 5.79649L2.42236 4.71774C3.95787 3.61742 6.16741 2.65733 8.85996 1.89142L10.1936 2.80116Z" fill="#6AE8FF"/>
<path d="M30.1947 16.5121C28.2627 16.6811 26.2297 16.7746 24.1572 16.7746C22.4522 16.7746 20.787 16.7134 19.183 16.5948L14.1367 13.0277C16.9164 13.472 19.724 13.7208 22.5388 13.772C23.0722 13.772 23.6201 13.772 24.1572 13.772C24.6942 13.772 25.2385 13.772 25.7684 13.772H26.1757L30.1947 16.5121Z" fill="#6AE8FF"/>
<path d="M24.1645 9.59064e-06L26.0748 1.23338C25.4441 1.2154 24.8061 1.20461 24.1609 1.20461C20.1566 1.17765 16.1597 1.55108 12.2301 2.31932L10.8604 1.38081C15.2279 0.431933 19.6874 -0.0311593 24.1573 9.59064e-06H24.1645Z" fill="#6AE8FF"/>
<path d="M44.2988 13.0061C41.4909 14.4768 37.389 15.6167 32.5554 16.2423L28.7383 13.6354C33.9287 13.2758 38.3911 12.366 41.3539 11.1183L44.2988 13.0061Z" fill="#6AE8FF"/>
<path d="M31.3587 0.377574L34.0693 1.94895C32.4581 1.69005 30.7243 1.49228 28.8968 1.36643L26.7666 0.050354C28.349 0.104291 29.8881 0.215762 31.3587 0.377574Z" fill="#6AE8FF"/>
<path d="M47.8856 9.96042C47.4166 10.7483 46.7821 11.4255 46.0257 11.9453L43.1421 10.1654C44.0648 9.57567 44.692 8.94281 44.966 8.27039L47.8856 9.96042Z" fill="#6AE8FF"/>
<path d="M48.318 8.3783V15.5088C48.318 17.3067 46.6888 18.9716 43.9133 20.3344C42.034 21.2188 40.0657 21.901 38.0416 22.3697C35.1986 23.043 32.3056 23.4856 29.3909 23.6929C27.7076 23.8224 25.9594 23.8907 24.1644 23.8907C21.5276 23.8944 18.8929 23.7419 16.2742 23.434C6.80165 22.2977 0 19.1802 0 15.5232V8.3783C0 12.0496 6.80165 15.1672 16.2742 16.2891C18.8905 16.5967 21.5228 16.7492 24.1572 16.7458C25.9594 16.7458 27.7004 16.6775 29.3837 16.548C32.298 16.3371 35.1907 15.8946 38.0344 15.2248C40.058 14.7545 42.0262 14.0723 43.9061 13.1895C46.6888 11.8375 48.318 10.1726 48.318 8.3783Z" fill="#15CBF8"/>
<path d="M29.3839 16.5624V23.7037C27.7006 23.8331 25.9524 23.9015 24.1574 23.9015C21.5228 23.9013 18.8905 23.7452 16.2744 23.434V16.3035C18.8907 16.611 21.523 16.7635 24.1574 16.7601C25.9524 16.7601 27.7006 16.6918 29.3839 16.5624Z" fill="#0EAAFC"/>
<path d="M43.9132 13.2039V20.3344C42.0339 21.2187 40.0656 21.901 38.0415 22.3696V15.2391C40.0651 14.7688 42.0333 14.0866 43.9132 13.2039Z" fill="#68EAFF"/>
<path d="M45.1317 7.49372C45.1294 7.61436 45.1174 7.73461 45.0957 7.8533C45.0788 7.93636 45.0559 8.01808 45.0272 8.09782C44.0684 11.0176 36.4485 13.3477 26.7777 13.7145H26.7417L25.7721 13.7433C25.2386 13.7433 24.6907 13.7433 24.1573 13.7433C23.6238 13.7433 23.0759 13.7433 22.5461 13.7433C12.4175 13.5275 4.26775 11.1363 3.28733 8.1122C3.25905 8.03354 3.23617 7.95305 3.21885 7.87128C3.19434 7.75293 3.18106 7.63254 3.1792 7.5117C3.1792 4.03813 12.5761 1.2226 24.1573 1.2226C35.7384 1.2226 45.1317 4.02015 45.1317 7.49372Z" fill="#0E87FC"/>
<path d="M45.027 8.11577C44.0682 11.0356 36.4483 13.3657 26.7775 13.7325H26.7414L25.7718 13.7612C25.2384 13.7612 24.6905 13.7612 24.157 13.7612C23.6236 13.7612 23.0757 13.7612 22.5458 13.7612C12.4172 13.5275 4.26753 11.1363 3.28711 8.11217C4.33601 4.93705 13.2823 2.45593 24.157 2.45593C35.0317 2.45593 43.9853 4.94065 45.027 8.11577Z" fill="#07E8ED"/>
<path d="M24.1644 0.33084C25.0367 0.33084 25.909 0.34882 26.756 0.384778C28.2843 0.435119 29.8234 0.54659 31.3229 0.708402C41.1271 1.76917 47.9756 4.91912 47.9756 8.37111C47.9704 8.87056 47.835 9.36007 47.5827 9.79147C47.139 10.5355 46.5389 11.1746 45.8237 11.6649C45.3142 12.0345 44.7781 12.3662 44.2197 12.6573L44.144 12.6969C41.3686 14.1352 37.2487 15.2823 32.5376 15.8936H32.5124C31.6329 16.0015 30.894 16.0806 30.1875 16.1453H30.1695C28.205 16.3179 26.1829 16.4078 24.1608 16.4078C22.4955 16.4078 20.8303 16.3467 19.2119 16.2316C13.9025 15.8432 9.07247 14.8292 5.61938 13.3549C2.16629 11.8806 0.342425 10.1654 0.342425 8.37831C0.342425 7.22405 1.1282 6.0554 2.62045 4.99463C4.11271 3.93386 6.28981 2.97737 8.95352 2.21865C9.59512 2.03526 10.2619 1.85907 10.9396 1.71523C15.2806 0.767577 19.7136 0.303273 24.1572 0.33084M24.1572 -0.00716761C19.6874 -0.0383365 15.2279 0.424756 10.8603 1.37363C10.1682 1.53185 9.4978 1.70085 8.85981 1.88424C6.16726 2.65015 3.95772 3.61024 2.42221 4.71056C0.886701 5.81088 0 7.05864 0 8.37111C0 12.4056 8.22902 15.7785 19.183 16.5732C20.787 16.6919 22.4523 16.753 24.1572 16.753C26.2406 16.753 28.2627 16.6595 30.1947 16.4905C30.9985 16.4186 31.7807 16.3287 32.5484 16.2352C37.382 15.6095 41.4839 14.4696 44.2918 12.9989C44.893 12.684 45.4691 12.3234 46.0148 11.9202C46.7712 11.4004 47.4057 10.7232 47.8747 9.9353C48.1526 9.45371 48.3016 8.90882 48.3072 8.35314C48.3072 4.5919 41.1775 1.41678 31.3662 0.352415C29.8955 0.190603 28.3564 0.0791323 26.7741 0.0251949C25.9198 -0.0107634 25.0475 -0.0251465 24.1716 -0.0251465L24.1572 -0.00716761Z" fill="#68EAFF"/>
<path d="M24.1607 1.20462C24.8059 1.20462 25.4439 1.20462 26.0747 1.23339C27.0335 1.25496 27.9778 1.3053 28.897 1.36643C30.7245 1.49229 32.4582 1.69006 34.0694 1.94896C40.6584 3.02771 45.1315 5.09531 45.1315 7.49013C45.132 7.61805 45.12 7.74572 45.0955 7.87129C45.0739 7.95399 45.0559 8.0367 45.027 8.1194C45.011 8.17089 44.9917 8.22133 44.9693 8.27042C44.6954 8.94284 44.0682 9.57571 43.1455 10.1654C42.5719 10.5256 41.969 10.8371 41.3432 11.0967C38.3912 12.3589 33.9288 13.283 28.7276 13.6138C28.086 13.6606 27.4336 13.6929 26.7703 13.7181H26.7343H26.172H25.7647C25.2312 13.7181 24.6833 13.7181 24.1535 13.7181C23.6236 13.7181 23.0721 13.7181 22.5351 13.7181C19.7204 13.6668 16.9128 13.4181 14.133 12.9738C8.17845 12.0065 3.96842 10.1942 3.27996 8.07625C3.2526 7.99608 3.22974 7.91444 3.21148 7.83173C3.18581 7.70628 3.17253 7.57861 3.17183 7.45057C3.20273 6.80848 3.47871 6.20251 3.94319 5.75694C5.02453 4.5847 7.23408 3.5527 10.1861 2.76161C10.8313 2.58542 11.5054 2.4272 12.2227 2.27977C16.1523 1.51153 20.1492 1.1381 24.1535 1.16507M24.1535 0.823463C20.125 0.79623 16.1039 1.17208 12.1506 1.94536C11.4297 2.09279 10.752 2.2546 10.096 2.4308C7.02501 3.25424 4.81187 4.3258 3.69087 5.52321C3.16854 6.0327 2.86157 6.72236 2.83301 7.45057C2.83345 7.60022 2.84793 7.7495 2.87626 7.89646V7.91803V7.9468C2.89789 8.02231 2.91591 8.10142 2.94475 8.18412C3.66564 10.4099 7.72428 12.2798 14.0682 13.3082C16.8633 13.7562 19.6866 14.0074 22.5171 14.0597C23.119 14.0597 23.6525 14.0777 24.1427 14.0777C24.6329 14.0777 25.1627 14.0777 25.7611 14.0597H25.9665H26.1684H26.4495H26.7091H26.7812C27.484 14.0309 28.1184 13.9986 28.7312 13.9518C33.8748 13.5923 38.3912 12.7041 41.4478 11.3952C42.0911 11.1287 42.7108 10.8087 43.3005 10.4387C44.3025 9.79865 44.9585 9.11185 45.2541 8.39268C45.2829 8.32796 45.3046 8.26683 45.3226 8.21289C45.3406 8.15895 45.3766 8.0295 45.3983 7.93961V7.92163C45.4266 7.77467 45.4411 7.62539 45.4415 7.47575C45.4415 4.95866 41.1991 2.74364 34.091 1.59657C32.451 1.33407 30.6992 1.1363 28.8862 1.01045C27.8733 0.942124 26.9434 0.898975 26.0494 0.8774C25.3718 0.8774 24.741 0.848633 24.1283 0.848633L24.1535 0.823463Z" fill="#6AE8FF"/>
<path d="M79.5183 49.2341C79.0569 47.8282 78.527 46.3862 77.9251 44.9191C77.6043 44.1316 77.2619 43.3298 76.8978 42.5315C75.0854 38.4594 72.826 34.6002 70.161 31.0248C69.7321 30.4567 69.2996 29.9209 68.8706 29.4139C67.0684 27.2816 65.2662 25.6707 63.6405 24.7393C62.0149 23.808 60.4974 23.5024 59.3152 24.0453C55.6278 25.7066 55.9378 34.5739 59.7189 44.8616C60.2776 46.3682 60.9048 47.9073 61.6076 49.4571C62.4655 51.3521 63.3846 53.1536 64.3326 54.8508C64.7291 55.57 65.1292 56.228 65.5329 56.886C68.0921 61.0248 70.8243 64.2827 73.3222 66.2352C73.8508 66.6542 74.4112 67.0317 74.9983 67.3643C75.7838 67.8381 76.6631 68.1363 77.5755 68.2381C78.1318 68.2933 78.693 68.2041 79.2047 67.9792C82.6253 66.3826 82.5929 58.5833 79.5183 49.2341ZM75.4272 63.977C74.8631 63.6035 74.3303 63.185 73.834 62.7257C71.4695 60.5682 68.7877 56.8825 66.3331 52.2978C66.0231 51.7332 65.7239 51.1543 65.4284 50.561C65.4278 50.549 65.4278 50.537 65.4284 50.525C65.3455 50.3632 65.2662 50.1906 65.1833 50.0252C65.1004 49.8598 65.0643 49.7807 65.0066 49.6656C64.776 49.1874 64.5489 48.6983 64.3254 48.2057C64.1019 47.7131 63.8857 47.2205 63.6766 46.7314C62.5673 44.1497 61.6388 41.4944 60.8975 38.7846C59.3296 32.9738 59.2503 28.3999 60.8975 26.9004C60.9624 26.8393 61.0273 26.789 61.0922 26.7386C61.1964 26.6637 61.3074 26.5986 61.4238 26.5444C62.0222 26.3072 62.6889 26.3072 63.2873 26.5444C64.8084 27.055 66.6611 28.63 68.5967 30.9853C69.022 31.5007 69.4474 32.052 69.8727 32.6394C72.1951 35.8945 74.1828 39.3749 75.8057 43.0277C76.0724 43.6138 76.3247 44.2 76.5698 44.7753C76.9303 45.6599 77.2907 46.5372 77.6115 47.3967C78.2459 49.1119 78.783 50.7695 79.2083 52.3409C80.9492 58.7667 80.8916 63.693 78.7001 64.6818C78.5839 64.7336 78.4633 64.7745 78.3396 64.8041L78.0873 64.8436H77.9251C77.1826 64.8688 76.3463 64.5595 75.4272 63.977Z" fill="#0EAAFC"/>
<path d="M68.5858 30.9745C66.6502 28.6192 64.7975 27.0443 63.2764 26.5336L63.6368 24.6998C65.2696 25.6455 67.0575 27.2564 68.8669 29.3743L68.5858 30.9745Z" fill="#6AE8FF"/>
<path d="M64.3217 54.7969C63.3738 53.114 62.4546 51.3125 61.5968 49.4031C60.8939 47.8533 60.2667 46.3143 59.708 44.8076L60.8939 38.7559C61.6351 41.4657 62.5637 44.1209 63.6729 46.7026C63.882 47.1917 64.0983 47.6843 64.3217 48.1769C64.5452 48.6696 64.7723 49.1586 65.003 49.6368C65.0607 49.7591 65.1183 49.8814 65.1796 49.9964L64.3217 54.7969Z" fill="#6AE8FF"/>
<path d="M76.8978 42.5207L76.5589 44.7645C76.3138 44.1891 76.0615 43.603 75.7948 43.0169C74.172 39.3641 72.1843 35.8837 69.8618 32.6285L70.1574 30.9996C72.8223 34.575 75.0817 38.4342 76.8942 42.5063L76.8978 42.5207Z" fill="#6AE8FF"/>
<path d="M73.3078 66.1848C70.8099 64.2359 68.0777 60.9781 65.5186 56.8357L66.3368 52.2941C68.7914 56.868 71.4731 60.5645 73.8377 62.722L73.3078 66.1848Z" fill="#6AE8FF"/>
<path d="M79.5182 49.2341L79.1974 52.3445C78.772 50.7731 78.235 49.1082 77.6006 47.4002L77.925 44.9227C78.5269 46.3574 79.0568 47.8137 79.5182 49.2341Z" fill="#6AE8FF"/>
<path d="M77.5645 68.1877C76.6522 68.0859 75.7729 67.7878 74.9873 67.3139L75.4271 63.9626C76.3462 64.5595 77.1824 64.8687 77.9105 64.8436L77.5645 68.1877Z" fill="#6AE8FF"/>
<path d="M79.194 67.9324L72.6771 70.8702C71.0371 71.611 68.8456 70.8163 66.4558 68.853C64.8739 67.5034 63.4409 65.9894 62.1809 64.3366C60.3942 62.027 58.797 59.5775 57.405 57.0119C56.594 55.534 55.8118 53.9698 55.0729 52.3373C53.9834 49.9447 53.0385 47.4892 52.2434 44.9838C49.3598 35.9044 49.4283 28.443 52.7804 26.922L59.2937 23.9878C55.9416 25.498 55.8947 32.9774 58.7566 42.046C59.5534 44.5508 60.4982 47.0063 61.5862 49.3995C62.3251 51.032 63.1073 52.5926 63.9183 54.0741C65.3112 56.6404 66.9083 59.091 68.6942 61.4024C69.9565 63.0533 71.3906 64.566 72.9727 65.9152C75.3589 67.8749 77.5504 68.6696 79.194 67.9324Z" fill="#15CBF8"/>
<path d="M63.9181 54.0885L57.4048 57.0263C56.5938 55.5484 55.8116 53.9842 55.0727 52.3517C53.9832 49.9591 53.0383 47.5035 52.2432 44.9982L58.7565 42.0604C59.5532 44.5652 60.498 47.0206 61.586 49.4139C62.3249 51.05 63.1071 52.6106 63.9181 54.0885Z" fill="#0EAAFC"/>
<path d="M72.9725 65.9151L66.4592 68.8493C64.8762 67.5011 63.442 65.9883 62.1807 64.3365L68.694 61.4023C69.9562 63.0532 71.3904 64.566 72.9725 65.9151Z" fill="#68EAFF"/>
<path d="M78.6895 64.671C78.5728 64.7212 78.4522 64.7621 78.329 64.7933C78.2459 64.812 78.1616 64.8252 78.0767 64.8328C75.0165 65.1636 69.7504 59.1946 65.4358 50.5538C65.4269 50.5449 65.4207 50.5337 65.4178 50.5214C65.2772 50.2338 65.133 49.9425 64.9925 49.6512C64.7654 49.173 64.5383 48.684 64.3148 48.1913C64.0913 47.6987 63.8751 47.2061 63.666 46.717C59.7011 37.4002 58.5368 29.022 60.8906 26.886C60.9554 26.8249 61.0203 26.7746 61.0852 26.7242C61.1887 26.6491 61.2998 26.5852 61.4168 26.5336C64.5888 25.0953 71.0264 32.4847 75.7987 43.0133C80.571 53.5419 81.8614 63.2578 78.6895 64.671Z" fill="#0E87FC"/>
<path d="M78.0728 64.8328C75.0126 65.1636 69.7465 59.1945 65.4319 50.5538C65.423 50.5448 65.4168 50.5336 65.4139 50.5214C65.2733 50.2337 65.1291 49.9425 64.9886 49.6512C64.7615 49.173 64.5344 48.6839 64.3109 48.1913C64.0874 47.6987 63.8712 47.2061 63.6621 46.717C59.6972 37.4002 58.5329 29.0219 60.8867 26.886C64.2208 26.5264 70.1718 33.6426 74.6522 43.5311C79.1325 53.4196 80.5419 62.5746 78.0728 64.8328Z" fill="#07E8ED"/>
<path d="M76.5771 42.6609C76.9375 43.4556 77.28 44.2539 77.5972 45.0378C78.1811 46.4509 78.7109 47.8929 79.1795 49.324C82.2505 58.6731 82.1929 66.1992 79.0425 67.6196C78.5826 67.8204 78.0787 67.8996 77.5791 67.8497C76.7167 67.7501 75.8857 67.4668 75.1425 67.0191C74.5962 66.7075 74.0733 66.3565 73.5782 65.9691L73.5133 65.9187C71.0442 63.995 68.3084 60.7156 65.8141 56.6811C65.3527 55.9259 64.9743 55.2859 64.6246 54.6674C63.6586 52.9558 62.7467 51.1543 61.9105 49.3132C61.2256 47.803 60.5948 46.2639 60.0325 44.7393C58.2015 39.7555 57.149 34.9479 57.0516 31.2082C56.9615 27.5225 57.8158 25.0953 59.4486 24.351C60.5011 23.8763 61.8961 24.11 63.4784 25.0306C65.0608 25.9511 66.8342 27.5477 68.622 29.644C69.0509 30.151 69.4799 30.6904 69.898 31.2406C72.5415 34.7875 74.7817 38.6166 76.5771 42.6573M76.8871 42.5171C75.0746 38.445 72.8153 34.5858 70.1503 31.0104C69.7214 30.4423 69.2888 29.9065 68.8599 29.3995C67.0577 27.2672 65.2554 25.6562 63.6298 24.7249C62.0042 23.7936 60.4867 23.488 59.3044 24.0309C55.6171 25.6922 55.927 34.5595 59.7081 44.8472C60.2668 46.3538 60.894 47.8929 61.5969 49.4427C62.4547 51.3377 63.3739 53.1392 64.3219 54.8364C64.7184 55.5556 65.1185 56.2136 65.5222 56.8716C68.0813 61.0104 70.8135 64.2683 73.3114 66.2208C73.84 66.6398 74.4004 67.0173 74.9875 67.3499C75.7731 67.8237 76.6524 68.1219 77.5647 68.2237C78.1211 68.2789 78.6823 68.1897 79.1939 67.9648C82.6254 66.4186 82.593 58.6156 79.5183 49.2665C79.057 47.8605 78.5271 46.4186 77.9252 44.9515C77.6044 44.164 77.2619 43.3621 76.8979 42.5638L76.8871 42.5171Z" fill="#68EAFF"/>
<path d="M75.7952 43.0169C76.0619 43.6031 76.3142 44.1892 76.5593 44.7645C76.9198 45.6491 77.2802 46.5265 77.601 47.3859C78.2354 49.1011 78.7725 50.7588 79.1978 52.3301C80.9388 58.7559 80.8811 63.6822 78.6896 64.671C78.5735 64.7228 78.4528 64.7637 78.3291 64.7933L78.0768 64.8328H77.9146C77.1937 64.858 76.3503 64.5488 75.4311 63.9518C74.8671 63.5783 74.3343 63.1598 73.8379 62.7005C71.4734 60.543 68.7917 56.8573 66.337 52.2726C66.027 51.708 65.7279 51.1291 65.4323 50.5358C65.4323 50.5358 65.4323 50.5358 65.4323 50.5142C65.4323 50.4927 65.4323 50.5142 65.4323 50.5142C65.3494 50.3524 65.2701 50.1798 65.1872 50.0144C65.1043 49.849 65.0682 49.7699 65.0106 49.6548C64.7799 49.1766 64.5528 48.6876 64.3293 48.1949C64.1059 47.7023 63.8896 47.2097 63.6805 46.7206C62.5713 44.1389 61.6427 41.4836 60.9015 38.7739C59.3335 32.963 59.2542 28.3891 60.9015 26.8896C60.9664 26.8285 61.0312 26.7782 61.0961 26.7278C61.2003 26.6529 61.3113 26.5879 61.4277 26.5337C62.0261 26.2964 62.6928 26.2964 63.2912 26.5337C64.8123 27.0443 66.665 28.6192 68.6006 30.9745C69.026 31.4899 69.4513 32.0413 69.8766 32.6286C72.1991 35.8838 74.1868 39.3641 75.8096 43.0169M76.1196 42.8767C74.4872 39.2029 72.4887 35.7021 70.1542 32.4272C69.7288 31.8447 69.2963 31.2801 68.8638 30.7587C66.8453 28.3064 64.9457 26.7314 63.3886 26.2208C62.7095 25.9493 61.9518 25.9493 61.2727 26.2208C61.1362 26.2828 61.0059 26.3574 60.8835 26.4438H60.8618C60.8005 26.4941 60.7357 26.5444 60.6744 26.602C58.937 28.1769 58.901 32.6358 60.5735 38.8278C61.316 41.553 62.2495 44.2229 63.3669 46.8177C63.6012 47.3679 63.8175 47.8533 64.0193 48.2992C64.2212 48.7451 64.4447 49.2233 64.7006 49.7663L64.7907 49.9497L64.8772 50.1331C64.9205 50.2194 64.9601 50.3021 65.0034 50.3848C65.0466 50.4675 65.0755 50.5394 65.1151 50.6149V50.6401L65.1367 50.6796C65.4503 51.3089 65.7423 51.8735 66.0342 52.4128C68.4601 56.9472 71.1526 60.6832 73.6036 62.9234C74.1142 63.3949 74.6614 63.8254 75.2401 64.2107C76.2385 64.858 77.1396 65.1708 77.9146 65.1457C77.9794 65.1498 78.0444 65.1498 78.1092 65.1457C78.203 65.1457 78.2967 65.1205 78.3868 65.1025H78.4084C78.5536 65.0692 78.6949 65.021 78.8301 64.9587C81.1478 63.9159 81.4073 59.1514 79.5258 52.2187C79.0933 50.6185 78.5526 48.9465 77.9182 47.2456C77.5578 46.2963 77.2225 45.4477 76.8729 44.6135C76.6098 43.9878 76.3611 43.4125 76.1052 42.8551L76.1196 42.8767Z" fill="#6AE8FF"/>
<path d="M8.02713 31.5246C8.02713 31.105 7.94422 30.6895 7.78314 30.3018C7.62207 29.9142 7.38598 29.562 7.08837 29.2655C6.79077 28.9689 6.4375 28.7338 6.04874 28.5736C5.65999 28.4133 5.24339 28.3311 4.82275 28.3315C5.67136 28.3315 6.48532 27.9957 7.08605 27.3978C7.68678 26.7998 8.02522 25.9886 8.02713 25.142C8.02713 25.9898 8.36474 26.8029 8.96567 27.4024C9.56661 28.0019 10.3817 28.3387 11.2315 28.3387C10.3832 28.3378 9.56927 28.6728 8.96844 29.2701C8.36761 29.8675 8.02904 30.6784 8.02713 31.5246Z" fill="white"/>
<path d="M39.8333 25.027C39.8333 24.1792 39.4957 23.3661 38.8947 22.7666C38.2938 22.1671 37.4788 21.8303 36.6289 21.8303C37.0497 21.8303 37.4664 21.7476 37.8552 21.587C38.2439 21.4263 38.5972 21.1908 38.8947 20.894C39.1923 20.5972 39.4283 20.2448 39.5894 19.8569C39.7504 19.4691 39.8333 19.0534 39.8333 18.6336C39.8333 19.0549 39.9168 19.4721 40.0789 19.8611C40.2411 20.2501 40.4787 20.6033 40.7782 20.9004C41.0777 21.1975 41.433 21.4326 41.8239 21.5921C42.2147 21.7517 42.6334 21.8327 43.0557 21.8303C42.6334 21.8279 42.2147 21.9089 41.8239 22.0685C41.433 22.228 41.0777 22.4631 40.7782 22.7602C40.4787 23.0573 40.2411 23.4105 40.0789 23.7995C39.9168 24.1885 39.8333 24.6057 39.8333 25.027Z" fill="white"/>
<path d="M19.6263 59.5721C19.6263 59.1525 19.5433 58.737 19.3823 58.3493C19.2212 57.9617 18.9851 57.6095 18.6875 57.313C18.3899 57.0164 18.0366 56.7813 17.6479 56.621C17.2591 56.4608 16.8425 56.3785 16.4219 56.379C17.2705 56.379 18.0844 56.0432 18.6852 55.4453C19.2859 54.8473 19.6243 54.0361 19.6263 53.1895C19.6263 54.0373 19.9639 54.8504 20.5648 55.4499C21.1657 56.0494 21.9808 56.3862 22.8306 56.3862C21.9824 56.3853 21.1684 56.7203 20.5676 57.3176C19.9667 57.915 19.6282 58.7259 19.6263 59.5721Z" fill="white"/>
<path d="M39.8333 61.859C39.8333 61.0112 39.4957 60.1981 38.8947 59.5986C38.2938 58.9991 37.4788 58.6623 36.6289 58.6623C37.4788 58.6623 38.2938 58.3255 38.8947 57.726C39.4957 57.1265 39.8333 56.3135 39.8333 55.4656C39.8333 56.3135 40.1709 57.1265 40.7718 57.726C41.3728 58.3255 42.1878 58.6623 43.0377 58.6623C42.1878 58.6623 41.3728 58.9991 40.7718 59.5986C40.1709 60.1981 39.8333 61.0112 39.8333 61.859Z" fill="white"/>
<path d="M5.01027 26.7853C5.01027 26.3009 4.81736 25.8362 4.47396 25.4937C4.13057 25.1511 3.66483 24.9586 3.1792 24.9586C3.41949 24.9591 3.65751 24.9123 3.87965 24.8209C4.10178 24.7295 4.30367 24.5953 4.47375 24.4259C4.64382 24.2566 4.77876 24.0555 4.87082 23.8341C4.96289 23.6126 5.01027 23.3753 5.01027 23.1356C5.01027 23.6191 5.20281 24.0828 5.54553 24.4247C5.88824 24.7666 6.35307 24.9586 6.83774 24.9586C6.35274 24.9596 5.88792 25.1525 5.54531 25.4949C5.20269 25.8374 5.01027 26.3015 5.01027 26.7853Z" fill="white"/>
<path d="M18.9847 17.5549C18.9847 17.071 18.7923 16.6069 18.4497 16.2645C18.107 15.922 17.6422 15.7291 17.1572 15.7282C17.6419 15.7282 18.1067 15.5361 18.4494 15.1942C18.7922 14.8523 18.9847 14.3886 18.9847 13.9051C18.9847 14.1448 19.0321 14.3822 19.1241 14.6036C19.2162 14.825 19.3511 15.0261 19.5212 15.1955C19.6913 15.3648 19.8932 15.499 20.1153 15.5904C20.3375 15.6818 20.5755 15.7286 20.8158 15.7282C20.3301 15.7282 19.8644 15.9206 19.521 16.2632C19.1776 16.6058 18.9847 17.0704 18.9847 17.5549Z" fill="white"/>
<path d="M62.9884 32.7185L63.9508 32.2402L68.0779 40.4999L67.3714 35.2176L68.3302 34.7393L70.2875 43.6965L73.3765 43.5168L71.6572 46.0554L77.3739 52.8264L76.4151 53.3046L73.0485 49.9641L76.7323 57.8066L75.7735 58.2848L71.7365 50.748L72.36 55.3219L71.3976 55.8001L69.1232 47.5117L65.8359 47.2672L67.6237 44.5092L62.354 37.7131L63.3128 37.2348L66.8668 40.8379L62.9884 32.7185Z" fill="#0E87FC"/>
<path d="M71.7434 48.8745L76.732 57.8066L72.5796 48.4574L77.3736 52.8264L72.1002 46.0302L73.888 43.2614L70.6008 43.0277L68.3299 34.7393L68.9427 41.1867L63.9505 32.2402L68.1065 41.6038L63.3125 37.2348L68.5822 44.031L66.7944 46.789L70.0853 47.0371L72.3597 55.3219L71.7434 48.8745Z" fill="#6AE8FF"/>
<path d="M63.6009 44.3905C63.6009 43.9707 63.518 43.555 63.3569 43.1672C63.1959 42.7794 62.9599 42.427 62.6623 42.1301C62.3648 41.8333 62.0115 41.5978 61.6227 41.4372C61.234 41.2765 60.8173 41.1938 60.3965 41.1938C61.2463 41.1938 62.0614 40.857 62.6623 40.2575C63.2633 39.658 63.6009 38.8449 63.6009 37.9971C63.6009 38.8449 63.9385 39.658 64.5394 40.2575C65.1403 40.857 65.9554 41.1938 66.8052 41.1938C65.9554 41.1938 65.1403 41.5306 64.5394 42.1301C63.9385 42.7296 63.6009 43.5427 63.6009 44.3905Z" fill="white"/>
<path d="M60.8941 46.8536C60.8931 46.3698 60.6998 45.9061 60.3565 45.5643C60.0132 45.2225 59.548 45.0305 59.063 45.0305C59.548 45.0305 60.0132 44.8386 60.3565 44.4968C60.6998 44.155 60.8931 43.6913 60.8941 43.2075C60.8941 43.691 61.0866 44.1547 61.4293 44.4966C61.772 44.8385 62.2369 45.0305 62.7215 45.0305C62.2369 45.0305 61.772 45.2226 61.4293 45.5645C61.0866 45.9064 60.8941 46.3701 60.8941 46.8536Z" fill="white"/>
<path d="M9.84033 8.02592V6.95795H19.093L14.0359 5.23196V4.1604L22.9462 6.41498L24.1609 3.57428L25.6748 6.24239L34.3003 4.1604V5.23196L29.7983 6.7458L38.4815 6.95795V8.02592L29.9173 8.26684L34.3003 9.75191V10.8235L25.8514 9.15501L24.1609 11.9813L22.4848 9.15501L14.0359 10.8235V9.75191L18.8551 8.18773L9.84033 8.02592Z" fill="#0E87FC"/>
<path d="M28.2412 7.42537L38.4815 6.95791L28.2412 6.49046L34.3003 4.16036L25.8514 5.83602L24.1609 3.0025L22.4848 5.83602L14.0359 4.16036L20.0951 6.49046L9.84033 6.95791L20.0951 7.42537L14.0359 9.75187L22.4848 8.08341L24.1609 10.9097L25.8514 8.08341L34.3003 9.75187L28.2412 7.42537Z" fill="#6AE8FF"/>
</g>
<defs>
<clipPath id="clip0_459_10455">
<rect width="84.0816" height="80" fill="white"/>
</clipPath>
</defs>
</svg>
