<svg width="41" height="40" viewBox="0 0 41 40" fill="none" xmlns="http://www.w3.org/2000/svg">
<g clip-path="url(#clip0_608_11746)">
<mask id="mask0_608_11746" style="mask-type:alpha" maskUnits="userSpaceOnUse" x="0" y="0" width="41" height="40">
<path d="M0.5 0.00012207H40.5V40.0001H0.5V0.00012207Z" fill="white"/>
</mask>
<g mask="url(#mask0_608_11746)">
<path fill-rule="evenodd" clipRule="evenodd" d="M20.5 0.00012207C31.5459 0.00012207 40.5 8.95421 40.5 20.0001C40.5 31.0451 31.5459 40.0001 20.5 40.0001C9.45409 40.0001 0.5 31.0451 0.5 20.0001C0.5 8.95421 9.45409 0.00012207 20.5 0.00012207Z" fill="#2775CA"/>
</g>
<path fill-rule="evenodd" clipRule="evenodd" d="M16.7509 33.9054C16.7509 34.3759 16.3825 34.6432 15.9275 34.5011C9.88041 32.572 5.49609 26.9018 5.49609 20.2114C5.49609 13.5211 9.88041 7.85067 15.9275 5.92158C16.3825 5.78045 16.7509 6.04681 16.7509 6.51726V7.67863C16.7509 7.99181 16.5081 8.36045 16.2097 8.46249C11.4254 10.2193 7.99814 14.8154 7.99814 20.2034C7.99814 25.5914 11.4254 30.1884 16.2097 31.9443C16.5081 32.0543 16.7509 32.4148 16.7509 32.7291V33.9054Z" fill="white"/>
<path fill-rule="evenodd" clipRule="evenodd" d="M21.7473 29.5837C21.7473 29.9292 21.465 30.2115 21.12 30.2115H19.8727C19.5277 30.2115 19.2455 29.9292 19.2455 29.5837V27.6076C16.5159 27.2392 15.183 25.7094 14.8221 23.6312C14.7591 23.2778 15.0414 22.9565 15.4023 22.9565H16.8298C17.1277 22.9565 17.3789 23.1685 17.4416 23.466C17.7084 24.7053 18.4221 25.6544 20.61 25.6544C22.2257 25.6544 23.3711 24.7524 23.3711 23.404C23.3711 22.0544 22.6964 21.5449 20.3277 21.1524C16.8298 20.6819 15.175 19.6228 15.175 16.8778C15.175 14.7603 16.7752 13.1135 19.2534 12.7603V10.823C19.2534 10.4778 19.5359 10.1953 19.8807 10.1953H21.128C21.473 10.1953 21.7552 10.4778 21.7552 10.823V12.8153C23.7709 13.1767 25.0493 14.321 25.4652 16.2189C25.5434 16.5803 25.2611 16.9169 24.8927 16.9169H23.5748C23.2925 16.9169 23.0573 16.7285 22.9711 16.4542C22.6182 15.2469 21.7552 14.7294 20.2571 14.7294C18.6023 14.7294 17.7473 15.5292 17.7473 16.6505C17.7473 17.8349 18.2339 18.4305 20.7752 18.7999C24.21 19.2703 25.983 20.2505 25.983 23.1767C25.983 25.396 24.3357 27.1921 21.7552 27.6076V29.5837H21.7473Z" fill="white"/>
<path fill-rule="evenodd" clipRule="evenodd" d="M25.0727 34.5012C24.6181 34.6432 24.2493 34.376 24.2493 33.9055V32.7451C24.2493 32.3998 24.4611 32.0785 24.7904 31.9603C29.5747 30.2035 33.002 25.6073 33.002 20.2194C33.002 14.8314 29.5747 10.2353 24.7904 8.47847C24.4924 8.36847 24.2493 8.00802 24.2493 7.6937V6.53325C24.2493 6.06279 24.6181 5.78847 25.0727 5.93666C31.1197 7.86688 35.504 13.5371 35.504 20.2273C35.4965 26.9017 31.1197 32.5642 25.0727 34.5012Z" fill="white"/>
</g>
<defs>
<clipPath id="clip0_608_11746">
<rect width="40" height="40" fill="white" transform="translate(0.5)"/>
</clipPath>
</defs>
</svg>
