<svg width="80" height="80" viewBox="0 0 80 80" fill="none" xmlns="http://www.w3.org/2000/svg">
<g clip-path="url(#clip0_608_11990)">
<path d="M55.6697 49.1628C55.2806 51.2635 49.2226 64.1609 49.2226 64.1609C49.2226 64.1609 45.7996 72.9066 39.5471 77.0222C33.2945 81.1377 26.0263 80.7849 20.153 77.3519C14.2797 73.919 12.1032 68.2403 12.3209 61.437C12.5385 54.6338 20.8719 39.5499 24.5225 33.2941C26.2176 30.4019 29.0009 28.5519 31.8204 27.4043L31.9326 27.3614L32.2162 27.2493C32.5262 27.1273 32.8361 27.0184 33.1428 26.9195L33.6243 26.7645C34.0068 26.6425 34.3861 26.5337 34.7587 26.4347C34.9434 26.3853 35.1248 26.3424 35.3062 26.2995L35.5733 26.2369L35.9492 26.1544L36.1372 26.1182L36.5692 26.0357L37.0243 25.9566L37.3541 25.9038H37.4497L37.7795 25.8543L37.918 25.8379L38.2642 25.7983L38.4819 25.7752L38.8117 25.7455H39.0128H39.0986H39.3228C39.6262 25.7257 39.8999 25.7191 40.144 25.7191H40.4078C40.4638 25.7159 40.5199 25.7159 40.576 25.7191C40.6749 25.7191 40.7738 25.7191 40.8728 25.7422H40.909C41.0047 25.7422 41.1036 25.762 41.1992 25.7752C41.2949 25.7884 41.374 25.7983 41.463 25.8148L41.7565 25.8675C41.9214 25.8972 42.0863 25.9368 42.2512 25.9764L42.4524 26.0291L42.6206 26.0753C42.6898 26.0753 42.7624 26.1116 42.8316 26.1347H42.8613L43.046 26.1907L43.2273 26.2501L43.3922 26.3061L43.6462 26.3952L43.7154 26.4216L44.1705 26.5996C45.0808 26.9685 45.9569 27.4165 46.7889 27.9385L49.7569 29.7226C46.1294 37.967 42.7723 38.9794 42.7723 38.9794C42.0454 38.5012 41.2489 38.1386 40.4111 37.9043L40.2363 37.8614C40.1176 37.8318 39.9988 37.8054 39.8801 37.7856C39.7585 37.7492 39.6352 37.7184 39.5108 37.6932C39.4119 37.6932 39.3063 37.6735 39.2041 37.6669C38.5309 37.6301 37.8597 37.7675 37.2551 38.0659C34.762 39.3355 32.6614 43.3423 32.6614 43.3423L32.48 43.7248C32.4602 43.771 32.4371 43.8205 32.4107 43.8732L31.9556 44.8625L31.7413 45.3209C31.6951 45.4232 31.6457 45.5254 31.5962 45.6309L31.3818 46.0959L31.306 46.2542C29.3273 50.4951 25.835 58.0634 25.1425 59.9003C24.1532 62.489 24.262 66.3012 29.3933 67.7654C34.5246 69.2296 37.5025 62.0504 37.5025 62.0504L42.4293 51.2206C44.4475 51.0741 46.4254 50.5811 48.2762 49.763C52.029 48.2098 55.2015 44.4174 56.2106 43.1675C56.6591 44.3514 56.0358 47.1248 55.6697 49.1628Z" fill="url(#paint0_radial_608_11990)"/>
<g style="mix-blend-mode:multiply" opacity="0.21">
<path d="M56.1907 43.1609C56.2764 44.4437 56.4842 43.3588 56.2302 45.7265C56.2302 45.7265 52.7313 50.1059 48.8169 51.247C46.5323 51.9299 44.1825 52.372 41.8059 52.5661L42.4094 51.247L56.1907 43.1609Z" fill="#231F20"/>
</g>
<path d="M66.1598 23.0743L56.5106 42.7388C56.5106 42.7388 56.3985 42.8937 56.1808 43.1609C55.1915 44.4272 51.9993 48.2196 48.2464 49.7564C46.3957 50.5744 44.4178 51.0675 42.3995 51.214C39.0227 51.3953 35.2434 50.284 31.2729 46.2673C32.0809 44.5327 32.6316 43.3587 32.6316 43.3587C32.6316 43.3587 34.7323 39.352 37.2254 38.0823C38.2335 37.6207 39.3775 37.5514 40.4341 37.8878C40.4341 37.8878 40.2098 40.1962 42.7953 38.9628C42.7953 38.9628 46.1656 37.9372 49.7799 29.7061C49.7799 29.7061 52.5632 23.9119 54.9607 18.5894C57.6582 12.5908 56.3391 11.7993 56.3391 11.7993C53.3283 10.3582 49.3248 16.4161 48.5498 17.5572C47.9266 18.4772 45.2224 24.3175 44.1836 26.5831L43.7285 26.405C43.5702 26.3457 43.3988 26.2863 43.2405 26.2335L42.8744 26.1181H42.8447C42.7755 26.095 42.7029 26.0752 42.6337 26.0588C42.2536 25.9483 41.867 25.8613 41.4762 25.7982C41.3871 25.7817 41.3014 25.7686 41.2124 25.7587C41.0057 25.7279 40.7979 25.7081 40.5891 25.6993C40.5331 25.696 40.4769 25.696 40.4209 25.6993H40.1571C39.8273 25.6993 39.4514 25.6993 39.0259 25.7455H38.8248L38.495 25.7751L38.2774 25.7982C37.7497 25.8543 37.1759 25.9367 36.5658 26.0489L36.1338 26.1313L35.9459 26.1676L35.5699 26.25C34.94 26.3885 34.2871 26.56 33.6209 26.7711L33.1395 26.9261C32.7009 27.0712 32.259 27.2328 31.8204 27.4141C31.8204 27.4141 36.8297 15.717 38.7885 12.3467C40.7474 8.97643 45.9842 -1.40157 57.4142 0.161559C68.8442 1.72469 70.5095 13.2536 66.1598 23.0743Z" fill="url(#paint1_radial_608_11990)"/>
<g style="mix-blend-mode:multiply" opacity="0.21">
<path d="M40.7606 39.0123C40.7606 39.0123 37.199 36.9842 32.5525 47.471L31.2861 46.2674V46.2377L31.3521 46.1025L31.5664 45.6375C31.6159 45.532 31.6654 45.4297 31.7115 45.3275L31.9259 44.8691L32.381 43.8798C32.4074 43.827 32.4305 43.7776 32.4502 43.7314L32.6316 43.3488C32.6316 43.3488 34.7323 39.3421 37.2254 38.0725C37.8299 37.7741 38.5012 37.6367 39.1743 37.6734C39.2766 37.6734 39.3821 37.6734 39.481 37.6998C39.6227 37.7124 39.7635 37.7322 39.9031 37.7592C40.0219 37.779 40.1406 37.8053 40.2593 37.835L40.4341 37.8779C40.3936 38.2839 40.5104 38.6899 40.7606 39.0123Z" fill="#231F20"/>
</g>
</g>
<defs>
<radialGradient id="paint0_radial_608_11990" cx="0" cy="0" r="1" gradientUnits="userSpaceOnUse" gradientTransform="translate(38.3954 49.4752) rotate(-63.178) scale(33.1218 18.862)">
<stop offset="0.13" stop-color="#0EAAFC"/>
<stop offset="0.36" stop-color="#0BC8F5"/>
<stop offset="0.58" stop-color="#08E0EF"/>
<stop offset="0.71" stop-color="#07E8ED"/>
<stop offset="0.85" stop-color="#0CDDF1"/>
<stop offset="1" stop-color="#15CBF8"/>
</radialGradient>
<radialGradient id="paint1_radial_608_11990" cx="0" cy="0" r="1" gradientUnits="userSpaceOnUse" gradientTransform="translate(47.0108 26.2676) rotate(-63.05) scale(28.974 15.0665)">
<stop stop-color="#0EAAFC"/>
<stop offset="0.27" stop-color="#0BC8F5"/>
<stop offset="0.54" stop-color="#08E0EF"/>
<stop offset="0.71" stop-color="#07E8ED"/>
<stop offset="0.85" stop-color="#0CDDF1"/>
<stop offset="1" stop-color="#15CBF8"/>
</radialGradient>
<clipPath id="clip0_608_11990">
<rect width="56.0617" height="80" fill="white" transform="translate(12.3076)"/>
</clipPath>
</defs>
</svg>
