<svg width="188" height="153" viewBox="0 0 188 153" fill="none" xmlns="http://www.w3.org/2000/svg">
<path d="M0 43.5H84C86.2091 43.5 88 41.7091 88 39.5V13C88 10.7909 89.7909 9 92 9H188" stroke="#0896FD" stroke-opacity="0.5" strokeWidth="2"/>
<path d="M0 43.5H84C86.2091 43.5 88 41.7091 88 39.5V13C88 10.7909 89.7909 9 92 9H188" stroke="url(#paint0_linear_608_11823)" strokeWidth="2"/>
<rect x="39" y="42.5" width="40" height="2" fill="url(#paint1_linear_608_11823)"/>
<rect x="92" y="8" width="40" height="2" fill="url(#paint2_linear_608_11823)"/>
<rect x="143" y="8" width="40" height="2" fill="url(#paint3_linear_608_11823)"/>
<path d="M0 51.5H92C94.2091 51.5 96 49.7091 96 47.5V21C96 18.7909 97.7909 17 100 17H188" stroke="url(#paint4_linear_608_11823)" strokeWidth="2"/>
<rect x="-17" y="50.5" width="40" height="2" fill="url(#paint5_linear_608_11823)"/>
<rect x="72" y="50.5" width="20" height="2" fill="url(#paint6_linear_608_11823)"/>
<rect x="142" y="16" width="20" height="2" fill="url(#paint7_linear_608_11823)"/>
<rect x="168" y="16" width="20" height="2" fill="url(#paint8_linear_608_11823)"/>
<path d="M0 117.5H76C78.2091 117.5 80 119.291 80 121.5V148C80 150.209 81.7909 152 84 152H188" stroke="url(#paint9_linear_608_11823)" strokeWidth="2"/>
<rect x="90" y="151" width="40" height="2" fill="url(#paint10_linear_608_11823)"/>
<rect x="148" y="151" width="40" height="2" fill="url(#paint11_linear_608_11823)"/>
<rect y="116.5" width="40" height="2" fill="url(#paint12_linear_608_11823)"/>
<rect x="79" y="144" width="20" height="2" transform="rotate(-90 79 144)" fill="url(#paint13_linear_608_11823)"/>
<path d="M0 109.5H84C86.2091 109.5 88 111.291 88 113.5V140C88 142.209 89.7909 144 92 144H188" stroke="url(#paint14_linear_608_11823)" strokeWidth="2"/>
<rect x="110" y="143" width="68" height="2" fill="url(#paint15_linear_608_11823)"/>
<rect x="11" y="108.5" width="68" height="2" fill="url(#paint16_linear_608_11823)"/>
<path d="M0 101.5H92C94.2091 101.5 96 103.291 96 105.5V132C96 134.209 97.7909 136 100 136H188" stroke="#5274F2" stroke-opacity="0.5" strokeWidth="2"/>
<path d="M0 101.5H92C94.2091 101.5 96 103.291 96 105.5V132C96 134.209 97.7909 136 100 136H188" stroke="url(#paint17_linear_608_11823)" strokeWidth="2"/>
<rect x="37" y="100.5" width="20" height="2" fill="url(#paint18_linear_608_11823)"/>
<rect x="66" y="100.5" width="20" height="2" fill="url(#paint19_linear_608_11823)"/>
<rect x="115" y="135" width="20" height="2" fill="url(#paint20_linear_608_11823)"/>
<rect x="143" y="135" width="20" height="2" fill="url(#paint21_linear_608_11823)"/>
<rect x="168" y="135" width="20" height="2" fill="url(#paint22_linear_608_11823)"/>
<path d="M0 35.5H76C78.2091 35.5 80 33.7091 80 31.5V5C80 2.79086 81.7909 1 84 1H188" stroke="#03DDAD" stroke-opacity="0.5" strokeWidth="2"/>
<path d="M0 35.5H76C78.2091 35.5 80 33.7091 80 31.5V5C80 2.79086 81.7909 1 84 1H188" stroke="url(#paint23_linear_608_11823)" strokeWidth="2"/>
<rect x="13" y="34.5" width="40" height="2" fill="url(#paint24_linear_608_11823)"/>
<rect x="79" y="31" width="20" height="2" transform="rotate(-90 79 31)" fill="url(#paint25_linear_608_11823)"/>
<rect x="119" width="40" height="2" fill="url(#paint26_linear_608_11823)"/>
<defs>
<linearGradient id="paint0_linear_608_11823" x1="-14.4257" y1="10.1979" x2="66.9362" y2="114.173" gradientUnits="userSpaceOnUse">
<stop stop-color="#03DDAD" stop-opacity="0.4"/>
<stop offset="0.484375" stop-color="#5274F2" stop-opacity="0.4"/>
<stop offset="1" stop-color="#0896FD" stop-opacity="0.4"/>
</linearGradient>
<linearGradient id="paint1_linear_608_11823" x1="79" y1="43.5" x2="39" y2="43.5" gradientUnits="userSpaceOnUse">
<stop stop-color="#0BFADD" stop-opacity="0.05"/>
<stop offset="0.15625" stop-color="#0BFADD" stop-opacity="0.8"/>
<stop offset="0.338542" stop-color="#0BFADD"/>
<stop offset="0.536458" stop-color="#0BFADD" stop-opacity="0.8"/>
<stop offset="1" stop-color="#0BFADD" stop-opacity="0.05"/>
</linearGradient>
<linearGradient id="paint2_linear_608_11823" x1="132" y1="9" x2="92" y2="9" gradientUnits="userSpaceOnUse">
<stop stop-color="#0BFADD" stop-opacity="0.05"/>
<stop offset="0.15625" stop-color="#0BFADD" stop-opacity="0.8"/>
<stop offset="0.338542" stop-color="#0BFADD"/>
<stop offset="0.536458" stop-color="#0BFADD" stop-opacity="0.8"/>
<stop offset="1" stop-color="#0BFADD" stop-opacity="0.05"/>
</linearGradient>
<linearGradient id="paint3_linear_608_11823" x1="183" y1="9" x2="143" y2="9" gradientUnits="userSpaceOnUse">
<stop stop-color="#0BFADD" stop-opacity="0.05"/>
<stop offset="0.15625" stop-color="#0BFADD" stop-opacity="0.8"/>
<stop offset="0.338542" stop-color="#0BFADD"/>
<stop offset="0.536458" stop-color="#0BFADD" stop-opacity="0.8"/>
<stop offset="1" stop-color="#0BFADD" stop-opacity="0.05"/>
</linearGradient>
<linearGradient id="paint4_linear_608_11823" x1="-14.4257" y1="18.1979" x2="66.9362" y2="122.173" gradientUnits="userSpaceOnUse">
<stop stop-color="#03DDAD" stop-opacity="0.4"/>
<stop offset="0.484375" stop-color="#5274F2" stop-opacity="0.4"/>
<stop offset="1" stop-color="#0896FD" stop-opacity="0.4"/>
</linearGradient>
<linearGradient id="paint5_linear_608_11823" x1="23" y1="51.5" x2="-17" y2="51.5" gradientUnits="userSpaceOnUse">
<stop stop-color="#0BFADD" stop-opacity="0.05"/>
<stop offset="0.15625" stop-color="#0BFADD" stop-opacity="0.8"/>
<stop offset="0.338542" stop-color="#0BFADD"/>
<stop offset="0.536458" stop-color="#0BFADD" stop-opacity="0.8"/>
<stop offset="1" stop-color="#0BFADD" stop-opacity="0.05"/>
</linearGradient>
<linearGradient id="paint6_linear_608_11823" x1="92" y1="51.5" x2="72" y2="51.5" gradientUnits="userSpaceOnUse">
<stop stop-color="#0BFADD" stop-opacity="0.05"/>
<stop offset="0.15625" stop-color="#0BFADD" stop-opacity="0.8"/>
<stop offset="0.338542" stop-color="#0BFADD"/>
<stop offset="0.536458" stop-color="#0BFADD" stop-opacity="0.8"/>
<stop offset="1" stop-color="#0BFADD" stop-opacity="0.05"/>
</linearGradient>
<linearGradient id="paint7_linear_608_11823" x1="162" y1="17" x2="142" y2="17" gradientUnits="userSpaceOnUse">
<stop stop-color="#0BFADD" stop-opacity="0.05"/>
<stop offset="0.15625" stop-color="#0BFADD" stop-opacity="0.8"/>
<stop offset="0.338542" stop-color="#0BFADD"/>
<stop offset="0.536458" stop-color="#0BFADD" stop-opacity="0.8"/>
<stop offset="1" stop-color="#0BFADD" stop-opacity="0.05"/>
</linearGradient>
<linearGradient id="paint8_linear_608_11823" x1="188" y1="17" x2="168" y2="17" gradientUnits="userSpaceOnUse">
<stop stop-color="#0BFADD" stop-opacity="0.05"/>
<stop offset="0.15625" stop-color="#0BFADD" stop-opacity="0.8"/>
<stop offset="0.338542" stop-color="#0BFADD"/>
<stop offset="0.536458" stop-color="#0BFADD" stop-opacity="0.8"/>
<stop offset="1" stop-color="#0BFADD" stop-opacity="0.05"/>
</linearGradient>
<linearGradient id="paint9_linear_608_11823" x1="-15.5025" y1="150.802" x2="65.7546" y2="46.409" gradientUnits="userSpaceOnUse">
<stop stop-color="#03DDAD" stop-opacity="0.4"/>
<stop offset="0.484375" stop-color="#5274F2" stop-opacity="0.4"/>
<stop offset="1" stop-color="#0896FD" stop-opacity="0.4"/>
</linearGradient>
<linearGradient id="paint10_linear_608_11823" x1="130" y1="152" x2="90" y2="152" gradientUnits="userSpaceOnUse">
<stop stop-color="#0BFADD" stop-opacity="0.05"/>
<stop offset="0.15625" stop-color="#0BFADD" stop-opacity="0.8"/>
<stop offset="0.338542" stop-color="#0BFADD"/>
<stop offset="0.536458" stop-color="#0BFADD" stop-opacity="0.8"/>
<stop offset="1" stop-color="#0BFADD" stop-opacity="0.05"/>
</linearGradient>
<linearGradient id="paint11_linear_608_11823" x1="188" y1="152" x2="148" y2="152" gradientUnits="userSpaceOnUse">
<stop stop-color="#0BFADD" stop-opacity="0.05"/>
<stop offset="0.15625" stop-color="#0BFADD" stop-opacity="0.8"/>
<stop offset="0.338542" stop-color="#0BFADD"/>
<stop offset="0.536458" stop-color="#0BFADD" stop-opacity="0.8"/>
<stop offset="1" stop-color="#0BFADD" stop-opacity="0.05"/>
</linearGradient>
<linearGradient id="paint12_linear_608_11823" x1="40" y1="117.5" x2="3.4925e-09" y2="117.5" gradientUnits="userSpaceOnUse">
<stop stop-color="#0BFADD" stop-opacity="0.05"/>
<stop offset="0.15625" stop-color="#0BFADD" stop-opacity="0.8"/>
<stop offset="0.338542" stop-color="#0BFADD"/>
<stop offset="0.536458" stop-color="#0BFADD" stop-opacity="0.8"/>
<stop offset="1" stop-color="#0BFADD" stop-opacity="0.05"/>
</linearGradient>
<linearGradient id="paint13_linear_608_11823" x1="99" y1="145" x2="79" y2="145" gradientUnits="userSpaceOnUse">
<stop stop-color="#0BFADD" stop-opacity="0.05"/>
<stop offset="0.15625" stop-color="#0BFADD" stop-opacity="0.8"/>
<stop offset="0.338542" stop-color="#0BFADD"/>
<stop offset="0.536458" stop-color="#0BFADD" stop-opacity="0.8"/>
<stop offset="1" stop-color="#0BFADD" stop-opacity="0.05"/>
</linearGradient>
<linearGradient id="paint14_linear_608_11823" x1="-14.4257" y1="142.802" x2="66.9362" y2="38.8274" gradientUnits="userSpaceOnUse">
<stop stop-color="#03DDAD" stop-opacity="0.4"/>
<stop offset="0.484375" stop-color="#5274F2" stop-opacity="0.4"/>
<stop offset="1" stop-color="#0896FD" stop-opacity="0.4"/>
</linearGradient>
<linearGradient id="paint15_linear_608_11823" x1="178" y1="144" x2="110" y2="144" gradientUnits="userSpaceOnUse">
<stop stop-color="#0BFADD" stop-opacity="0.05"/>
<stop offset="0.15625" stop-color="#0BFADD" stop-opacity="0.8"/>
<stop offset="0.338542" stop-color="#0BFADD"/>
<stop offset="0.536458" stop-color="#0BFADD" stop-opacity="0.8"/>
<stop offset="1" stop-color="#0BFADD" stop-opacity="0.05"/>
</linearGradient>
<linearGradient id="paint16_linear_608_11823" x1="79" y1="109.5" x2="11" y2="109.5" gradientUnits="userSpaceOnUse">
<stop stop-color="#0BFADD" stop-opacity="0.05"/>
<stop offset="0.15625" stop-color="#0BFADD" stop-opacity="0.8"/>
<stop offset="0.338542" stop-color="#0BFADD"/>
<stop offset="0.536458" stop-color="#0BFADD" stop-opacity="0.8"/>
<stop offset="1" stop-color="#0BFADD" stop-opacity="0.05"/>
</linearGradient>
<linearGradient id="paint17_linear_608_11823" x1="-14.4257" y1="134.802" x2="66.9362" y2="30.8274" gradientUnits="userSpaceOnUse">
<stop stop-color="#03DDAD" stop-opacity="0.4"/>
<stop offset="0.484375" stop-color="#5274F2" stop-opacity="0.4"/>
<stop offset="1" stop-color="#0896FD" stop-opacity="0.4"/>
</linearGradient>
<linearGradient id="paint18_linear_608_11823" x1="57" y1="101.5" x2="37" y2="101.5" gradientUnits="userSpaceOnUse">
<stop stop-color="#0BFADD" stop-opacity="0.05"/>
<stop offset="0.15625" stop-color="#0BFADD" stop-opacity="0.8"/>
<stop offset="0.338542" stop-color="#0BFADD"/>
<stop offset="0.536458" stop-color="#0BFADD" stop-opacity="0.8"/>
<stop offset="1" stop-color="#0BFADD" stop-opacity="0.05"/>
</linearGradient>
<linearGradient id="paint19_linear_608_11823" x1="86" y1="101.5" x2="66" y2="101.5" gradientUnits="userSpaceOnUse">
<stop stop-color="#0BFADD" stop-opacity="0.05"/>
<stop offset="0.15625" stop-color="#0BFADD" stop-opacity="0.8"/>
<stop offset="0.338542" stop-color="#0BFADD"/>
<stop offset="0.536458" stop-color="#0BFADD" stop-opacity="0.8"/>
<stop offset="1" stop-color="#0BFADD" stop-opacity="0.05"/>
</linearGradient>
<linearGradient id="paint20_linear_608_11823" x1="135" y1="136" x2="115" y2="136" gradientUnits="userSpaceOnUse">
<stop stop-color="#0BFADD" stop-opacity="0.05"/>
<stop offset="0.15625" stop-color="#0BFADD" stop-opacity="0.8"/>
<stop offset="0.338542" stop-color="#0BFADD"/>
<stop offset="0.536458" stop-color="#0BFADD" stop-opacity="0.8"/>
<stop offset="1" stop-color="#0BFADD" stop-opacity="0.05"/>
</linearGradient>
<linearGradient id="paint21_linear_608_11823" x1="163" y1="136" x2="143" y2="136" gradientUnits="userSpaceOnUse">
<stop stop-color="#0BFADD" stop-opacity="0.05"/>
<stop offset="0.15625" stop-color="#0BFADD" stop-opacity="0.8"/>
<stop offset="0.338542" stop-color="#0BFADD"/>
<stop offset="0.536458" stop-color="#0BFADD" stop-opacity="0.8"/>
<stop offset="1" stop-color="#0BFADD" stop-opacity="0.05"/>
</linearGradient>
<linearGradient id="paint22_linear_608_11823" x1="188" y1="136" x2="168" y2="136" gradientUnits="userSpaceOnUse">
<stop stop-color="#0BFADD" stop-opacity="0.05"/>
<stop offset="0.15625" stop-color="#0BFADD" stop-opacity="0.8"/>
<stop offset="0.338542" stop-color="#0BFADD"/>
<stop offset="0.536458" stop-color="#0BFADD" stop-opacity="0.8"/>
<stop offset="1" stop-color="#0BFADD" stop-opacity="0.05"/>
</linearGradient>
<linearGradient id="paint23_linear_608_11823" x1="-15.5025" y1="2.19792" x2="65.7546" y2="106.591" gradientUnits="userSpaceOnUse">
<stop stop-color="#03DDAD" stop-opacity="0.4"/>
<stop offset="0.484375" stop-color="#5274F2" stop-opacity="0.4"/>
<stop offset="1" stop-color="#0896FD" stop-opacity="0.4"/>
</linearGradient>
<linearGradient id="paint24_linear_608_11823" x1="53" y1="35.5" x2="13" y2="35.5" gradientUnits="userSpaceOnUse">
<stop stop-color="#0BFADD" stop-opacity="0.05"/>
<stop offset="0.15625" stop-color="#0BFADD" stop-opacity="0.8"/>
<stop offset="0.338542" stop-color="#0BFADD"/>
<stop offset="0.536458" stop-color="#0BFADD" stop-opacity="0.8"/>
<stop offset="1" stop-color="#0BFADD" stop-opacity="0.05"/>
</linearGradient>
<linearGradient id="paint25_linear_608_11823" x1="99" y1="32" x2="79" y2="32" gradientUnits="userSpaceOnUse">
<stop stop-color="#0BFADD" stop-opacity="0.05"/>
<stop offset="0.15625" stop-color="#0BFADD" stop-opacity="0.8"/>
<stop offset="0.338542" stop-color="#0BFADD"/>
<stop offset="0.536458" stop-color="#0BFADD" stop-opacity="0.8"/>
<stop offset="1" stop-color="#0BFADD" stop-opacity="0.05"/>
</linearGradient>
<linearGradient id="paint26_linear_608_11823" x1="159" y1="1" x2="119" y2="1" gradientUnits="userSpaceOnUse">
<stop stop-color="#0BFADD" stop-opacity="0.05"/>
<stop offset="0.15625" stop-color="#0BFADD" stop-opacity="0.8"/>
<stop offset="0.338542" stop-color="#0BFADD"/>
<stop offset="0.536458" stop-color="#0BFADD" stop-opacity="0.8"/>
<stop offset="1" stop-color="#0BFADD" stop-opacity="0.05"/>
</linearGradient>
</defs>
</svg>
