<svg width="40" height="40" viewBox="0 0 40 40" fill="none" xmlns="http://www.w3.org/2000/svg">
<g clip-path="url(#clip0_608_11797)">
<path d="M39.9643 19.993C39.9643 30.9841 31.0549 39.8935 20.0638 39.8935C9.07318 39.8935 0.16333 30.9841 0.16333 19.993C0.16333 9.00218 9.07318 0.0925293 20.0638 0.0925293C31.0549 0.0925293 39.9643 9.00218 39.9643 19.993Z" fill="#1BA27A"/>
<path d="M29.4033 10.1275H10.5596V14.6768H17.7068V21.3633H22.2561V14.6768H29.4033V10.1275Z" fill="white"/>
<path d="M20.0248 22.0757C14.1123 22.0757 9.31889 21.1399 9.31889 19.9855C9.31889 18.8313 14.1121 17.8954 20.0248 17.8954C25.9372 17.8954 30.7304 18.8313 30.7304 19.9855C30.7304 21.1399 25.9372 22.0757 20.0248 22.0757ZM32.0456 20.334C32.0456 18.8454 26.6638 17.6389 20.0248 17.6389C13.386 17.6389 8.00366 18.8454 8.00366 20.334C8.00366 21.6448 12.177 22.737 17.7071 22.979V32.5778H22.256V22.9827C27.8287 22.7483 32.0456 21.6516 32.0456 20.334Z" fill="white"/>
</g>
<defs>
<clipPath id="clip0_608_11797">
<rect width="40" height="40" fill="white"/>
</clipPath>
</defs>
</svg>
