<svg xmlns="http://www.w3.org/2000/svg" version="1.1" width="231px" height="231px" style="shape-rendering:geometricPrecision; text-rendering:geometricPrecision; image-rendering:optimizeQuality; fill-rule:evenodd; clip-rule:evenodd" xmlns:xlink="http://www.w3.org/1999/xlink">
<g><path style="opacity:0.912" fill="#ffd48e" d="M 98.5,-0.5 C 109.5,-0.5 120.5,-0.5 131.5,-0.5C 185.728,10.7278 218.728,43.3945 230.5,97.5C 230.5,109.5 230.5,121.5 230.5,133.5C 218.494,186.173 186.161,218.506 133.5,230.5C 121.5,230.5 109.5,230.5 97.5,230.5C 43.85,218.85 11.1834,186.183 -0.5,132.5C -0.5,121.167 -0.5,109.833 -0.5,98.5C 10.8333,43.8333 43.8333,10.8333 98.5,-0.5 Z"/></g>
<g><path style="opacity:1" fill="#ff593b" d="M 126.5,15.5 C 126.5,15.1667 126.5,14.8333 126.5,14.5C 132.97,14.2804 139.303,15.1137 145.5,17C 151.568,20.366 157.901,23.1994 164.5,25.5C 166.2,26.6099 167.534,27.9432 168.5,29.5C 164.191,28.5148 160.191,26.6815 156.5,24C 151.022,21.4347 145.355,19.1014 139.5,17C 135.21,16.0775 130.877,15.5775 126.5,15.5 Z"/></g>
<g><path style="opacity:1" fill="#ff8f58" d="M 101.5,14.5 C 109.833,14.5 118.167,14.5 126.5,14.5C 126.5,14.8333 126.5,15.1667 126.5,15.5C 126.5,16.5 126.5,17.5 126.5,18.5C 126.5,19.1667 126.5,19.8333 126.5,20.5C 116.167,19.6522 105.833,19.9855 95.5,21.5C 96.5,20.1667 97.5,18.8333 98.5,17.5C 99.8333,16.8333 100.833,15.8333 101.5,14.5 Z"/></g>
<g><path style="opacity:1" fill="#ff6629" d="M 128.5,10.5 C 126.824,11.1834 126.157,12.5168 126.5,14.5C 118.167,14.5 109.833,14.5 101.5,14.5C 89.2416,16.3104 77.7416,19.9771 67,25.5C 66.3333,24.8333 66.3333,24.1667 67,23.5C 68.7198,22.6159 69.8865,21.2825 70.5,19.5C 80.2235,14.4261 90.5568,11.2595 101.5,10C 110.676,9.17602 119.676,9.34269 128.5,10.5 Z"/></g>
<g><path style="opacity:1" fill="#ffa674" d="M 126.5,20.5 C 126.5,21.1667 126.5,21.8333 126.5,22.5C 126.666,26.8461 126.499,31.1794 126,35.5C 123.619,36.435 121.119,36.7683 118.5,36.5C 108.828,36.3335 99.1609,36.5002 89.5,37C 88.376,37.2492 87.376,37.7492 86.5,38.5C 90.0706,41.9732 92.9039,45.9732 95,50.5C 95.9653,48.7397 97.132,48.4063 98.5,49.5C 98.0233,50.4776 97.3567,51.3109 96.5,52C 98.4418,54.0338 100.275,56.2005 102,58.5C 102.976,62.2517 102.31,62.9183 100,60.5C 99.6554,62.2009 100.322,63.5342 102,64.5C 102.182,67.2263 102.682,69.8929 103.5,72.5C 104.051,70.5868 104.218,68.5868 104,66.5C 107.468,71.9341 111.301,77.1008 115.5,82C 111.5,83 111.5,84 115.5,85C 114.328,85.4186 113.328,86.0853 112.5,87C 112.728,87.3988 113.062,87.5654 113.5,87.5C 109.337,91.8314 105.337,96.3314 101.5,101C 96.2266,102.488 90.8933,103.654 85.5,104.5C 83.8211,104.108 82.1545,103.608 80.5,103C 87.0411,96.2912 93.7078,89.7912 100.5,83.5C 92.1932,82.5021 83.8599,82.1688 75.5,82.5C 75.4595,70.6104 75.4595,58.6104 75.5,46.5C 70.1814,51.3182 65.0147,56.3182 60,61.5C 59.8071,66.7503 59.3071,71.917 58.5,77C 50.5069,77.4997 42.5069,77.6664 34.5,77.5C 32.0504,77.702 29.717,77.3686 27.5,76.5C 27.5,76.1667 27.5,75.8333 27.5,75.5C 31.2249,70.4029 34.7249,65.0696 38,59.5C 42.0071,56.6587 45.5071,53.3253 48.5,49.5C 51.2513,48.4998 53.918,47.3332 56.5,46C 58.4506,44.2658 59.4506,42.0991 59.5,39.5C 63.4367,39.2065 67.27,39.5399 71,40.5C 73.0693,39.7362 75.236,39.2362 77.5,39C 81.7036,34.9644 85.7036,30.7978 89.5,26.5C 91.5,24.8333 93.5,23.1667 95.5,21.5C 105.833,19.9855 116.167,19.6522 126.5,20.5 Z"/></g>
<g><path style="opacity:1" fill="#ff9873" d="M 126.5,22.5 C 137.493,22.412 147.493,25.412 156.5,31.5C 157.452,33.0453 157.785,34.712 157.5,36.5C 157.5,46.8333 157.5,57.1667 157.5,67.5C 150.937,67.8705 144.603,69.2038 138.5,71.5C 138.295,70.1803 137.795,68.5137 137,66.5C 129.865,57.6139 122.698,48.6139 115.5,39.5C 113.922,38.7022 112.256,38.2022 110.5,38C 113.365,37.8171 116.031,37.3171 118.5,36.5C 121.119,36.7683 123.619,36.435 126,35.5C 126.499,31.1794 126.666,26.8461 126.5,22.5 Z"/></g>
<g><path style="opacity:1" fill="#ff4129" d="M 128.5,10.5 C 173.557,17.6863 202.891,43.0197 216.5,86.5C 215.833,87.1667 215.167,87.8333 214.5,88.5C 212.003,83.4732 209.67,78.3066 207.5,73C 207.164,71.9701 206.497,71.4701 205.5,71.5C 205.457,67.9101 203.957,65.2434 201,63.5C 199.631,59.3334 197.964,55.3334 196,51.5C 191.272,46.527 186.439,41.6937 181.5,37C 177.112,34.4765 172.778,31.9765 168.5,29.5C 167.534,27.9432 166.2,26.6099 164.5,25.5C 157.901,23.1994 151.568,20.366 145.5,17C 139.303,15.1137 132.97,14.2804 126.5,14.5C 126.157,12.5168 126.824,11.1834 128.5,10.5 Z"/></g>
<g><path style="opacity:1" fill="#ff654d" d="M 126.5,15.5 C 130.877,15.5775 135.21,16.0775 139.5,17C 145.355,19.1014 151.022,21.4347 156.5,24C 160.191,26.6815 164.191,28.5148 168.5,29.5C 174.654,34.1198 180.321,39.4532 185.5,45.5C 184.022,45.762 182.689,45.4287 181.5,44.5C 178.744,41.74 175.744,39.24 172.5,37C 168.706,36.5437 166.039,34.5437 164.5,31C 161.061,30.559 158.394,28.8923 156.5,26C 146.732,22.6185 136.732,20.1185 126.5,18.5C 126.5,17.5 126.5,16.5 126.5,15.5 Z"/></g>
<g><path style="opacity:1" fill="#ff8b50" d="M 98.5,17.5 C 97.5,18.8333 96.5,20.1667 95.5,21.5C 93.5,23.1667 91.5,24.8333 89.5,26.5C 79.3262,28.6999 69.9929,32.6999 61.5,38.5C 60.7248,36.5247 59.3914,35.6913 57.5,36C 58.4581,37.1475 58.1247,38.1475 56.5,39C 49.3459,45.8152 41.8459,52.3152 34,58.5C 32.4186,63.2135 30.2519,67.5468 27.5,71.5C 27.5,68.8333 27.5,66.1667 27.5,63.5C 27.5,63.1667 27.5,62.8333 27.5,62.5C 33.7377,53.0939 41.5711,45.0939 51,38.5C 51.4561,37.2559 50.9561,36.4226 49.5,36C 52.9681,34.0302 56.3015,31.8635 59.5,29.5C 60.2811,30.7287 60.7811,32.062 61,33.5C 63.2336,31.3002 65.7336,29.4669 68.5,28C 73.7381,25.6956 78.9047,23.1956 84,20.5C 88.6629,18.6255 93.4962,17.6255 98.5,17.5 Z"/></g>
<g><path style="opacity:1" fill="#ff9f74" d="M 118.5,36.5 C 116.031,37.3171 113.365,37.8171 110.5,38C 112.256,38.2022 113.922,38.7022 115.5,39.5C 122.698,48.6139 129.865,57.6139 137,66.5C 137.795,68.5137 138.295,70.1803 138.5,71.5C 129.694,76.071 121.361,81.4044 113.5,87.5C 113.062,87.5654 112.728,87.3988 112.5,87C 113.328,86.0853 114.328,85.4186 115.5,85C 111.5,84 111.5,83 115.5,82C 111.301,77.1008 107.468,71.9341 104,66.5C 104.218,68.5868 104.051,70.5868 103.5,72.5C 102.682,69.8929 102.182,67.2263 102,64.5C 100.322,63.5342 99.6554,62.2009 100,60.5C 102.31,62.9183 102.976,62.2517 102,58.5C 100.275,56.2005 98.4418,54.0338 96.5,52C 97.3567,51.3109 98.0233,50.4776 98.5,49.5C 97.132,48.4063 95.9653,48.7397 95,50.5C 92.9039,45.9732 90.0706,41.9732 86.5,38.5C 87.376,37.7492 88.376,37.2492 89.5,37C 99.1609,36.5002 108.828,36.3335 118.5,36.5 Z"/></g>
<g><path style="opacity:1" fill="#ff9b66" d="M 89.5,26.5 C 85.7036,30.7978 81.7036,34.9644 77.5,39C 75.236,39.2362 73.0693,39.7362 71,40.5C 67.27,39.5399 63.4367,39.2065 59.5,39.5C 59.4506,42.0991 58.4506,44.2658 56.5,46C 53.918,47.3332 51.2513,48.4998 48.5,49.5C 45.5071,53.3253 42.0071,56.6587 38,59.5C 34.7249,65.0696 31.2249,70.4029 27.5,75.5C 27.5,74.1667 27.5,72.8333 27.5,71.5C 30.2519,67.5468 32.4186,63.2135 34,58.5C 41.8459,52.3152 49.3459,45.8152 56.5,39C 58.1247,38.1475 58.4581,37.1475 57.5,36C 59.3914,35.6913 60.7248,36.5247 61.5,38.5C 69.9929,32.6999 79.3262,28.6999 89.5,26.5 Z"/></g>
<g><path style="opacity:1" fill="#ff9171" d="M 157.5,36.5 C 160.271,36.4207 162.937,36.9207 165.5,38C 174.636,43.8053 182.469,50.972 189,59.5C 190.481,62.11 191.648,64.7766 192.5,67.5C 185.5,73.8333 178.833,80.5 172.5,87.5C 166.167,93.5 159.833,99.5 153.5,105.5C 156.547,100.426 159.213,95.0924 161.5,89.5C 161.376,88.8933 161.043,88.56 160.5,88.5C 162.982,81.7377 163.982,74.7377 163.5,67.5C 161.5,67.5 159.5,67.5 157.5,67.5C 157.5,57.1667 157.5,46.8333 157.5,36.5 Z"/></g>
<g><path style="opacity:1" fill="#ff543e" d="M 168.5,29.5 C 172.778,31.9765 177.112,34.4765 181.5,37C 186.439,41.6937 191.272,46.527 196,51.5C 197.964,55.3334 199.631,59.3334 201,63.5C 203.957,65.2434 205.457,67.9101 205.5,71.5C 203.896,70.713 203.229,69.3797 203.5,67.5C 201.09,67.0791 199.257,65.7458 198,63.5C 196.296,58.912 194.13,54.5786 191.5,50.5C 189.69,48.4689 187.69,46.8022 185.5,45.5C 180.321,39.4532 174.654,34.1198 168.5,29.5 Z"/></g>
<g><path style="opacity:1" fill="#ff7331" d="M 101.5,14.5 C 100.833,15.8333 99.8333,16.8333 98.5,17.5C 93.4962,17.6255 88.6629,18.6255 84,20.5C 78.9047,23.1956 73.7381,25.6956 68.5,28C 65.7336,29.4669 63.2336,31.3002 61,33.5C 60.7811,32.062 60.2811,30.7287 59.5,29.5C 56.3015,31.8635 52.9681,34.0302 49.5,36C 50.9561,36.4226 51.4561,37.2559 51,38.5C 41.5711,45.0939 33.7377,53.0939 27.5,62.5C 27.5,60.5 27.5,58.5 27.5,56.5C 38.4338,40.2341 52.7671,27.9008 70.5,19.5C 69.8865,21.2825 68.7198,22.6159 67,23.5C 66.3333,24.1667 66.3333,24.8333 67,25.5C 77.7416,19.9771 89.2416,16.3104 101.5,14.5 Z"/></g>
<g><path style="opacity:1" fill="#ff7e61" d="M 126.5,18.5 C 136.732,20.1185 146.732,22.6185 156.5,26C 158.394,28.8923 161.061,30.559 164.5,31C 166.039,34.5437 168.706,36.5437 172.5,37C 175.744,39.24 178.744,41.74 181.5,44.5C 182.689,45.4287 184.022,45.762 185.5,45.5C 188.127,50.3333 191.127,55 194.5,59.5C 195.835,66.5049 199.002,72.5049 204,77.5C 204.681,79.8947 205.515,82.228 206.5,84.5C 207.522,84.1445 208.189,83.4778 208.5,82.5C 209.793,83.842 210.626,85.5087 211,87.5C 214.16,101.345 215.16,115.345 214,129.5C 212.636,134.951 211.136,140.284 209.5,145.5C 209.5,143.833 209.5,142.167 209.5,140.5C 210.924,133.424 211.591,126.257 211.5,119C 210.984,109.108 209.818,99.2748 208,89.5C 205.512,85.8671 203.012,82.2004 200.5,78.5C 198.146,81.5211 195.479,84.1877 192.5,86.5C 191.872,80.0252 191.872,73.6919 192.5,67.5C 191.648,64.7766 190.481,62.11 189,59.5C 182.469,50.972 174.636,43.8053 165.5,38C 162.937,36.9207 160.271,36.4207 157.5,36.5C 157.785,34.712 157.452,33.0453 156.5,31.5C 147.493,25.412 137.493,22.412 126.5,22.5C 126.5,21.8333 126.5,21.1667 126.5,20.5C 126.5,19.8333 126.5,19.1667 126.5,18.5 Z"/></g>
<g><path style="opacity:1" fill="#ff6852" d="M 185.5,45.5 C 187.69,46.8022 189.69,48.4689 191.5,50.5C 194.13,54.5786 196.296,58.912 198,63.5C 199.257,65.7458 201.09,67.0791 203.5,67.5C 203.229,69.3797 203.896,70.713 205.5,71.5C 205.861,75.4629 206.861,79.1296 208.5,82.5C 208.189,83.4778 207.522,84.1445 206.5,84.5C 205.515,82.228 204.681,79.8947 204,77.5C 199.002,72.5049 195.835,66.5049 194.5,59.5C 191.127,55 188.127,50.3333 185.5,45.5 Z"/></g>
<g><path style="opacity:1" fill="#fffdfc" d="M 157.5,67.5 C 159.5,67.5 161.5,67.5 163.5,67.5C 163.982,74.7377 162.982,81.7377 160.5,88.5C 153.234,103.947 143.068,117.28 130,128.5C 129.517,129.448 129.351,130.448 129.5,131.5C 128.508,135.407 127.508,139.407 126.5,143.5C 122.5,147.167 118.5,150.833 114.5,154.5C 112.799,153.789 111.799,152.455 111.5,150.5C 110.538,146.605 109.204,142.939 107.5,139.5C 104.421,139.74 101.421,139.407 98.5,138.5C 96.4807,140.19 94.4807,141.856 92.5,143.5C 89.9308,142.604 87.9308,140.938 86.5,138.5C 88.1667,136.5 89.8333,134.5 91.5,132.5C 90.4229,130.271 89.7563,127.937 89.5,125.5C 85.1539,122.373 80.1539,120.373 74.5,119.5C 74.3505,118.448 74.5172,117.448 75,116.5C 79.0816,112.924 82.5816,108.924 85.5,104.5C 90.8933,103.654 96.2266,102.488 101.5,101C 105.337,96.3314 109.337,91.8314 113.5,87.5C 121.361,81.4044 129.694,76.071 138.5,71.5C 144.603,69.2038 150.937,67.8705 157.5,67.5 Z"/></g>
<g><path style="opacity:1" fill="#ff8d67" d="M 192.5,67.5 C 191.872,73.6919 191.872,80.0252 192.5,86.5C 188.833,90.5 185.167,94.5 181.5,98.5C 181.167,98.5 180.833,98.5 180.5,98.5C 179.691,96.9867 179.524,95.3201 180,93.5C 179.586,93.9574 179.086,94.2907 178.5,94.5C 177.646,93.4783 176.646,92.6449 175.5,92C 179.514,87.1837 179.181,86.6837 174.5,90.5C 173.575,89.6431 172.908,88.6431 172.5,87.5C 178.833,80.5 185.5,73.8333 192.5,67.5 Z"/></g>
<g><path style="opacity:1" fill="#ffb277" d="M 75.5,82.5 C 75.666,87.8437 75.4994,93.1771 75,98.5C 73.4421,101.021 71.2755,102.688 68.5,103.5C 67.3915,102.71 66.0581,102.21 64.5,102C 67.3063,99.1937 70.1396,96.3604 73,93.5C 73.6667,92.8333 73.6667,92.1667 73,91.5C 70.2727,94.7306 67.106,97.3972 63.5,99.5C 62.3279,99.0814 61.3279,98.4147 60.5,97.5C 64.4846,93.0149 68.6513,88.6816 73,84.5C 73.6667,83.8333 73.6667,83.1667 73,82.5C 68.3333,87.1667 63.6667,91.8333 59,96.5C 58.3164,94.5211 58.8164,92.8544 60.5,91.5C 60.1667,90.8333 59.8333,90.1667 59.5,89.5C 61.8167,86.6826 64.3167,84.0159 67,81.5C 67.6667,80.8333 67.6667,80.1667 67,79.5C 65.1598,80.8331 64.6598,80.6665 65.5,79C 64.6667,78.1667 63.8333,77.3333 63,76.5C 61.9805,77.6872 60.8139,78.6872 59.5,79.5C 51.0377,78.8606 42.7043,78.1939 34.5,77.5C 42.5069,77.6664 50.5069,77.4997 58.5,77C 59.3071,71.917 59.8071,66.7503 60,61.5C 65.0147,56.3182 70.1814,51.3182 75.5,46.5C 75.4595,58.6104 75.4595,70.6104 75.5,82.5 Z"/></g>
<g><path style="opacity:1" fill="#ffb978" d="M 27.5,76.5 C 29.717,77.3686 32.0504,77.702 34.5,77.5C 42.7043,78.1939 51.0377,78.8606 59.5,79.5C 60.8139,78.6872 61.9805,77.6872 63,76.5C 63.8333,77.3333 64.6667,78.1667 65.5,79C 64.6598,80.6665 65.1598,80.8331 67,79.5C 67.6667,80.1667 67.6667,80.8333 67,81.5C 64.3167,84.0159 61.8167,86.6826 59.5,89.5C 59.8333,90.1667 60.1667,90.8333 60.5,91.5C 58.8164,92.8544 58.3164,94.5211 59,96.5C 63.6667,91.8333 68.3333,87.1667 73,82.5C 73.6667,83.1667 73.6667,83.8333 73,84.5C 68.6513,88.6816 64.4846,93.0149 60.5,97.5C 61.3279,98.4147 62.3279,99.0814 63.5,99.5C 67.106,97.3972 70.2727,94.7306 73,91.5C 73.6667,92.1667 73.6667,92.8333 73,93.5C 70.1396,96.3604 67.3063,99.1937 64.5,102C 66.0581,102.21 67.3915,102.71 68.5,103.5C 66.2341,103.859 64.4007,103.192 63,101.5C 60.5447,103.209 60.378,105.376 62.5,108C 62.3948,109.592 62.0614,111.092 61.5,112.5C 55.1667,118.167 49.1667,124.167 43.5,130.5C 39.0355,134.463 34.7022,138.63 30.5,143C 29.5165,143.591 28.8499,143.257 28.5,142C 27.8132,140.838 27.6466,139.672 28,138.5C 37.0595,128.363 46.5595,118.696 56.5,109.5C 50.7436,112.693 45.4103,117.193 40.5,123C 38.7991,123.345 37.4658,122.678 36.5,121C 41.3333,116.167 46.1667,111.333 51,106.5C 51.6667,105.833 51.6667,105.167 51,104.5C 42.9857,112.681 34.8191,120.681 26.5,128.5C 23.6606,125.37 23.9939,122.704 27.5,120.5C 26.4126,119.895 25.246,120.228 24,121.5C 23.7266,119.899 23.2266,118.399 22.5,117C 23.6872,115.981 24.6872,114.814 25.5,113.5C 23.2532,111.086 22.9199,108.42 24.5,105.5C 23.7376,105.089 22.7376,104.923 21.5,105C 21.846,101.391 23.1793,98.2245 25.5,95.5C 24.8333,94.8333 24.1667,94.1667 23.5,93.5C 24.3779,89.1802 26.3779,85.5136 29.5,82.5C 27.8955,80.8211 27.2289,78.8211 27.5,76.5 Z"/></g>
<g><path style="opacity:1" fill="#ff9e78" d="M 198.5,163.5 C 197.5,163.5 196.5,163.5 195.5,163.5C 194.167,163.5 192.833,163.5 191.5,163.5C 192.209,162.596 193.209,162.263 194.5,162.5C 194.925,158.393 196.425,154.726 199,151.5C 200.462,146.393 201.295,141.393 201.5,136.5C 199.226,133.05 196.726,129.717 194,126.5C 193.508,127.549 193.674,128.549 194.5,129.5C 194.154,130.696 193.654,130.696 193,129.5C 191.951,123.427 189.118,118.261 184.5,114C 186.9,113.814 189.234,113.314 191.5,112.5C 192.439,108.235 192.772,103.902 192.5,99.5C 195.479,95.8544 198.812,92.521 202.5,89.5C 211.605,114.748 210.272,139.415 198.5,163.5 Z"/></g>
<g><path style="opacity:1" fill="#ff9e52" d="M 135.5,107.5 C 135.236,99.0758 130.903,95.5758 122.5,97C 119.361,99.4981 117.694,102.665 117.5,106.5C 116.658,96.8431 120.991,93.0098 130.5,95C 135.599,97.7958 137.265,101.962 135.5,107.5 Z"/></g>
<g><path style="opacity:1" fill="#ffcaa7" d="M 135.5,107.5 C 132.366,112.119 128.032,113.619 122.5,112C 119.944,110.945 118.277,109.112 117.5,106.5C 117.694,102.665 119.361,99.4981 122.5,97C 130.903,95.5758 135.236,99.0758 135.5,107.5 Z"/></g>
<g><path style="opacity:1" fill="#ff9b74" d="M 180.5,98.5 C 180.833,98.5 181.167,98.5 181.5,98.5C 182.72,100.981 184.386,102.981 186.5,104.5C 179.784,111.547 173.117,118.547 166.5,125.5C 160.807,130.861 155.14,136.195 149.5,141.5C 146.577,139.73 146.244,137.73 148.5,135.5C 146.997,135.165 145.664,135.165 144.5,135.5C 145.193,134.482 145.859,133.482 146.5,132.5C 158.167,121.5 169.5,110.167 180.5,98.5 Z"/></g>
<g><path style="opacity:1" fill="#ff916d" d="M 209.5,140.5 C 206.435,147.494 203.601,154.828 201,162.5C 200.329,163.252 199.496,163.586 198.5,163.5C 210.272,139.415 211.605,114.748 202.5,89.5C 198.812,92.521 195.479,95.8544 192.5,99.5C 190.5,101.167 188.5,102.833 186.5,104.5C 184.386,102.981 182.72,100.981 181.5,98.5C 185.167,94.5 188.833,90.5 192.5,86.5C 195.479,84.1877 198.146,81.5211 200.5,78.5C 203.012,82.2004 205.512,85.8671 208,89.5C 209.818,99.2748 210.984,109.108 211.5,119C 211.591,126.257 210.924,133.424 209.5,140.5 Z"/></g>
<g><path style="opacity:1" fill="#ffa57a" d="M 192.5,99.5 C 192.772,103.902 192.439,108.235 191.5,112.5C 189.234,113.314 186.9,113.814 184.5,114C 189.118,118.261 191.951,123.427 193,129.5C 193.654,130.696 194.154,130.696 194.5,129.5C 193.674,128.549 193.508,127.549 194,126.5C 196.726,129.717 199.226,133.05 201.5,136.5C 201.295,141.393 200.462,146.393 199,151.5C 196.425,154.726 194.925,158.393 194.5,162.5C 193.209,162.263 192.209,162.596 191.5,163.5C 189.167,163.5 186.833,163.5 184.5,163.5C 186.292,162.691 188.292,162.191 190.5,162C 190.634,160.455 190.3,158.788 189.5,157C 184.336,149.806 178.836,142.973 173,136.5C 170.238,132.715 168.072,129.048 166.5,125.5C 173.117,118.547 179.784,111.547 186.5,104.5C 188.5,102.833 190.5,101.167 192.5,99.5 Z"/></g>
<g><path style="opacity:1" fill="#ffaf67" d="M 75.5,82.5 C 83.8599,82.1688 92.1932,82.5021 100.5,83.5C 93.7078,89.7912 87.0411,96.2912 80.5,103C 82.1545,103.608 83.8211,104.108 85.5,104.5C 82.5816,108.924 79.0816,112.924 75,116.5C 74.5172,117.448 74.3505,118.448 74.5,119.5C 80.1539,120.373 85.1539,122.373 89.5,125.5C 87.4595,124.481 85.4595,124.481 83.5,125.5C 79.7616,128.912 76.095,132.245 72.5,135.5C 71.1667,136.933 69.6667,138.267 68,139.5C 66.257,137.773 64.4236,137.106 62.5,137.5C 64.4395,135.031 64.1062,132.531 61.5,130C 61.7316,124.116 61.7316,118.282 61.5,112.5C 62.0614,111.092 62.3948,109.592 62.5,108C 60.378,105.376 60.5447,103.209 63,101.5C 64.4007,103.192 66.2341,103.859 68.5,103.5C 71.2755,102.688 73.4421,101.021 75,98.5C 75.4994,93.1771 75.666,87.8437 75.5,82.5 Z"/></g>
<g><path style="opacity:1" fill="#ff6942" d="M 205.5,71.5 C 206.497,71.4701 207.164,71.9701 207.5,73C 209.67,78.3066 212.003,83.4732 214.5,88.5C 216.058,102.451 216.558,116.451 216,130.5C 214.629,138.083 212.795,145.416 210.5,152.5C 208.06,155.598 206.06,158.932 204.5,162.5C 205.187,156.448 206.854,150.782 209.5,145.5C 211.136,140.284 212.636,134.951 214,129.5C 215.16,115.345 214.16,101.345 211,87.5C 210.626,85.5087 209.793,83.842 208.5,82.5C 206.861,79.1296 205.861,75.4629 205.5,71.5 Z"/></g>
<g><path style="opacity:1" fill="#ff982e" d="M 27.5,56.5 C 27.5,58.5 27.5,60.5 27.5,62.5C 27.5,62.8333 27.5,63.1667 27.5,63.5C 26.5416,63.9528 25.7083,64.6195 25,65.5C 19.9674,75.5829 16.6341,86.2496 15,97.5C 14.1557,112.568 14.8223,127.568 17,142.5C 18.5505,148.787 20.7171,154.787 23.5,160.5C 24.5,160.5 25.5,160.5 26.5,160.5C 27.7266,166.629 30.7266,171.629 35.5,175.5C 34.5,176.833 33.5,178.167 32.5,179.5C 29.8827,177.712 27.716,175.378 26,172.5C 7.27323,140.449 4.60656,107.116 18,72.5C 20.941,66.9382 24.1077,61.6049 27.5,56.5 Z"/></g>
<g><path style="opacity:1" fill="#ff976a" d="M 172.5,87.5 C 172.908,88.6431 173.575,89.6431 174.5,90.5C 179.181,86.6837 179.514,87.1837 175.5,92C 176.646,92.6449 177.646,93.4783 178.5,94.5C 179.086,94.2907 179.586,93.9574 180,93.5C 179.524,95.3201 179.691,96.9867 180.5,98.5C 169.5,110.167 158.167,121.5 146.5,132.5C 145.201,130.847 145.534,129.347 147.5,128C 146.004,127.493 144.837,127.993 144,129.5C 143.577,128.044 142.744,127.544 141.5,128C 136.169,132.818 131.502,137.984 127.5,143.5C 127.167,143.5 126.833,143.5 126.5,143.5C 127.508,139.407 128.508,135.407 129.5,131.5C 137.008,123.929 145.008,115.262 153.5,105.5C 159.833,99.5 166.167,93.5 172.5,87.5 Z"/></g>
<g><path style="opacity:1" fill="#ff743f" d="M 160.5,88.5 C 161.043,88.56 161.376,88.8933 161.5,89.5C 159.213,95.0924 156.547,100.426 153.5,105.5C 145.008,115.262 137.008,123.929 129.5,131.5C 129.351,130.448 129.517,129.448 130,128.5C 143.068,117.28 153.234,103.947 160.5,88.5 Z"/></g>
<g><path style="opacity:1" fill="#ffab7b" d="M 166.5,125.5 C 168.072,129.048 170.238,132.715 173,136.5C 178.836,142.973 184.336,149.806 189.5,157C 190.3,158.788 190.634,160.455 190.5,162C 188.292,162.191 186.292,162.691 184.5,163.5C 182.5,163.5 180.5,163.5 178.5,163.5C 170.833,163.5 163.167,163.5 155.5,163.5C 160.985,162.673 166.652,162.173 172.5,162C 170.167,161.667 167.833,161.333 165.5,161C 166.451,160.282 166.617,159.449 166,158.5C 165,159.5 164,160.5 163,161.5C 161.711,158.292 159.711,155.625 157,153.5C 156.383,152.551 156.549,151.718 157.5,151C 153.393,150.125 152.727,148.291 155.5,145.5C 155.167,145.167 154.833,144.833 154.5,144.5C 153.833,145.167 153.167,145.833 152.5,146.5C 150.544,145.258 149.544,143.925 149.5,142.5C 149.5,142.167 149.5,141.833 149.5,141.5C 155.14,136.195 160.807,130.861 166.5,125.5 Z"/></g>
<g><path style="opacity:1" fill="#ffbb6f" d="M 27.5,75.5 C 27.5,75.8333 27.5,76.1667 27.5,76.5C 27.2289,78.8211 27.8955,80.8211 29.5,82.5C 26.3779,85.5136 24.3779,89.1802 23.5,93.5C 24.1667,94.1667 24.8333,94.8333 25.5,95.5C 23.1793,98.2245 21.846,101.391 21.5,105C 22.7376,104.923 23.7376,105.089 24.5,105.5C 22.9199,108.42 23.2532,111.086 25.5,113.5C 24.6872,114.814 23.6872,115.981 22.5,117C 23.2266,118.399 23.7266,119.899 24,121.5C 25.246,120.228 26.4126,119.895 27.5,120.5C 23.9939,122.704 23.6606,125.37 26.5,128.5C 34.8191,120.681 42.9857,112.681 51,104.5C 51.6667,105.167 51.6667,105.833 51,106.5C 46.1667,111.333 41.3333,116.167 36.5,121C 37.4658,122.678 38.7991,123.345 40.5,123C 45.4103,117.193 50.7436,112.693 56.5,109.5C 46.5595,118.696 37.0595,128.363 28,138.5C 27.6466,139.672 27.8132,140.838 28.5,142C 28.8499,143.257 29.5165,143.591 30.5,143C 34.7022,138.63 39.0355,134.463 43.5,130.5C 43.9175,131.222 44.5842,131.722 45.5,132C 43.6707,133.113 42.8374,134.613 43,136.5C 44,135.5 45,134.5 46,133.5C 46.6302,135.903 45.7969,137.737 43.5,139C 44.4491,139.617 45.2825,139.451 46,138.5C 47.0196,142.495 48.853,145.995 51.5,149C 50.1667,149.667 49.1667,150.667 48.5,152C 49.4231,154.041 49.7564,156.208 49.5,158.5C 51.9288,158.415 53.9288,157.415 55.5,155.5C 56.1067,155.624 56.44,155.957 56.5,156.5C 51.4431,161.562 46.1098,166.228 40.5,170.5C 38.1386,169.565 35.9719,168.232 34,166.5C 32.4815,160.323 29.9815,154.49 26.5,149C 27.3402,147.334 26.8402,147.167 25,148.5C 23.5684,145.998 23.4018,143.498 24.5,141C 21.9817,139.12 21.315,136.787 22.5,134C 20.8624,131.867 20.029,129.367 20,126.5C 19.2228,123.571 19.3895,120.737 20.5,118C 18.1836,115.848 17.8502,113.348 19.5,110.5C 17.6554,108.464 17.1554,106.13 18,103.5C 20.6938,102.054 21.5271,100.054 20.5,97.5C 22.8267,92.7144 23.4934,88.0477 22.5,83.5C 23.934,81.7801 24.7674,79.7801 25,77.5C 25.7083,76.6195 26.5416,75.9528 27.5,75.5 Z"/></g>
<g><path style="opacity:1" fill="#ffaf58" d="M 27.5,71.5 C 27.5,72.8333 27.5,74.1667 27.5,75.5C 26.5416,75.9528 25.7083,76.6195 25,77.5C 24.7674,79.7801 23.934,81.7801 22.5,83.5C 23.4934,88.0477 22.8267,92.7144 20.5,97.5C 21.5271,100.054 20.6938,102.054 18,103.5C 17.1554,106.13 17.6554,108.464 19.5,110.5C 17.8502,113.348 18.1836,115.848 20.5,118C 19.3895,120.737 19.2228,123.571 20,126.5C 20.029,129.367 20.8624,131.867 22.5,134C 21.315,136.787 21.9817,139.12 24.5,141C 23.4018,143.498 23.5684,145.998 25,148.5C 26.8402,147.167 27.3402,147.334 26.5,149C 29.9815,154.49 32.4815,160.323 34,166.5C 35.9719,168.232 38.1386,169.565 40.5,170.5C 39.8333,171.833 38.8333,172.833 37.5,173.5C 33.6385,170.447 31.1385,166.447 30,161.5C 29,160.833 28,160.167 27,159.5C 20.6633,146.304 16.8299,132.304 15.5,117.5C 15.7359,112.659 15.7359,107.826 15.5,103C 15.9985,99.6506 16.9985,96.484 18.5,93.5C 17.4798,91.5675 17.3131,89.5675 18,87.5C 21.4984,82.1389 24.6651,76.8056 27.5,71.5 Z"/></g>
<g><path style="opacity:1" fill="#ffb86f" d="M 61.5,112.5 C 61.7316,118.282 61.7316,124.116 61.5,130C 64.1062,132.531 64.4395,135.031 62.5,137.5C 64.4236,137.106 66.257,137.773 68,139.5C 69.6667,138.267 71.1667,136.933 72.5,135.5C 73.4171,140.001 75.4171,144.001 78.5,147.5C 66.4952,159.504 54.1619,171.171 41.5,182.5C 41.0679,181.29 40.4013,180.29 39.5,179.5C 49.4685,169.7 59.6351,160.033 70,150.5C 70.3087,148.609 69.4753,147.275 67.5,146.5C 63.8133,149.855 60.1466,153.189 56.5,156.5C 56.44,155.957 56.1067,155.624 55.5,155.5C 53.9288,157.415 51.9288,158.415 49.5,158.5C 49.7564,156.208 49.4231,154.041 48.5,152C 49.1667,150.667 50.1667,149.667 51.5,149C 48.853,145.995 47.0196,142.495 46,138.5C 45.2825,139.451 44.4491,139.617 43.5,139C 45.7969,137.737 46.6302,135.903 46,133.5C 45,134.5 44,135.5 43,136.5C 42.8374,134.613 43.6707,133.113 45.5,132C 44.5842,131.722 43.9175,131.222 43.5,130.5C 49.1667,124.167 55.1667,118.167 61.5,112.5 Z"/></g>
<g><path style="opacity:1" fill="#ff9044" d="M 107.5,139.5 C 107.03,140.693 106.03,141.36 104.5,141.5C 102.168,140.828 99.8344,140.661 97.5,141C 95.9825,142.685 94.3159,144.185 92.5,145.5C 91.537,145.03 91.537,144.363 92.5,143.5C 94.4807,141.856 96.4807,140.19 98.5,138.5C 101.421,139.407 104.421,139.74 107.5,139.5 Z"/></g>
<g><path style="opacity:1" fill="#ffaf7a" d="M 149.5,142.5 C 149.544,143.925 150.544,145.258 152.5,146.5C 153.167,145.833 153.833,145.167 154.5,144.5C 154.833,144.833 155.167,145.167 155.5,145.5C 152.727,148.291 153.393,150.125 157.5,151C 156.549,151.718 156.383,152.551 157,153.5C 159.711,155.625 161.711,158.292 163,161.5C 164,160.5 165,159.5 166,158.5C 166.617,159.449 166.451,160.282 165.5,161C 167.833,161.333 170.167,161.667 172.5,162C 166.652,162.173 160.985,162.673 155.5,163.5C 153.167,163.5 150.833,163.5 148.5,163.5C 148.586,162.504 148.252,161.671 147.5,161C 143.247,160.8 139.08,160.3 135,159.5C 130.561,161.302 126.727,163.969 123.5,167.5C 122.404,165.897 121.07,164.397 119.5,163C 120.056,162.617 120.389,162.117 120.5,161.5C 121.542,160.209 122.708,160.209 124,161.5C 126.093,158.956 127.093,155.956 127,152.5C 129.396,149.591 132.396,147.591 136,146.5C 136.163,148.387 135.329,149.887 133.5,151C 134.701,151.903 135.535,153.069 136,154.5C 140.669,150.663 145.169,146.663 149.5,142.5 Z"/></g>
<g><path style="opacity:1" fill="#fff9f3" d="M 48.5,183.5 C 46.1415,185.529 43.8082,187.529 41.5,189.5C 39.5956,189.262 38.2623,188.262 37.5,186.5C 39.1667,185.5 40.5,184.167 41.5,182.5C 54.1619,171.171 66.4952,159.504 78.5,147.5C 80.4193,145.478 82.5859,145.144 85,146.5C 85.6667,147.167 85.6667,147.833 85,148.5C 72.6346,160.034 60.468,171.7 48.5,183.5 Z"/></g>
<g><path style="opacity:1" fill="#fff8f2" d="M 39.5,179.5 C 38.1667,180.5 36.8333,181.5 35.5,182.5C 33.5,182.5 32.5,181.5 32.5,179.5C 33.5,178.167 34.5,176.833 35.5,175.5C 36.5,175.167 37.1667,174.5 37.5,173.5C 38.8333,172.833 39.8333,171.833 40.5,170.5C 46.1098,166.228 51.4431,161.562 56.5,156.5C 60.1466,153.189 63.8133,149.855 67.5,146.5C 69.4753,147.275 70.3087,148.609 70,150.5C 59.6351,160.033 49.4685,169.7 39.5,179.5 Z"/></g>
<g><path style="opacity:1" fill="#ffa26f" d="M 146.5,132.5 C 145.859,133.482 145.193,134.482 144.5,135.5C 145.664,135.165 146.997,135.165 148.5,135.5C 146.244,137.73 146.577,139.73 149.5,141.5C 149.5,141.833 149.5,142.167 149.5,142.5C 145.169,146.663 140.669,150.663 136,154.5C 135.535,153.069 134.701,151.903 133.5,151C 135.329,149.887 136.163,148.387 136,146.5C 132.396,147.591 129.396,149.591 127,152.5C 127.093,155.956 126.093,158.956 124,161.5C 122.708,160.209 121.542,160.209 120.5,161.5C 117.482,161.665 114.482,161.498 111.5,161C 109.65,157.534 110.65,155.701 114.5,155.5C 119.533,152.129 123.866,148.129 127.5,143.5C 131.502,137.984 136.169,132.818 141.5,128C 142.744,127.544 143.577,128.044 144,129.5C 144.837,127.993 146.004,127.493 147.5,128C 145.534,129.347 145.201,130.847 146.5,132.5 Z"/></g>
<g><path style="opacity:1" fill="#ff582e" d="M 216.5,86.5 C 218.346,90.8684 219.513,95.535 220,100.5C 222.778,120.486 219.944,139.486 211.5,157.5C 210.549,156.081 210.216,154.415 210.5,152.5C 212.795,145.416 214.629,138.083 216,130.5C 216.558,116.451 216.058,102.451 214.5,88.5C 215.167,87.8333 215.833,87.1667 216.5,86.5 Z"/></g>
<g><path style="opacity:1" fill="#ff6e37" d="M 126.5,143.5 C 126.833,143.5 127.167,143.5 127.5,143.5C 123.866,148.129 119.533,152.129 114.5,155.5C 114.5,155.167 114.5,154.833 114.5,154.5C 118.5,150.833 122.5,147.167 126.5,143.5 Z"/></g>
<g><path style="opacity:1" fill="#ffa444" d="M 27.5,63.5 C 27.5,66.1667 27.5,68.8333 27.5,71.5C 24.6651,76.8056 21.4984,82.1389 18,87.5C 17.3131,89.5675 17.4798,91.5675 18.5,93.5C 16.9985,96.484 15.9985,99.6506 15.5,103C 15.7359,107.826 15.7359,112.659 15.5,117.5C 16.8299,132.304 20.6633,146.304 27,159.5C 28,160.167 29,160.833 30,161.5C 31.1385,166.447 33.6385,170.447 37.5,173.5C 37.1667,174.5 36.5,175.167 35.5,175.5C 30.7266,171.629 27.7266,166.629 26.5,160.5C 25.5,160.5 24.5,160.5 23.5,160.5C 20.7171,154.787 18.5505,148.787 17,142.5C 14.8223,127.568 14.1557,112.568 15,97.5C 16.6341,86.2496 19.9674,75.5829 25,65.5C 25.7083,64.6195 26.5416,63.9528 27.5,63.5 Z"/></g>
<g><path style="opacity:1" fill="#fff8f2" d="M 54.5,189.5 C 53.8333,189.5 53.5,189.833 53.5,190.5C 52.1667,191.167 51.1667,192.167 50.5,193.5C 49.5,194.167 48.5,194.833 47.5,195.5C 45.5956,195.262 44.2623,194.262 43.5,192.5C 46.8333,189.833 49.8333,186.833 52.5,183.5C 61.6295,175.54 70.6295,167.373 79.5,159C 81.3914,158.691 82.7248,159.525 83.5,161.5C 73.8127,170.855 64.146,180.188 54.5,189.5 Z"/></g>
<g><path style="opacity:1" fill="#ffb371" d="M 89.5,125.5 C 89.7563,127.937 90.4229,130.271 91.5,132.5C 89.8333,134.5 88.1667,136.5 86.5,138.5C 87.9308,140.938 89.9308,142.604 92.5,143.5C 91.537,144.363 91.537,145.03 92.5,145.5C 94.3159,144.185 95.9825,142.685 97.5,141C 99.8344,140.661 102.168,140.828 104.5,141.5C 106.03,141.36 107.03,140.693 107.5,139.5C 109.204,142.939 110.538,146.605 111.5,150.5C 110.883,150.389 110.383,150.056 110,149.5C 93.5714,165.75 78.4047,181.083 64.5,195.5C 61.1766,193.579 57.8433,191.579 54.5,189.5C 64.146,180.188 73.8127,170.855 83.5,161.5C 82.7248,159.525 81.3914,158.691 79.5,159C 70.6295,167.373 61.6295,175.54 52.5,183.5C 51.0357,184.405 49.7024,184.405 48.5,183.5C 60.468,171.7 72.6346,160.034 85,148.5C 85.6667,147.833 85.6667,147.167 85,146.5C 82.5859,145.144 80.4193,145.478 78.5,147.5C 75.4171,144.001 73.4171,140.001 72.5,135.5C 76.095,132.245 79.7616,128.912 83.5,125.5C 85.4595,124.481 87.4595,124.481 89.5,125.5 Z"/></g>
<g><path style="opacity:1" fill="#ffaf6e" d="M 111.5,150.5 C 111.799,152.455 112.799,153.789 114.5,154.5C 114.5,154.833 114.5,155.167 114.5,155.5C 110.65,155.701 109.65,157.534 111.5,161C 114.482,161.498 117.482,161.665 120.5,161.5C 120.389,162.117 120.056,162.617 119.5,163C 121.07,164.397 122.404,165.897 123.5,167.5C 116.854,174.812 109.854,181.812 102.5,188.5C 101.833,185.5 101.167,182.5 100.5,179.5C 96.1667,183.5 91.8333,187.5 87.5,191.5C 86.7459,196.229 86.4125,200.896 86.5,205.5C 85.3079,206.566 85.6412,207.399 87.5,208C 86.552,208.483 85.552,208.649 84.5,208.5C 84.5,207.167 84.5,205.833 84.5,204.5C 77.3089,202.569 70.6422,199.569 64.5,195.5C 78.4047,181.083 93.5714,165.75 110,149.5C 110.383,150.056 110.883,150.389 111.5,150.5 Z"/></g>
<g><path style="opacity:1" fill="#ffb16f" d="M 148.5,163.5 C 148.5,170.833 148.5,178.167 148.5,185.5C 147.509,192.313 147.175,199.313 147.5,206.5C 147.5,206.833 147.5,207.167 147.5,207.5C 139.886,208.689 132.219,209.355 124.5,209.5C 124.918,208.778 125.584,208.278 126.5,208C 130.17,207.452 133.837,206.952 137.5,206.5C 137.5,205.5 137.5,204.5 137.5,203.5C 140.688,203.382 143.688,202.549 146.5,201C 142.179,200.501 137.846,200.334 133.5,200.5C 133.5,188.167 133.5,175.833 133.5,163.5C 138.5,163.5 143.5,163.5 148.5,163.5 Z"/></g>
<g><path style="opacity:1" fill="#ffa66f" d="M 148.5,163.5 C 150.833,163.5 153.167,163.5 155.5,163.5C 163.167,163.5 170.833,163.5 178.5,163.5C 179.934,166.111 181.601,168.611 183.5,171C 182.007,175.943 179.34,180.61 175.5,185C 174.5,185.5 173.5,186 172.5,186.5C 164.556,185.531 156.556,185.198 148.5,185.5C 148.5,178.167 148.5,170.833 148.5,163.5 Z"/></g>
<g><path style="opacity:1" fill="#ff6329" d="M 210.5,152.5 C 210.216,154.415 210.549,156.081 211.5,157.5C 205.875,171.121 197.542,182.788 186.5,192.5C 186.062,192.565 185.728,192.399 185.5,192C 187.167,190.333 188.833,188.667 190.5,187C 190.043,186.586 189.709,186.086 189.5,185.5C 192.834,180.67 196.667,176.337 201,172.5C 202.15,169.582 202.983,166.582 203.5,163.5C 204.167,163.5 204.5,163.167 204.5,162.5C 206.06,158.932 208.06,155.598 210.5,152.5 Z"/></g>
<g><path style="opacity:1" fill="#ffbb79" d="M 148.5,163.5 C 143.5,163.5 138.5,163.5 133.5,163.5C 133.5,175.833 133.5,188.167 133.5,200.5C 137.846,200.334 142.179,200.501 146.5,201C 143.688,202.549 140.688,203.382 137.5,203.5C 137.5,204.5 137.5,205.5 137.5,206.5C 133.837,206.952 130.17,207.452 126.5,208C 125.584,208.278 124.918,208.778 124.5,209.5C 111.409,211.156 98.7428,209.823 86.5,205.5C 86.4125,200.896 86.7459,196.229 87.5,191.5C 91.8333,187.5 96.1667,183.5 100.5,179.5C 101.167,182.5 101.833,185.5 102.5,188.5C 109.854,181.812 116.854,174.812 123.5,167.5C 126.727,163.969 130.561,161.302 135,159.5C 139.08,160.3 143.247,160.8 147.5,161C 148.252,161.671 148.586,162.504 148.5,163.5 Z"/></g>
<g><path style="opacity:1" fill="#ff9839" d="M 39.5,179.5 C 40.4013,180.29 41.0679,181.29 41.5,182.5C 40.5,184.167 39.1667,185.5 37.5,186.5C 35.2381,185.655 34.5714,184.322 35.5,182.5C 36.8333,181.5 38.1667,180.5 39.5,179.5 Z"/></g>
<g><path style="opacity:1" fill="#ff9d6d" d="M 178.5,163.5 C 180.5,163.5 182.5,163.5 184.5,163.5C 186.833,163.5 189.167,163.5 191.5,163.5C 192.833,163.5 194.167,163.5 195.5,163.5C 186.579,179.251 173.912,191.085 157.5,199C 158.167,199.667 158.833,200.333 159.5,201C 155.354,202.574 151.354,204.407 147.5,206.5C 147.175,199.313 147.509,192.313 148.5,185.5C 156.556,185.198 164.556,185.531 172.5,186.5C 173.5,186 174.5,185.5 175.5,185C 179.34,180.61 182.007,175.943 183.5,171C 181.601,168.611 179.934,166.111 178.5,163.5 Z"/></g>
<g><path style="opacity:1" fill="#ff9c40" d="M 48.5,183.5 C 49.7024,184.405 51.0357,184.405 52.5,183.5C 49.8333,186.833 46.8333,189.833 43.5,192.5C 42.0937,192.027 41.427,191.027 41.5,189.5C 43.8082,187.529 46.1415,185.529 48.5,183.5 Z"/></g>
<g><path style="opacity:1" fill="#ff7434" d="M 203.5,163.5 C 202.983,166.582 202.15,169.582 201,172.5C 196.667,176.337 192.834,180.67 189.5,185.5C 189.709,186.086 190.043,186.586 190.5,187C 188.833,188.667 187.167,190.333 185.5,192C 185.728,192.399 186.062,192.565 186.5,192.5C 175.586,203.466 162.586,211.133 147.5,215.5C 147.5,215.167 147.5,214.833 147.5,214.5C 147.5,213.167 147.5,211.833 147.5,210.5C 153.383,208.111 159.05,205.278 164.5,202C 165.793,201.51 167.127,201.343 168.5,201.5C 168.537,197.775 170.204,196.442 173.5,197.5C 175.937,196.197 178.104,194.53 180,192.5C 185.76,185.938 191.26,179.272 196.5,172.5C 197.667,170.167 198.833,167.833 200,165.5C 200.816,164.177 201.983,163.511 203.5,163.5 Z"/></g>
<g><path style="opacity:1" fill="#ff8d28" d="M 50.5,193.5 C 58.1786,201.84 67.5119,207.507 78.5,210.5C 78.7148,212.179 78.0481,213.179 76.5,213.5C 65.3142,209.751 55.6475,203.751 47.5,195.5C 48.5,194.833 49.5,194.167 50.5,193.5 Z"/></g>
<g><path style="opacity:1" fill="#ff8e57" d="M 209.5,140.5 C 209.5,142.167 209.5,143.833 209.5,145.5C 206.854,150.782 205.187,156.448 204.5,162.5C 204.5,163.167 204.167,163.5 203.5,163.5C 201.983,163.511 200.816,164.177 200,165.5C 198.833,167.833 197.667,170.167 196.5,172.5C 191.26,179.272 185.76,185.938 180,192.5C 178.104,194.53 175.937,196.197 173.5,197.5C 170.204,196.442 168.537,197.775 168.5,201.5C 167.127,201.343 165.793,201.51 164.5,202C 159.05,205.278 153.383,208.111 147.5,210.5C 147.5,210.167 147.5,209.833 147.5,209.5C 147.5,208.833 147.5,208.167 147.5,207.5C 147.5,207.167 147.5,206.833 147.5,206.5C 151.354,204.407 155.354,202.574 159.5,201C 158.833,200.333 158.167,199.667 157.5,199C 173.912,191.085 186.579,179.251 195.5,163.5C 196.5,163.5 197.5,163.5 198.5,163.5C 199.496,163.586 200.329,163.252 201,162.5C 203.601,154.828 206.435,147.494 209.5,140.5 Z"/></g>
<g><path style="opacity:1" fill="#ffac5c" d="M 53.5,190.5 C 53.5,189.833 53.8333,189.5 54.5,189.5C 57.8433,191.579 61.1766,193.579 64.5,195.5C 70.6422,199.569 77.3089,202.569 84.5,204.5C 84.5,205.833 84.5,207.167 84.5,208.5C 85.552,208.649 86.552,208.483 87.5,208C 85.6412,207.399 85.3079,206.566 86.5,205.5C 98.7428,209.823 111.409,211.156 124.5,209.5C 132.219,209.355 139.886,208.689 147.5,207.5C 147.5,208.167 147.5,208.833 147.5,209.5C 139.491,210.836 131.491,212.336 123.5,214C 113.833,214.667 104.167,214.667 94.5,214C 86.2435,209.422 77.5768,205.755 68.5,203C 66.5676,201.648 65.2343,199.815 64.5,197.5C 60.1919,196.077 56.5253,193.744 53.5,190.5 Z"/></g>
<g><path style="opacity:1" fill="#ff9e44" d="M 53.5,190.5 C 56.5253,193.744 60.1919,196.077 64.5,197.5C 65.2343,199.815 66.5676,201.648 68.5,203C 77.5768,205.755 86.2435,209.422 94.5,214C 104.167,214.667 113.833,214.667 123.5,214C 131.491,212.336 139.491,210.836 147.5,209.5C 147.5,209.833 147.5,210.167 147.5,210.5C 147.5,211.833 147.5,213.167 147.5,214.5C 129.514,215.55 111.514,215.717 93.5,215C 89.7279,214.594 86.0613,213.761 82.5,212.5C 81.2613,212.942 80.2613,213.609 79.5,214.5C 78.209,214.737 77.209,214.404 76.5,213.5C 78.0481,213.179 78.7148,212.179 78.5,210.5C 67.5119,207.507 58.1786,201.84 50.5,193.5C 51.1667,192.167 52.1667,191.167 53.5,190.5 Z"/></g>
<g><path style="opacity:1" fill="#ff8b2a" d="M 147.5,214.5 C 147.5,214.833 147.5,215.167 147.5,215.5C 130.166,220.644 112.499,221.811 94.5,219C 89.1569,218.253 84.1569,216.753 79.5,214.5C 80.2613,213.609 81.2613,212.942 82.5,212.5C 86.0613,213.761 89.7279,214.594 93.5,215C 111.514,215.717 129.514,215.55 147.5,214.5 Z"/></g>
</svg>
