<svg width="81" height="80" viewBox="0 0 81 80" fill="none" xmlns="http://www.w3.org/2000/svg">
<g clip-path="url(#clip0_608_11960)">
<g clip-path="url(#clip1_608_11960)">
<g clip-path="url(#clip2_608_11960)">
<path opacity="0.2" d="M45.0372 79.8469L26.9138 75.8733L22.5571 77.7537L0.0769043 65.3799L13.9287 56.4304L45.0372 79.8469Z" fill="#0E0000"/>
<path d="M12.9963 29.1177V61.8513L45.0373 79.847V47.1134L12.9963 29.1177Z" fill="#0EAAFC"/>
<path d="M45.0374 79.847L77.0784 61.8513L77.0706 29.1177L45.0374 47.1134V79.847Z" fill="#07E8ED"/>
<path d="M45.0373 11.1219L12.9963 29.1177L45.0373 47.1134V11.1219Z" fill="#D9A773"/>
<path d="M45.0374 11.1219V47.1134L77.0706 29.1177L45.0374 11.1219Z" fill="#D9A773"/>
<path d="M45.0373 47.1134L30.5935 38.9997L39.8177 33.0179L45.0373 11.1219V47.1134Z" fill="#D9A773"/>
<path opacity="0.2" d="M12.9963 32.1279V44.7377L40.0654 59.8702L45.0335 55.5135L77.0784 37.63V32.8128L12.9963 32.1279Z" fill="#0E0000"/>
<path d="M9.99756 25.8365V32.4026L45.0372 52.0853V45.5154L9.99756 25.8365Z" fill="#0EAAFC"/>
<path d="M45.0374 52.0853L80.077 32.4026L80.0693 25.8326L45.0374 45.5154V52.0853Z" fill="#07E8ED"/>
<path d="M45.0372 6.15381L9.99756 25.8365L45.0372 45.5154L80.0691 25.8327L45.0372 6.15381Z" fill="#15CBF8"/>
<path d="M35.6157 19.1002L34.2886 19.8276L54.1764 30.9826L55.4996 30.2552L35.6157 19.1002Z" fill="#0EAAFC"/>
</g>
</g>
</g>
<defs>
<clipPath id="clip0_608_11960">
<rect x="0.333252" width="80" height="80" rx="8" fill="white"/>
</clipPath>
<clipPath id="clip1_608_11960">
<rect width="80" height="73.6932" fill="white" transform="translate(0.0769043 6.15381)"/>
</clipPath>
<clipPath id="clip2_608_11960">
<rect width="80" height="73.6932" fill="white" transform="translate(0.0769043 6.15381)"/>
</clipPath>
</defs>
</svg>
